<?xml version="1.0" encoding="UTF-8" standalone="no"?><!-- Generator: Gravit.io --><svg xmlns="http://www.w3.org/2000/svg" xmlns:xlink="http://www.w3.org/1999/xlink" style="isolation:isolate" viewBox="233.469 233.469 898.961 733.061" width="898.961pt" height="733.061pt"><g><path d=" M 966.53 600 C 966.53 802.43 802.43 966.53 600 966.53 C 397.571 966.53 233.469 802.43 233.469 600 C 233.469 397.571 397.571 233.469 600 233.469 C 802.43 233.469 966.53 397.571 966.53 600 Z " fill-rule="evenodd" fill="rgb(254,190,23)"/><path d=" M 600 793.192 C 519.074 793.192 450.198 846.828 424.394 921.792 C 476.542 950.31 536.375 966.53 600 966.53 C 663.626 966.53 723.459 950.31 775.605 921.792 C 749.803 846.828 680.926 793.192 600 793.192 Z " fill="rgb(255,255,255)"/><path d=" M 600 774.954 C 533.875 774.954 478.078 844.232 460.498 939.021 C 503.502 956.736 550.604 966.53 600 966.53 C 649.396 966.53 696.498 956.736 739.502 939.021 C 721.922 844.233 666.124 774.954 600 774.954 Z " fill="rgb(238,239,241)"/><path d=" M 600 756.628 C 548.373 756.628 506.521 772.663 506.521 792.443 C 506.521 812.224 548.373 828.259 600 828.259 C 651.627 828.259 693.479 812.224 693.479 792.443 C 693.479 772.663 651.627 756.628 600 756.628 Z " fill="rgb(209,211,212)"/><path d=" M 389.541 586.941 L 404.532 586.941 L 404.532 414.532 L 389.541 414.532 L 389.541 586.941 Z " fill="rgb(238,239,241)"/><path d=" M 795.468 586.941 L 810.46 586.941 L 810.46 414.532 L 795.468 414.532 L 795.468 586.941 Z " fill="rgb(238,239,241)"/><path d=" M 416.443 562.515 C 383.155 562.515 356.17 589.5 356.17 622.789 C 356.17 656.077 383.155 683.063 416.443 683.063 C 449.731 683.063 476.717 656.077 476.717 622.789 C 476.717 589.5 449.731 562.515 416.443 562.515 Z " fill="rgb(209,211,212)"/><path d=" M 783.557 562.515 C 750.269 562.515 723.283 589.5 723.283 622.789 C 723.283 656.077 750.269 683.063 783.557 683.063 C 816.845 683.063 843.83 656.077 843.83 622.789 C 843.83 589.5 816.845 562.515 783.557 562.515 Z " fill="rgb(209,211,212)"/><path d=" M 596.618 453.029 C 488.134 454.841 402.146 545.612 402.146 654.111 L 402.146 738.437 C 402.146 768.337 426.386 792.577 456.287 792.577 L 743.713 792.577 C 773.614 792.577 797.854 768.337 797.854 738.437 L 797.854 650.854 C 797.854 540.458 707.438 451.179 596.618 453.029 Z " fill="rgb(209,211,212)"/><path d=" M 596.618 431.805 C 488.134 433.617 402.146 524.388 402.146 632.887 L 402.146 730.839 C 402.146 753.214 420.285 771.353 442.66 771.353 L 757.34 771.353 C 779.715 771.353 797.854 753.214 797.854 730.839 L 797.854 629.631 C 797.854 519.234 707.438 429.955 596.618 431.805 Z " fill="rgb(238,239,241)"/><path d=" M 597.371 468.098 C 513.036 469.522 446.189 540.888 446.189 626.19 L 446.189 703.201 C 446.189 720.793 460.29 735.054 477.685 735.054 L 722.315 735.054 C 739.71 735.054 753.811 720.793 753.811 703.201 L 753.811 623.631 C 753.811 536.835 683.521 466.643 597.371 468.098 Z " fill="rgb(209,211,212)"/><path d=" M 597.37 480.925 C 513.036 482.349 446.189 553.715 446.189 639.018 L 446.189 703.201 C 446.189 720.793 460.29 735.054 477.685 735.054 L 722.315 735.054 C 739.71 735.054 753.811 720.793 753.811 703.201 L 753.811 636.458 C 753.811 549.663 683.521 479.47 597.37 480.925 Z " fill="rgb(53,56,73)"/><path d=" M 532.223 574.255 C 522.049 574.255 513.803 582.502 513.803 592.676 C 513.803 602.849 522.049 611.096 532.223 611.096 C 542.396 611.096 550.643 602.849 550.643 592.676 C 550.643 582.502 542.396 574.255 532.223 574.255 Z " fill="rgb(76,238,223)"/><path d=" M 667.777 574.255 C 657.604 574.255 649.357 582.502 649.357 592.676 C 649.357 602.849 657.604 611.096 667.777 611.096 C 677.95 611.096 686.197 602.849 686.197 592.676 C 686.197 582.502 677.95 574.255 667.777 574.255 Z " fill="rgb(76,238,223)"/><path d=" M 645.022 638.836 L 554.977 638.836 C 552.025 638.836 549.739 641.425 550.06 644.359 C 552.81 669.508 574.12 689.076 600 689.076 C 625.88 689.076 647.19 669.508 649.94 644.359 C 650.261 641.425 647.975 638.836 645.022 638.836 Z " fill="rgb(76,238,223)"/><path d=" M 397.037 382.887 C 385.288 382.887 375.763 392.411 375.763 404.16 C 375.763 415.909 385.288 425.433 397.037 425.433 C 408.785 425.433 418.31 415.909 418.31 404.16 C 418.31 392.411 408.785 382.887 397.037 382.887 Z " fill="rgb(209,211,212)"/><path d=" M 802.964 382.887 C 791.215 382.887 781.69 392.411 781.69 404.16 C 781.69 415.909 791.215 425.433 802.964 425.433 C 814.713 425.433 824.237 415.909 824.237 404.16 C 824.237 392.411 814.713 382.887 802.964 382.887 Z " fill="rgb(209,211,212)"/><path d=" M 1047.41 424.098 L 921.495 424.098 C 874.539 424.098 836.475 462.164 836.475 509.119 L 836.475 509.119 C 836.475 543.621 857.037 573.301 886.566 586.629 L 883.987 591.476 L 870.174 617.435 L 896.133 603.621 L 914.528 593.833 C 916.828 594.019 919.146 594.14 921.495 594.14 L 1047.41 594.14 C 1094.36 594.14 1132.43 556.075 1132.43 509.119 L 1132.43 509.119 C 1132.43 462.164 1094.36 424.098 1047.41 424.098 Z " fill-rule="evenodd" fill="rgb(53,56,73)"/><path d=" M 944.385 552.48 C 942.115 552.48 940.135 551.746 938.445 550.278 C 936.755 548.811 935.905 546.757 935.905 544.118 C 935.905 541.815 936.715 539.853 938.335 538.236 C 939.945 536.62 941.925 535.811 944.275 535.811 C 946.615 535.811 948.605 536.62 950.265 538.236 C 951.915 539.853 952.745 541.815 952.745 544.118 C 952.745 546.72 951.905 548.764 950.235 550.251 C 948.565 551.736 946.615 552.48 944.385 552.48 Z  M 938.195 515.798 L 936.405 489.094 C 936.075 483.891 935.905 480.156 935.905 477.888 C 935.905 474.804 936.715 472.397 938.335 470.669 C 939.945 468.941 942.075 468.076 944.715 468.076 C 947.915 468.076 950.045 469.183 951.125 471.394 C 952.205 473.606 952.745 476.792 952.745 480.954 C 952.745 483.407 952.615 485.898 952.355 488.425 L 949.955 515.909 C 949.695 519.18 949.135 521.689 948.285 523.435 C 947.425 525.182 946.015 526.055 944.045 526.055 C 942.045 526.055 940.645 525.21 939.865 523.519 C 939.085 521.828 938.525 519.254 938.195 515.798 Z " fill="rgb(255,255,255)"/><path d=" M 984.512 552.48 C 982.242 552.48 980.262 551.746 978.572 550.278 C 976.882 548.811 976.033 546.757 976.033 544.118 C 976.033 541.815 976.842 539.853 978.462 538.236 C 980.072 536.62 982.052 535.811 984.403 535.811 C 986.742 535.811 988.732 536.62 990.393 538.236 C 992.043 539.853 992.872 541.815 992.872 544.118 C 992.872 546.72 992.033 548.764 990.362 550.251 C 988.692 551.736 986.742 552.48 984.512 552.48 Z  M 978.322 515.798 L 976.533 489.094 C 976.202 483.891 976.033 480.156 976.033 477.888 C 976.033 474.804 976.842 472.397 978.462 470.669 C 980.072 468.941 982.202 468.076 984.842 468.076 C 988.043 468.076 990.172 469.183 991.252 471.394 C 992.332 473.606 992.872 476.792 992.872 480.954 C 992.872 483.407 992.742 485.898 992.482 488.425 L 990.082 515.909 C 989.822 519.18 989.262 521.689 988.413 523.435 C 987.552 525.182 986.143 526.055 984.172 526.055 C 982.172 526.055 980.773 525.21 979.992 523.519 C 979.212 521.828 978.653 519.254 978.322 515.798 Z " fill="rgb(255,255,255)"/><path d=" M 1024.64 552.48 C 1022.37 552.48 1020.39 551.746 1018.7 550.278 C 1017.01 548.811 1016.16 546.757 1016.16 544.118 C 1016.16 541.815 1016.97 539.853 1018.59 538.236 C 1020.2 536.62 1022.18 535.811 1024.53 535.811 C 1026.87 535.811 1028.86 536.62 1030.52 538.236 C 1032.17 539.853 1033 541.815 1033 544.118 C 1033 546.72 1032.16 548.764 1030.49 550.251 C 1028.82 551.736 1026.87 552.48 1024.64 552.48 Z  M 1018.45 515.798 L 1016.66 489.094 C 1016.33 483.891 1016.16 480.156 1016.16 477.888 C 1016.16 474.804 1016.97 472.397 1018.59 470.669 C 1020.2 468.941 1022.33 468.076 1024.97 468.076 C 1028.17 468.076 1030.3 469.183 1031.38 471.394 C 1032.46 473.606 1033 476.792 1033 480.954 C 1033 483.407 1032.87 485.898 1032.61 488.425 L 1030.21 515.909 C 1029.95 519.18 1029.39 521.689 1028.54 523.435 C 1027.68 525.182 1026.27 526.055 1024.3 526.055 C 1022.3 526.055 1020.9 525.21 1020.12 523.519 C 1019.34 521.828 1018.78 519.254 1018.45 515.798 Z " fill="rgb(255,255,255)"/></g></svg>