<?xml version="1.0" encoding="UTF-8" standalone="no"?><!-- Generator: Gravit.io --><svg xmlns="http://www.w3.org/2000/svg" xmlns:xlink="http://www.w3.org/1999/xlink" style="isolation:isolate" viewBox="233.469 233.469 944.531 733.061" width="944.531pt" height="733.061pt"><g><path d=" M 966.53 600 C 966.53 802.43 802.43 966.53 600 966.53 C 397.571 966.53 233.469 802.43 233.469 600 C 233.469 397.571 397.571 233.469 600 233.469 C 802.43 233.469 966.53 397.571 966.53 600 Z " fill-rule="evenodd" fill="rgb(254,190,23)"/><path d=" M 600 793.192 C 519.074 793.192 450.198 846.828 424.394 921.792 C 476.542 950.31 536.375 966.53 600 966.53 C 663.626 966.53 723.459 950.31 775.605 921.792 C 749.803 846.828 680.926 793.192 600 793.192 Z " fill="rgb(255,255,255)"/><path d=" M 600 774.954 C 533.875 774.954 478.078 844.232 460.498 939.021 C 503.502 956.736 550.604 966.53 600 966.53 C 649.396 966.53 696.498 956.736 739.502 939.021 C 721.922 844.233 666.124 774.954 600 774.954 Z " fill="rgb(238,239,241)"/><path d=" M 600 756.628 C 548.373 756.628 506.521 772.663 506.521 792.443 C 506.521 812.224 548.373 828.259 600 828.259 C 651.627 828.259 693.479 812.224 693.479 792.443 C 693.479 772.663 651.627 756.628 600 756.628 Z " fill="rgb(209,211,212)"/><path d=" M 389.541 586.941 L 404.532 586.941 L 404.532 414.532 L 389.541 414.532 L 389.541 586.941 Z " fill="rgb(238,239,241)"/><path d=" M 795.468 586.941 L 810.46 586.941 L 810.46 414.532 L 795.468 414.532 L 795.468 586.941 Z " fill="rgb(238,239,241)"/><path d=" M 416.443 562.515 C 383.155 562.515 356.17 589.5 356.17 622.789 C 356.17 656.077 383.155 683.063 416.443 683.063 C 449.731 683.063 476.717 656.077 476.717 622.789 C 476.717 589.5 449.731 562.515 416.443 562.515 Z " fill="rgb(209,211,212)"/><path d=" M 783.557 562.515 C 750.269 562.515 723.283 589.5 723.283 622.789 C 723.283 656.077 750.269 683.063 783.557 683.063 C 816.845 683.063 843.83 656.077 843.83 622.789 C 843.83 589.5 816.845 562.515 783.557 562.515 Z " fill="rgb(209,211,212)"/><path d=" M 596.618 453.029 C 488.134 454.841 402.146 545.612 402.146 654.111 L 402.146 738.437 C 402.146 768.337 426.386 792.577 456.287 792.577 L 743.713 792.577 C 773.614 792.577 797.854 768.337 797.854 738.437 L 797.854 650.854 C 797.854 540.458 707.438 451.179 596.618 453.029 Z " fill="rgb(209,211,212)"/><path d=" M 596.618 431.805 C 488.134 433.617 402.146 524.388 402.146 632.887 L 402.146 730.839 C 402.146 753.214 420.285 771.353 442.66 771.353 L 757.34 771.353 C 779.715 771.353 797.854 753.214 797.854 730.839 L 797.854 629.631 C 797.854 519.234 707.438 429.955 596.618 431.805 Z " fill="rgb(238,239,241)"/><path d=" M 597.371 468.098 C 513.036 469.522 446.189 540.888 446.189 626.19 L 446.189 703.201 C 446.189 720.793 460.29 735.054 477.685 735.054 L 722.315 735.054 C 739.71 735.054 753.811 720.793 753.811 703.201 L 753.811 623.631 C 753.811 536.835 683.521 466.643 597.371 468.098 Z " fill="rgb(209,211,212)"/><path d=" M 597.37 480.925 C 513.036 482.349 446.189 553.715 446.189 639.018 L 446.189 703.201 C 446.189 720.793 460.29 735.054 477.685 735.054 L 722.315 735.054 C 739.71 735.054 753.811 720.793 753.811 703.201 L 753.811 636.458 C 753.811 549.663 683.521 479.47 597.37 480.925 Z " fill="rgb(53,56,73)"/><path d=" M 532.223 574.255 C 522.049 574.255 513.803 582.502 513.803 592.676 C 513.803 602.849 522.049 611.096 532.223 611.096 C 542.396 611.096 550.643 602.849 550.643 592.676 C 550.643 582.502 542.396 574.255 532.223 574.255 Z " fill="rgb(76,238,223)"/><path d=" M 667.777 574.255 C 657.604 574.255 649.357 582.502 649.357 592.676 C 649.357 602.849 657.604 611.096 667.777 611.096 C 677.95 611.096 686.197 602.849 686.197 592.676 C 686.197 582.502 677.95 574.255 667.777 574.255 Z " fill="rgb(76,238,223)"/><path d=" M 645.022 638.836 L 554.977 638.836 C 552.025 638.836 549.739 641.425 550.06 644.359 C 552.81 669.508 574.12 689.076 600 689.076 C 625.88 689.076 647.19 669.508 649.94 644.359 C 650.261 641.425 647.975 638.836 645.022 638.836 Z " fill="rgb(76,238,223)"/><path d=" M 397.037 382.887 C 385.288 382.887 375.763 392.411 375.763 404.16 C 375.763 415.909 385.288 425.433 397.037 425.433 C 408.785 425.433 418.31 415.909 418.31 404.16 C 418.31 392.411 408.785 382.887 397.037 382.887 Z " fill="rgb(209,211,212)"/><path d=" M 802.964 382.887 C 791.215 382.887 781.69 392.411 781.69 404.16 C 781.69 415.909 791.215 425.433 802.964 425.433 C 814.713 425.433 824.237 415.909 824.237 404.16 C 824.237 392.411 814.713 382.887 802.964 382.887 Z " fill="rgb(209,211,212)"/><path d=" M 1076.373 424.098 L 925.864 424.098 C 869.736 424.098 824.237 462.164 824.237 509.119 L 824.237 509.119 C 824.237 543.621 848.815 573.301 884.112 586.629 L 881.029 591.476 L 864.518 617.435 L 895.548 603.621 L 917.536 593.833 C 920.285 594.019 923.056 594.14 925.864 594.14 L 1076.373 594.14 C 1132.494 594.14 1178 556.075 1178 509.119 L 1178 509.119 C 1178 462.164 1132.494 424.098 1076.373 424.098 Z " fill-rule="evenodd" fill="rgb(53,56,73)"/><text transform="matrix(1,0,0,1,849,540.773)" style="font-family:'Roboto';font-weight:400;font-size:100px;font-style:normal;fill:#ffffff;stroke:none;">SALUT</text></g></svg>