<?xml version="1.0"?><svg fill="#000000" xmlns="http://www.w3.org/2000/svg" viewBox="0 0 128 128" width="64px" height="64px">    <path d="M 47 11 C 41.5 11 37 15.5 37 21 L 37 36 L 14 36 C 6.8 36 1 41.8 1 49 L 1 104 C 1 111.2 6.8 117 14 117 L 56.800781 117 C 58.400781 117 59.9 115.79922 60 114.19922 C 60.1 112.49922 58.7 111 57 111 L 14 111 C 10.1 111 7 107.9 7 104 L 7 49 C 7 45.1 10.1 42 14 42 L 69 42 C 72.9 42 76 45.1 76 49 L 76 93.199219 C 76 100.09922 78.8 106.4 83.5 111 L 81.199219 111 C 77.499219 111 73.699219 109.8 71.199219 107 C 69.899219 105.6 67.7 105.69922 66.5 107.19922 C 65.6 108.39922 65.800391 110.09922 66.900391 111.19922 C 70.700391 114.89922 75.7 117 81 117 L 93.800781 117 C 95.200781 117 96.500781 116.20078 96.800781 114.80078 C 97.300781 113.20078 96.400391 111.59961 94.900391 111.09961 C 87.200391 108.49961 82 101.29961 82 93.099609 L 82 86 L 89.900391 86 C 94.400391 86 98.8 84.2 102 81 C 105.2 84.2 109.49961 86 114.09961 86 L 116.5 86 C 119.2 86 120.49961 82.700781 118.59961 80.800781 C 114.49961 76.800781 112 71.199609 112 65.099609 L 112 21 C 112 15.5 107.5 11 102 11 L 47 11 z M 31 64.800781 A 5 5 0 0 0 26 69.800781 A 5 5 0 0 0 31 74.800781 A 5 5 0 0 0 36 69.800781 A 5 5 0 0 0 31 64.800781 z M 51 64.800781 A 5 5 0 0 0 46 69.800781 A 5 5 0 0 0 51 74.800781 A 5 5 0 0 0 56 69.800781 A 5 5 0 0 0 51 64.800781 z M 31.400391 81.199219 C 31.400391 86.799219 35.900391 91.199219 41.400391 91.199219 C 46.900391 91.199219 51.400391 86.699219 51.400391 81.199219 L 31.400391 81.199219 z M 107 111 A 3 3 0 0 0 104 114 A 3 3 0 0 0 107 117 A 3 3 0 0 0 110 114 A 3 3 0 0 0 107 111 z"/></svg>