<svg fill="#000000" xmlns="http://www.w3.org/2000/svg" viewBox="0 0 50 50" width="100px" height="100px"><path fill="none" stroke="#000000" stroke-miterlimit="10" stroke-width="2" d="M27 29l0 14c0 1.105.895 2 2 2h14c1.105 0 2-.895 2-2V29c0-1.105-.895-2-2-2H29C27.895 27 27 27.895 27 29zM45 21V7c0-1.105-.895-2-2-2H29c-1.105 0-2 .895-2 2l0 14c0 1.105.895 2 2 2l14 0C44.105 23 45 22.105 45 21zM5 29l0 14c0 1.105.895 2 2 2h14c1.105 0 2-.895 2-2V29c0-1.105-.895-2-2-2H7C5.895 27 5 27.895 5 29zM23 21V7c0-1.105-.895-2-2-2H7C5.895 5 5 5.895 5 7l0 14c0 1.105.895 2 2 2l14 0C22.105 23 23 22.105 23 21z"/></svg>