<svg fill="#000000" xmlns="http://www.w3.org/2000/svg" viewBox="0 0 50 50" width="50px" height="50px"><path d="M 19.3125 0.03125 C 19.121094 0.03125 18.933594 0.078125 18.75 0.15625 L 11.59375 3.125 C 10.855469 3.433594 10.484375 4.292969 10.78125 5.03125 C 10.78125 5.042969 10.78125 5.050781 10.78125 5.0625 L 11.5625 6.9375 C 11.867188 7.679688 12.753906 8.03125 13.5 7.71875 L 14.25 7.40625 L 15.125 9.65625 L 14.96875 9.71875 C 14.683594 9.832031 14.457031 9.902344 14.21875 10.03125 C 13.980469 10.160156 13.632813 10.40625 13.46875 10.8125 C 13.304688 11.21875 13.394531 11.585938 13.46875 11.84375 C 13.542969 12.101563 13.636719 12.3125 13.75 12.59375 C 13.75 12.605469 13.75 12.613281 13.75 12.625 L 13.9375 13.125 L 13.5 13.28125 C 8.296875 15.398438 5.769531 21.367188 7.875 26.5625 C 7.875 26.574219 7.875 26.582031 7.875 26.59375 L 10.15625 32 C 9.375 33.140625 8.90625 34.523438 8.90625 36 C 8.90625 39.410156 11.339844 42.273438 14.5625 42.9375 C 14.5625 42.957031 14.5625 42.980469 14.5625 43 C 14.757813 43.34375 14.96875 43.671875 15.1875 44 L 9.875 44 C 8.261719 44 7 45.386719 7 47 L 7 49 C 7 49.550781 7.449219 50 8 50 L 42 50 C 42.550781 50 43 49.550781 43 49 L 43 47 C 43 45.386719 41.738281 44 40.125 44 L 37.3125 44 C 39.160156 43.210938 40.101563 41.105469 39.375 39.21875 C 38.816406 37.769531 37.4375 36.832031 35.96875 36.78125 C 35.480469 36.765625 34.984375 36.84375 34.5 37.03125 L 24.65625 40.84375 C 24.644531 40.84375 24.636719 40.84375 24.625 40.84375 C 24.242188 40.996094 23.753906 40.984375 23.1875 40.75 C 22.753906 40.570313 22.332031 40.242188 21.9375 39.875 C 22.667969 38.761719 23.09375 37.421875 23.09375 36 C 23.09375 35.542969 23.019531 35.089844 22.9375 34.65625 L 35.875 29.375 C 36.410156 29.238281 36.730469 28.691406 36.59375 28.15625 C 36.457031 27.621094 35.910156 27.300781 35.375 27.4375 C 35.289063 27.449219 35.207031 27.46875 35.125 27.5 L 22.28125 32.78125 C 21.234375 30.75 19.257813 29.273438 16.90625 28.96875 L 14.84375 23.75 C 14.292969 22.386719 14.945313 20.839844 16.3125 20.28125 C 16.324219 20.28125 16.332031 20.28125 16.34375 20.28125 L 16.84375 20.0625 L 18.34375 23.71875 C 18.359375 23.78125 18.378906 23.847656 18.40625 23.90625 L 19.40625 26.34375 C 19.507813 26.582031 19.699219 26.773438 19.9375 26.875 L 22.8125 28.09375 C 23.054688 28.191406 23.320313 28.191406 23.5625 28.09375 L 27.65625 26.46875 C 27.894531 26.367188 28.085938 26.175781 28.1875 25.9375 L 29.4375 23.0625 C 29.535156 22.820313 29.535156 22.554688 29.4375 22.3125 L 28.46875 20 C 28.46875 19.980469 28.46875 19.957031 28.46875 19.9375 L 28.46875 19.90625 C 28.457031 19.894531 28.449219 19.886719 28.4375 19.875 C 28.4375 19.855469 28.4375 19.832031 28.4375 19.8125 C 28.417969 19.769531 28.398438 19.726563 28.375 19.6875 L 23.75 8.5 C 23.636719 8.21875 23.5625 8.015625 23.4375 7.78125 C 23.3125 7.546875 23.101563 7.207031 22.6875 7.03125 C 22.273438 6.855469 21.910156 6.925781 21.65625 7 C 21.402344 7.074219 21.1875 7.167969 20.90625 7.28125 L 20.71875 7.34375 L 19.8125 5.09375 L 20.65625 4.75 C 21.382813 4.445313 21.761719 3.582031 21.46875 2.84375 L 21.46875 2.8125 L 20.6875 0.9375 C 20.449219 0.390625 19.886719 0.0351563 19.3125 0.03125 Z M 19.03125 2.1875 L 19.4375 3.09375 L 13.21875 5.6875 L 12.8125 4.78125 Z M 17.96875 5.84375 L 18.875 8.125 L 17 8.90625 L 16.09375 6.625 Z M 21.84375 9.09375 C 21.871094 9.15625 21.875 9.171875 21.90625 9.25 C 21.90625 9.261719 21.90625 9.269531 21.90625 9.28125 L 26.21875 19.6875 L 19.875 22.21875 L 15.59375 11.875 C 15.589844 11.863281 15.597656 11.855469 15.59375 11.84375 C 15.554688 11.75 15.527344 11.730469 15.5 11.65625 C 15.574219 11.625 15.585938 11.601563 15.6875 11.5625 C 15.699219 11.5625 15.707031 11.5625 15.71875 11.5625 L 21.65625 9.15625 C 21.75 9.117188 21.769531 9.121094 21.84375 9.09375 Z M 14.71875 14.9375 L 16.0625 18.21875 L 15.5625 18.40625 C 13.191406 19.375 12.039063 22.125 13 24.5 L 14.78125 29.03125 C 13.617188 29.234375 12.554688 29.707031 11.65625 30.40625 L 9.71875 25.8125 C 8.027344 21.636719 10.046875 16.882813 14.21875 15.15625 C 14.234375 15.152344 14.234375 15.128906 14.25 15.125 Z M 26.96875 21.5625 L 27.4375 22.65625 L 26.5 24.78125 L 23.21875 26.09375 L 21.09375 25.1875 L 20.65625 24.09375 Z M 16 31.09375 C 18.726563 31.09375 20.90625 33.273438 20.90625 36 C 20.90625 38.726563 18.726563 40.90625 16 40.90625 C 13.273438 40.90625 11.09375 38.726563 11.09375 36 C 11.09375 33.273438 13.273438 31.09375 16 31.09375 Z M 35.90625 38.78125 C 36.59375 38.804688 37.234375 39.246094 37.5 39.9375 C 37.855469 40.859375 37.390625 41.863281 36.46875 42.21875 L 31.8125 44 L 17.6875 44 C 17.464844 43.75 17.222656 43.410156 16.96875 43.03125 C 18.335938 42.84375 19.585938 42.265625 20.59375 41.40625 C 21.140625 41.902344 21.757813 42.3125 22.4375 42.59375 C 23.34375 42.96875 24.386719 43.085938 25.375 42.6875 L 35.21875 38.90625 C 35.449219 38.816406 35.675781 38.773438 35.90625 38.78125 Z M 9.875 46 L 40.125 46 C 40.582031 46 41 46.402344 41 47 L 41 48 L 9 48 L 9 47 C 9 46.402344 9.417969 46 9.875 46 Z"/></svg>