<?xml version="1.0" encoding="UTF-8"?>
<svg xmlns="http://www.w3.org/2000/svg" xmlns:xlink="http://www.w3.org/1999/xlink" width="100pt" height="100pt" viewBox="0 0 100 100" version="1.1">
<g id="surface4400327">
<path style=" stroke:none;fill-rule:nonzero;fill:rgb(0%,0%,0%);fill-opacity:1;" d="M 71.875 0 C 71.492188 0.0078125 71.125 0.0859375 70.75 0.1875 C 69.265625 0.601562 67.929688 1.585938 66.875 2.9375 C 66.851562 2.960938 66.835938 2.976562 66.8125 3 L 50.125 26.375 C 39.867188 24 28.671875 26.703125 20.6875 34.6875 C 19.914062 35.46875 19.914062 36.71875 20.6875 37.5 L 35.5625 52.3125 L 0.4375 96.75 C -0.203125 97.546875 -0.140625 98.695312 0.578125 99.421875 C 1.304688 100.140625 2.453125 100.203125 3.25 99.5625 L 47.625 64.4375 L 62.5 79.25 C 63.28125 80.023438 64.53125 80.023438 65.3125 79.25 C 73.414062 71.15625 76.0625 59.75 73.5 49.375 L 96.9375 33.4375 C 96.960938 33.414062 96.976562 33.398438 97 33.375 C 98.367188 32.359375 99.3125 31.101562 99.75 29.625 C 100.1875 28.148438 99.96875 26.28125 98.75 25.0625 L 75.25 1.25 C 74.648438 0.632812 73.851562 0.289062 73.0625 0.125 C 72.664062 0.0390625 72.257812 -0.0078125 71.875 0 Z M 72.25 4 C 72.320312 4.007812 72.328125 4.015625 72.375 4.0625 L 95.9375 27.875 C 96.023438 27.960938 96.070312 27.984375 95.9375 28.4375 C 95.804688 28.875 95.34375 29.5625 94.625 30.125 L 94.5625 30.1875 L 70.25 46.75 C 70.226562 46.773438 70.210938 46.789062 70.1875 46.8125 L 70.0625 46.875 C 69.398438 47.390625 69.125 48.257812 69.375 49.0625 C 71.992188 57.835938 69.992188 67.507812 63.6875 74.8125 L 25.125 36.3125 C 32.335938 30.09375 41.882812 28.039062 50.5625 30.5 C 51.390625 30.726562 52.273438 30.398438 52.75 29.6875 L 70 5.375 L 70.0625 5.3125 C 70.640625 4.601562 71.367188 4.1875 71.8125 4.0625 C 72.046875 4 72.179688 3.992188 72.25 4 Z M 38.375 55.1875 L 44.8125 61.5625 L 14.25 85.75 Z M 38.375 55.1875 "/>
</g>
</svg>
