<?xml version="1.0" encoding="UTF-8"?>
<svg xmlns="http://www.w3.org/2000/svg" xmlns:xlink="http://www.w3.org/1999/xlink" width="100pt" height="100pt" viewBox="0 0 100 100" version="1.1">
<g id="surface4532672">
<path style=" stroke:none;fill-rule:nonzero;fill:rgb(10.196078%,73.72549%,61.176471%);fill-opacity:1;" d="M 20.398438 97.199219 C 20 97.199219 19.601562 97 19.199219 96.800781 C 18.601562 96.398438 18.199219 95.398438 18.398438 94.601562 L 27.199219 61.800781 L 0.800781 40.398438 C 0 40 -0.199219 39 0 38.199219 C 0.199219 37.398438 1 36.800781 1.800781 36.800781 L 35.800781 35 L 48 3.199219 C 48.398438 2.601562 49.199219 2 50 2 C 50.800781 2 51.601562 2.601562 51.800781 3.199219 L 64 35 L 98 36.800781 C 98.800781 36.800781 99.601562 37.398438 99.800781 38.199219 C 100 39 99.800781 39.800781 99.199219 40.398438 L 72.800781 61.800781 L 81.601562 94.601562 C 81.800781 95.398438 81.601562 96.199219 80.800781 96.800781 C 80.199219 97.199219 79.199219 97.398438 78.601562 96.800781 L 50 78.398438 L 21.398438 96.800781 C 21 97.199219 20.800781 97.199219 20.398438 97.199219 Z M 20.398438 97.199219 "/>
</g>
</svg>
