<svg xmlns="http://www.w3.org/2000/svg" viewBox="0 0 64 64" width="20px" height="20px"><path fill="#f9e3ae" d="M48,7v36H23l-10,8c-0.16,0.11-0.33,0.1-0.48,0c-0.58-0.37-1.06-1.88-0.9-2.58L12.93,43H3V7H48z"/><path fill="#fff" d="M10.648 14L11.231 15.065 12.296 15.648 11.231 16.231 10.648 17.296 10.065 16.231 9 15.648 10.065 15.065z"/><path fill="#faefde" d="M48 7v14L26 43h-3l-10 8h-.48c-.58-.37-1.06-1.88-.9-2.58L12.93 43H11L47 7H48zM43 7L7 43 3 43 3 41 37 7zM33 7L3 37 3 32 28 7z"/><path fill="#f6d397" d="M3,42L3,42c0,0.552,0.448,1,1,1h8.667c0,0,0.333,4-0.667,8c5,1,10-8,10-8h30c0.552,0,1-0.448,1-1v0 c0-2.209-1.791-4-4-4H7C4.791,38,3,39.791,3,42z"/><path fill="#72caaf" d="M61 25L61 51 52.91 51 54 58 51 57 45.68 51 31 51 31 25z"/><path fill="#fff" d="M42.502 13.996L43.74 16.26 46.004 17.498 43.74 18.736 42.502 21 41.264 18.736 39 17.498 41.264 16.26zM18.419 27L19.274 28.564 20.838 29.419 19.274 30.274 18.419 31.838 17.564 30.274 16 29.419 17.564 28.564z"/><path fill="#5dbc9d" d="M61,51h-8.09L54,58l-3-1l-5.32-6H31v-1c0-2.209,1.791-4,4-4h22c2.209,0,4,1.791,4,4V51z"/><path fill="#8d6c9f" d="M59,24h-9V9c0-1.654-1.346-3-3-3H5C3.346,6,2,7.346,2,9v32c0,1.654,1.346,3,3,3h7.145 c0.063,1.072-0.113,3.336-2.002,6.485c-0.206,0.343-0.188,0.775,0.046,1.099C10.379,51.849,10.683,52,11,52 c0.072,0,0.145-0.008,0.217-0.024C18.941,50.26,21.818,45.737,22.659,44H30v5c0,1.654,1.346,3,3,3h12.237 c0.599,1.838,2.625,6.133,8.622,6.99C53.906,58.997,53.953,59,54,59c0.304,0,0.595-0.139,0.786-0.382 c0.221-0.281,0.275-0.658,0.143-0.99c-1.202-3.004-1.239-4.8-1.146-5.628H59c1.654,0,3-1.346,3-3V27C62,25.346,60.654,24,59,24z M30,27v15h-8c-0.431,0-0.813,0.275-0.949,0.684c-0.017,0.05-1.58,4.519-8.097,6.735c1.828-4.104,1.034-6.614,0.994-6.735 C13.812,42.275,13.431,42,13,42H5c-0.551,0-1-0.449-1-1V9c0-0.551,0.449-1,1-1h42c0.551,0,1,0.449,1,1v15H33 C31.346,24,30,25.346,30,27z M60,49c0,0.551-0.449,1-1,1h-6c-0.379,0-0.725,0.214-0.895,0.553 c-0.108,0.217-0.913,2.038,0.345,6.078c-4.647-1.465-5.43-5.604-5.464-5.795C46.906,50.354,46.489,50,46,50H33 c-0.551,0-1-0.449-1-1V27c0-0.551,0.449-1,1-1h26c0.551,0,1,0.449,1,1V49z"/><path fill="#8d6c9f" d="M36 44c-.552 0-1 .448-1 1v2c0 .552.448 1 1 1s1-.448 1-1v-2C37 44.448 36.552 44 36 44zM41 44c-.552 0-1 .448-1 1v2c0 .552.448 1 1 1s1-.448 1-1v-2C42 44.448 41.552 44 41 44zM46 44c-.552 0-1 .448-1 1v2c0 .552.448 1 1 1s1-.448 1-1v-2C47 44.448 46.552 44 46 44zM51 44c-.552 0-1 .448-1 1v2c0 .552.448 1 1 1s1-.448 1-1v-2C52 44.448 51.552 44 51 44zM56 44c-.552 0-1 .448-1 1v2c0 .552.448 1 1 1s1-.448 1-1v-2C57 44.448 56.552 44 56 44zM25 32A2 2 0 1 0 25 36 2 2 0 1 0 25 32zM27 12h-3c-2.757 0-5 2.243-5 5 0 .552.448 1 1 1s1-.448 1-1c0-1.654 1.346-3 3-3h3c1.654 0 3 1.346 3 3v.838c0 1.46-.931 2.751-2.316 3.213C25.48 21.786 24 23.84 24 26.162V29c0 .552.448 1 1 1s1-.448 1-1v-2.838c0-1.46.931-2.751 2.316-3.213C30.52 22.214 32 20.16 32 17.838V17C32 14.243 29.757 12 27 12z"/><path fill="#f9efde" d="M45,34h-3.829l2.536-2.536c0.391-0.391,0.391-1.023,0-1.414s-1.023-0.391-1.414,0l-4.243,4.243 c-0.391,0.391-0.391,1.023,0,1.414l4.243,4.243c0.195,0.195,0.451,0.293,0.707,0.293s0.512-0.098,0.707-0.293 c0.391-0.391,0.391-1.023,0-1.414L41.171,36H45c2.757,0,5,2.243,5,5c0,0.552,0.448,1,1,1s1-0.448,1-1C52,37.14,48.86,34,45,34z"/></svg>