<?xml version="1.0" encoding="UTF-8"?>
<svg xmlns="http://www.w3.org/2000/svg" xmlns:xlink="http://www.w3.org/1999/xlink" width="100pt" height="100pt" viewBox="0 0 100 100" version="1.1">
<g id="surface4825173">
<path style=" stroke:none;fill-rule:nonzero;fill:rgb(40%,40%,40%);fill-opacity:1;" d="M 50 4 C 24.617188 4 4 24.617188 4 50 C 4 75.382812 24.617188 96 50 96 C 75.382812 96 96 75.382812 96 50 C 96 24.617188 75.382812 4 50 4 Z M 50 8 C 73.21875 8 92 26.78125 92 50 C 92 73.21875 73.21875 92 50 92 C 26.78125 92 8 73.21875 8 50 C 8 26.78125 26.78125 8 50 8 Z M 47.777344 32 L 34.507812 68 L 39.222656 68 L 42.839844 57.695312 L 57.160156 57.695312 L 60.773438 68 L 65.488281 68 L 52.21875 32 Z M 49.800781 37.8125 L 50.199219 37.8125 L 55.839844 53.878906 L 44.160156 53.878906 Z M 49.800781 37.8125 "/>
</g>
</svg>
