<?xml version="1.0" encoding="UTF-8" standalone="no"?><!-- Generator: Gravit.io --><svg xmlns="http://www.w3.org/2000/svg" xmlns:xlink="http://www.w3.org/1999/xlink" style="isolation:isolate" viewBox="72 88 216 169.16" width="216pt" height="169.16pt"><clipPath id="_clipPath_RyVBhVGFliYAjgyHCKzdCGLjyncr61r4"><path d=" M 72 88 L 72 257.16 L 288 257.16 L 288 88 L 72 88 Z " fill="rgb(255,255,255)"/></clipPath><g clip-path="url(#_clipPath_RyVBhVGFliYAjgyHCKzdCGLjyncr61r4)"><path d=" M 189.117 90.92 C 188.283 87.742 183.832 87.669 180.615 88.338 C 165.597 91.457 148.807 96.895 134.186 101.531 C 125.515 104.391 117.081 107.97 108.999 112.218 C 106.562 113.5 103.756 116.079 105.124 118.469 C 106.111 120.194 108.545 120.233 110.522 120.025 C 131.284 117.853 151.74 112.785 171.115 105.015 C 176.574 102.826 182.042 100.364 186.456 96.477 C 188.082 95.046 189.666 93.016 189.117 90.92 Z " fill="rgb(227,236,247)"/><path d=" M 267.12 207.632 C 267.362 212.02 266.799 216.68 264.651 220.949 C 264.61 221.03 264.567 221.112 264.523 221.194 C 264.502 221.24 264.477 221.283 264.453 221.33 C 264.317 221.591 264.173 221.852 264.02 222.107 C 263.273 223.391 262.37 224.63 261.291 225.808 C 259.953 227.268 258.295 228.583 256.402 229.769 C 256.163 229.921 255.921 230.068 255.674 230.212 C 255.13 230.536 254.567 230.848 253.988 231.15 C 242.466 237.18 224.655 239.377 214.685 240.166 C 212.213 240.209 209.745 240.35 207.287 240.584 L 207.276 240.584 C 207.273 240.584 207.273 240.584 207.273 240.584 C 202.986 240.989 198.725 241.675 194.53 242.64 C 180.118 245.948 166.581 252.471 152.122 255.579 C 139.186 258.36 124.575 257.906 113.76 250.701 C 111.487 249.187 109.671 247.074 108.445 244.633 C 107.05 241.854 105.881 239.38 104.676 237.042 C 104.489 236.677 104.301 236.318 104.111 235.96 C 104.081 235.905 104.054 235.851 104.024 235.796 C 102.534 233.01 100.919 230.372 98.706 227.58 C 98.374 227.162 98.029 226.737 97.667 226.311 L 97.665 226.308 C 97.485 226.093 97.3 225.876 97.107 225.655 C 97.05 225.587 96.99 225.519 96.93 225.451 C 96.376 224.821 95.789 224.179 95.163 223.524 C 92.999 221.259 90.666 219.16 88.423 216.971 C 88.225 216.778 88.026 216.583 87.828 216.387 C 87.67 216.232 87.515 216.074 87.358 215.917 C 86.751 215.307 86.156 214.688 85.574 214.054 C 74.854 202.344 69.979 185.526 72.777 169.895 C 75.574 154.267 85.979 140.184 100.098 132.919 C 102.692 131.584 105.372 130.481 108.116 129.543 C 108.477 129.418 108.839 129.298 109.203 129.178 C 118.289 126.231 128.009 125.01 137.465 123.276 C 156.665 119.76 175.439 113.923 193.247 105.932 C 196.211 104.603 199.158 103.211 202.113 101.824 C 202.475 101.653 202.839 101.484 203.201 101.316 C 212.697 96.873 222.27 92.597 232.553 90.84 C 236.974 90.087 241.544 89.818 245.913 90.821 C 257.536 93.497 265.72 105.468 265.723 117.395 C 265.728 131.022 256.808 143.517 257.069 157.141 C 257.161 161.986 258.414 166.654 260.304 171.124 C 262.079 175.33 264.417 179.359 266.881 183.196 C 267.038 183.44 267.196 183.682 267.356 183.927 C 269.023 186.501 270.758 189.049 272.438 191.621 L 266.794 204.329 C 266.949 205.406 267.06 206.509 267.12 207.632 Z " fill="rgb(227,236,247)"/><path d=" M 264.651 220.949 C 264.61 221.03 264.567 221.112 264.523 221.194 L 139.858 233.934 L 139.76 233.945 L 97.107 225.655 C 97.05 225.587 96.99 225.519 96.93 225.451 C 96.376 224.821 95.789 224.179 95.163 223.524 C 92.999 221.259 90.666 219.16 88.423 216.971 C 88.225 216.778 88.026 216.583 87.828 216.387 L 200.096 211.009 L 252.226 208.513 L 265.276 207.741 L 267.12 207.632 C 267.362 212.02 266.799 216.68 264.651 220.949 Z " fill="rgb(162,151,200)"/><path d=" M 203.201 101.316 L 203.201 175.817 C 203.201 176.116 202.956 176.361 202.657 176.361 C 202.355 176.361 202.113 176.116 202.113 175.817 L 202.113 101.824 C 202.475 101.653 202.839 101.484 203.201 101.316 Z " fill="rgb(210,194,223)"/><path d=" M 264.453 221.33 C 264.317 221.591 264.173 221.852 264.02 222.107 C 263.273 223.391 262.37 224.63 261.291 225.808 C 259.953 227.268 258.295 228.583 256.402 229.769 C 256.163 229.921 255.921 230.068 255.674 230.212 L 156.891 241.563 L 141.35 243.349 L 141.081 238.409 L 140.88 234.736 L 140.904 234.733 L 149.08 233.847 L 264.453 221.33 Z " fill="rgb(254,254,254)"/><path d=" M 109.203 129.178 L 109.203 207.969 C 109.203 208.271 108.961 208.513 108.659 208.513 C 108.36 208.513 108.116 208.271 108.116 207.969 L 108.116 129.543 C 108.477 129.418 108.839 129.298 109.203 129.178 Z " fill="rgb(210,194,223)"/><path d=" M 130.268 213.799 L 110.791 215.172 L 101.841 215.8 L 101.838 215.8 L 100.506 215.895 L 100.372 215.501 L 90.87 187.554 C 88.886 181.717 91.003 175.197 96.02 171.703 C 101.656 167.775 109.975 164.939 120.834 163.234 C 120.853 163.231 120.875 163.229 120.899 163.223 C 124.57 162.65 128.534 162.206 132.781 161.888 C 134.029 161.796 135.217 161.75 136.345 161.75 C 143.724 161.75 148.474 163.734 150.491 167.671 C 157.236 180.838 131.837 211.904 130.268 213.799 Z  M 150.975 167.421 C 149.466 164.477 146.535 162.573 142.226 161.725 C 142.223 161.722 142.22 161.722 142.215 161.722 C 139.572 161.2 136.413 161.073 132.74 161.345 C 115.802 162.603 103.341 165.939 95.707 171.257 C 90.495 174.889 88.293 181.662 90.356 187.731 L 99.804 215.52 L 100.125 216.466 L 124.7 214.737 L 130.421 214.334 L 130.538 214.326 L 130.611 214.236 C 130.614 214.231 130.636 214.206 130.674 214.16 C 131.383 213.306 137.851 205.433 143.457 196.132 C 151.432 182.907 153.96 173.247 150.975 167.421 Z " fill="rgb(90,67,151)"/><path d=" M 101.968 216.18 L 92.266 187.642 C 90.241 181.686 92.355 175.076 97.516 171.48 C 103.514 167.301 114.455 163.099 134.412 161.617 C 178.819 158.319 132.056 214.062 132.056 214.062 L 101.968 216.18 Z " fill="rgb(90,67,151)"/><path d=" M 183.165 114.941 C 183.378 114.105 183.426 113.342 183.409 112.596 C 183.39 111.851 183.295 111.105 183.239 110.294 C 183.165 109.786 183.05 109.281 182.898 108.784 C 182.286 106.798 181.068 104.95 179.483 103.603 C 176.313 100.908 172.008 99.917 167.849 99.779 C 161.618 99.573 154.865 101.425 151.146 106.429 C 147.975 110.698 147.592 116.338 146.156 121.458 C 143.793 129.879 138.408 137.166 132.229 143.356 C 128.609 146.982 124.468 150.678 123.518 155.713 C 122.586 160.654 125.173 165.819 129.152 168.892 C 130.602 170.012 132.247 170.909 134.025 171.349 C 135.833 171.797 137.735 171.763 139.571 171.45 C 145.203 170.49 150.04 167.046 154.803 163.892 C 155.279 163.576 155.76 163.262 156.238 162.913 C 159.697 160.311 159.969 155.689 162.688 152.427 C 163.163 151.781 163.652 151.322 164.149 151.019 C 170.572 150.796 181.175 147.261 182.836 156.321 C 183.009 156.822 183.185 157.318 183.378 157.794 C 184.154 159.694 185.229 161.251 187.651 161.375 C 188.069 161.407 188.495 161.422 188.92 161.416 C 191.05 161.386 193.204 160.84 194.681 159.35 C 196.249 157.767 196.763 155.41 196.78 153.183 C 196.804 150.081 195.989 146.976 194.444 144.286 C 193.848 143.248 193.154 142.282 192.399 141.36 C 192.022 140.9 191.629 140.45 191.225 140.018 C 185.526 136.114 181.719 129.589 182.487 122.561 C 182.495 121.883 182.525 121.204 182.572 120.523 C 182.714 118.483 183.013 116.427 183.334 114.398 L 183.165 114.941 Z " fill="rgb(72,54,99)"/><path d=" M 180.56 116.056 C 179.277 119.871 180.946 123.806 183.382 126.77 C 186.417 130.461 190.338 133.188 192.941 137.267 C 195.547 141.347 197.644 146.525 196.585 151.442 C 196.15 153.465 195.037 154.289 193.119 154.81 C 191.508 155.249 190.005 155.717 188.616 156.68 C 188.295 156.903 188.601 157.434 188.925 157.209 C 190.538 156.09 192.279 155.771 194.094 155.165 C 195.231 154.785 196.163 154.163 196.703 153.062 C 198.535 149.327 197.097 144.194 195.491 140.663 C 193.471 136.22 190.386 132.886 186.899 129.559 C 183.334 126.158 179.368 121.517 181.15 116.218 C 181.276 115.844 180.685 115.684 180.56 116.056 L 180.56 116.056 Z " fill="rgb(72,54,99)"/><path d=" M 160.054 147.598 L 163.209 145.29 L 167.242 143.387 L 179.638 147.598 L 184.932 203.635 L 171.251 207.075 L 161.819 178.663 L 160.054 147.598 Z " fill="rgb(254,254,254)"/><path d=" M 185.241 139.607 C 190.385 140.636 195.236 143.543 197.957 148.121 C 200.789 152.882 200.836 159.108 197.703 163.729 C 197.481 164.055 198.011 164.362 198.231 164.038 C 201.405 159.357 201.423 153.064 198.691 148.167 C 195.955 143.263 190.822 140.101 185.404 139.017 C 185.019 138.94 184.855 139.53 185.241 139.607 L 185.241 139.607 Z " fill="rgb(72,54,99)"/><path d=" M 143.575 132.363 C 139.553 135.531 135.706 138.911 131.689 142.085 C 128.521 144.589 124.972 146.817 122.747 150.283 C 118.349 157.133 121.543 165.589 127.601 170.201 C 131.003 172.79 135.615 174.85 139.919 173.53 C 140.294 173.415 140.134 172.824 139.756 172.94 C 135.809 174.151 131.59 172.344 128.403 170.037 C 125.231 167.741 122.66 164.484 121.685 160.645 C 120.736 156.91 121.51 152.939 123.791 149.84 C 126.005 146.833 129.231 144.802 132.122 142.518 C 136.138 139.344 139.986 135.963 144.008 132.796 C 144.317 132.552 143.882 132.122 143.575 132.363 L 143.575 132.363 Z " fill="rgb(72,54,99)"/><path d=" M 196.656 219.111 L 155.531 218.123 L 155.531 218.123 C 155.531 217.018 156.364 216.09 157.463 215.971 L 199.936 211.385 L 196.656 219.111 Z " fill="rgb(72,54,99)"/><path d=" M 149.727 117.37 C 149.244 122.098 148.256 126.834 146.218 131.155 C 144.195 135.443 141.014 138.787 137.764 142.164 C 134.86 145.183 131.939 148.37 130.518 152.39 C 129.333 155.739 129.582 159.372 131.168 162.546 C 132.752 165.718 135.655 168.037 139.304 167.963 C 139.698 167.955 139.699 167.343 139.304 167.351 C 135.605 167.427 132.826 164.884 131.417 161.629 C 129.73 157.733 130.265 153.594 132.306 149.936 C 134.384 146.214 137.581 143.298 140.474 140.226 C 143.245 137.283 145.621 134.138 147.222 130.402 C 148.995 126.266 149.883 121.83 150.338 117.37 C 150.378 116.979 149.766 116.982 149.727 117.37 L 149.727 117.37 Z " fill="rgb(254,254,254)"/><path d=" M 180.201 128.689 C 180.175 133.978 184.543 137.456 187.789 141.04 C 189.71 143.161 191.423 145.622 191.609 148.568 C 191.792 151.472 190.584 154.295 188.444 156.238 C 188.151 156.503 188.585 156.935 188.876 156.671 C 192.708 153.192 193.17 147.641 190.402 143.373 C 187.272 138.544 180.782 135.09 180.813 128.689 C 180.814 128.295 180.203 128.295 180.201 128.689 L 180.201 128.689 Z " fill="rgb(254,254,254)"/><path d=" M 177.879 147.057 C 179.062 149.579 178.019 152.537 178.418 155.294 C 180.746 171.369 180.167 187.83 180.415 204.033 C 180.453 206.494 180.56 209.157 182.105 211.073 C 182.4 211.439 182.758 211.778 183.206 211.919 C 183.56 212.03 183.941 212.008 184.312 211.986 C 189.567 211.668 194.823 211.35 200.079 211.032 C 198.372 200.939 196.665 190.845 194.957 180.752 C 199.056 185.838 203.156 190.925 207.255 196.011 C 208.989 191.47 210.722 186.929 212.456 182.388 C 212.663 181.844 212.875 181.272 212.794 180.696 C 212.723 180.185 212.432 179.736 212.146 179.306 C 208.143 173.279 203.935 167.387 199.513 161.659 C 196.83 158.183 194.02 154.722 190.453 152.161 C 186.762 149.511 182.219 148.103 177.879 147.057 L 177.879 147.057 Z " fill="rgb(252,201,69)"/><path d=" M 197.975 208.916 C 197.983 209.266 197.714 209.563 197.423 209.756 C 196.887 210.106 196.243 210.24 195.61 210.327 C 192.741 210.715 189.764 210.259 187.143 209.032 C 188.209 210.468 189.272 211.901 190.338 213.336 C 190.48 213.527 190.629 213.755 190.566 213.983 C 190.517 214.168 190.346 214.288 190.186 214.389 C 189.968 214.522 189.74 214.641 189.509 214.747 C 188.28 215.318 186.888 215.536 185.545 215.356 C 182.679 214.973 180.257 212.885 177.388 212.504 C 175.939 212.309 174.471 212.567 173.008 212.651 C 171.545 212.733 169.988 212.613 168.791 211.77 C 168.503 211.569 168.234 211.319 168.103 210.992 C 167.769 210.172 168.403 209.307 168.916 208.584 C 169.077 208.358 169.226 208.127 169.368 207.891 C 170.11 206.667 170.616 205.305 170.852 203.894 C 172.432 203.799 174.436 203.266 175.961 202.855 C 178.182 202.26 180.572 201.344 182.684 202.249 C 183.177 202.461 183.625 202.763 184.071 203.062 C 187.763 205.544 191.792 208.029 196.243 208.027 C 196.969 208.027 197.961 208.19 197.975 208.916 Z " fill="rgb(248,179,159)"/><path d=" M 189.509 214.747 C 188.28 215.318 186.888 215.536 185.545 215.356 C 182.679 214.973 180.257 212.885 177.388 212.504 C 175.939 212.309 174.471 212.567 173.008 212.651 C 171.545 212.733 169.988 212.613 168.791 211.77 C 168.503 211.569 168.234 211.319 168.103 210.992 C 167.769 210.172 168.403 209.307 168.916 208.584 C 169.077 208.358 169.226 208.127 169.368 207.891 C 170.412 208.641 172.595 209.56 176.757 209.046 C 183.351 208.23 181.991 212.037 186.681 213.396 C 188.19 213.834 189.044 214.307 189.509 214.747 Z " fill="rgb(245,153,142)"/><path d=" M 181.977 107.556 C 179.178 98.505 168.631 96.447 160.418 98.54 C 156.449 99.551 152.707 101.658 150.095 104.854 C 147.009 108.632 145.786 113.496 145.074 118.224 C 144.61 121.304 144.366 124.425 143.65 127.462 C 143.231 129.236 142.296 130.797 141.662 132.498 C 141.524 132.867 142.115 133.027 142.252 132.661 C 142.728 131.383 143.428 130.198 143.881 128.918 C 144.563 126.986 144.799 124.852 145.071 122.834 C 145.716 118.043 146.207 113.113 148.366 108.711 C 152.169 100.958 160.99 97.584 169.263 98.586 C 174.818 99.258 179.669 102.163 181.387 107.719 C 181.503 108.094 182.094 107.934 181.977 107.556 L 181.977 107.556 Z " fill="rgb(72,54,99)"/><path d=" M 161.874 121.662 C 159.04 120.808 157.625 121.956 157.283 123.952 C 156.942 125.949 158.754 128.021 160.778 127.948 C 160.973 130.411 161.325 132.9 162.319 135.161 C 163.312 137.424 165.018 139.459 167.301 140.402 C 169.845 141.453 172.957 140.967 175.061 139.191 C 175.904 138.479 176.58 137.593 177.219 136.693 C 179.172 133.941 180.865 130.937 181.607 127.645 C 182.348 124.353 182.056 120.731 180.268 117.869 C 180.074 117.559 179.851 117.247 179.524 117.081 C 179.06 116.845 178.502 116.958 177.998 117.09 C 172.568 118.518 167.489 121.677 161.874 121.662 L 161.874 121.662 Z " fill="rgb(248,179,159)"/><path d=" M 182.938 109.679 C 183.343 111.117 183.752 112.583 183.694 114.076 C 183.637 115.568 183.034 117.118 181.795 117.952 C 180.805 118.618 179.561 118.746 178.431 119.129 C 176.144 119.903 174.377 121.694 172.594 123.322 C 170.907 124.863 168.786 126.401 166.545 125.952 C 164.486 125.538 163.122 123.577 162.282 121.652 C 161.831 120.618 161.46 119.472 161.724 118.376 C 161.876 117.745 162.229 117.18 162.622 116.664 C 164.876 113.707 168.532 112.079 172.207 111.513 C 175.881 110.948 179.628 111.329 183.327 111.71 L 182.938 109.679 Z " fill="rgb(72,54,99)"/><path d=" M 162.334 121.764 C 163.128 126.427 168.455 128.743 172.371 125.999 C 174.231 124.697 175.431 122.715 177.055 121.164 C 178.777 119.517 181.784 118.803 182.264 116.163 C 182.334 115.778 181.745 115.613 181.674 116 C 181.245 118.358 178.497 119.038 176.9 120.471 C 175.613 121.627 174.621 123.062 173.413 124.293 C 171.799 125.938 169.715 126.977 167.365 126.465 C 164.972 125.944 163.325 123.959 162.924 121.601 C 162.857 121.214 162.268 121.378 162.334 121.764 L 162.334 121.764 Z " fill="rgb(72,54,99)"/><path d=" M 264.651 220.949 C 264.61 221.03 264.567 221.112 264.523 221.194 C 264.502 221.24 264.477 221.283 264.453 221.33 C 264.317 221.591 264.173 221.852 264.02 222.107 L 149.08 233.847 L 140.902 234.682 L 140.904 234.733 L 141.081 238.409 L 141.32 243.409 L 156.891 241.563 L 256.402 229.769 C 256.163 229.921 255.921 230.068 255.674 230.212 C 255.13 230.536 254.567 230.848 253.988 231.15 L 140.869 244.556 C 140.85 244.559 140.828 244.562 140.807 244.562 C 140.679 244.562 140.554 244.516 140.456 244.431 C 140.339 244.336 140.271 244.195 140.263 244.043 L 139.792 234.22 C 139.787 234.116 139.811 234.018 139.858 233.934 C 139.939 233.782 140.094 233.67 140.279 233.651 L 264.651 220.949 Z " fill="rgb(92,88,164)"/><path d=" M 140.869 234.298 C 140.817 234.556 140.589 234.736 140.336 234.736 C 140.301 234.736 140.266 234.733 140.23 234.728 L 139.869 234.657 L 98.189 226.414 L 98.189 226.411 L 97.667 226.311 L 97.665 226.308 C 97.428 226.025 97.183 225.74 96.93 225.451 C 97.036 225.244 97.27 225.122 97.515 225.171 L 140.44 233.659 C 140.736 233.719 140.926 234.005 140.869 234.298 Z " fill="rgb(92,88,164)"/><path d=" M 141.339 244.13 C 141.285 244.385 141.059 244.562 140.807 244.562 C 140.771 244.562 140.733 244.556 140.695 244.551 L 104.676 237.042 C 104.489 236.677 104.301 236.318 104.111 235.96 C 104.081 235.905 104.054 235.851 104.024 235.796 L 140.211 243.338 L 140.918 243.485 C 141.212 243.548 141.399 243.836 141.339 244.13 Z " fill="rgb(92,88,164)"/><path d=" M 125.168 215.259 C 125.176 215.557 124.942 215.81 124.641 215.818 L 88.423 216.971 C 88.064 216.623 87.711 216.272 87.358 215.917 L 99.804 215.52 L 100.372 215.501 L 101.724 215.46 L 110.791 215.172 L 120.861 214.851 L 124.608 214.731 C 124.641 214.731 124.67 214.731 124.7 214.737 C 124.956 214.772 125.157 214.989 125.168 215.259 Z " fill="rgb(92,88,164)"/><path d=" M 235.898 147.344 C 235.898 148.95 234.596 150.252 232.99 150.252 C 231.384 150.252 230.082 148.95 230.082 147.344 C 230.082 145.738 231.384 144.436 232.99 144.436 C 234.596 144.436 235.898 145.738 235.898 147.344 Z " fill="rgb(69,114,182)"/><path d=" M 232.99 141.391 C 229.708 141.391 227.037 144.062 227.037 147.344 C 227.037 150.626 229.708 153.297 232.99 153.297 C 236.272 153.297 238.943 150.626 238.943 147.344 C 238.943 144.062 236.272 141.391 232.99 141.391 Z  M 232.99 153.568 C 229.558 153.568 226.765 150.776 226.765 147.344 C 226.765 143.912 229.558 141.119 232.99 141.119 C 236.422 141.119 239.214 143.912 239.214 147.344 C 239.214 150.776 236.422 153.568 232.99 153.568 Z " fill="rgb(69,114,182)"/><path d=" M 195.132 114.545 C 195.132 115.145 194.645 115.632 194.045 115.632 C 193.444 115.632 192.957 115.145 192.957 114.545 C 192.957 113.944 193.444 113.457 194.045 113.457 C 194.645 113.457 195.132 113.944 195.132 114.545 Z " fill="rgb(69,114,182)"/><path d=" M 90.24 152.974 C 88.321 152.974 86.759 154.535 86.759 156.454 C 86.759 158.374 88.321 159.935 90.24 159.935 C 92.159 159.935 93.72 158.374 93.72 156.454 C 93.72 154.535 92.159 152.974 90.24 152.974 Z  M 90.24 160.479 C 88.021 160.479 86.215 158.674 86.215 156.454 C 86.215 154.235 88.021 152.43 90.24 152.43 C 92.459 152.43 94.264 154.235 94.264 156.454 C 94.264 158.674 92.459 160.479 90.24 160.479 Z " fill="rgb(69,114,182)"/><path d=" M 124.175 113.457 C 124.175 114.365 123.439 115.101 122.531 115.101 C 121.623 115.101 120.887 114.365 120.887 113.457 C 120.887 112.549 121.623 111.813 122.531 111.813 C 123.439 111.813 124.175 112.549 124.175 113.457 Z " fill="rgb(69,114,182)"/><path d=" M 277.753 179.661 L 272.438 191.621 L 266.794 204.329 L 265.276 207.741 L 260.989 217.39 L 196.656 219.111 L 200.096 211.009 L 215.03 175.833 C 215.843 173.922 217.659 172.628 219.731 172.481 C 227.162 171.964 245.424 170.839 260.304 171.124 C 265.225 171.217 269.779 171.467 273.444 171.942 C 274.738 172.111 275.844 172.706 276.666 173.557 C 278.166 175.102 278.721 177.486 277.753 179.661 Z " fill="rgb(90,67,151)"/><path d=" M 194.652 219.211 L 194.146 219.012 L 197.585 210.281 L 212.523 174.752 C 213.379 172.718 215.269 171.358 217.454 171.201 C 224.695 170.693 243.145 169.541 258.052 169.83 C 263.366 169.931 267.797 170.21 271.222 170.659 C 272.529 170.831 273.699 171.423 274.605 172.372 C 276.266 174.098 276.714 176.634 275.745 178.833 L 263.268 207.19 L 262.771 206.97 L 275.247 178.614 C 276.127 176.618 275.721 174.315 274.212 172.748 C 273.392 171.889 272.334 171.354 271.151 171.198 C 267.746 170.752 263.335 170.475 258.042 170.374 C 243.157 170.086 224.726 171.236 217.493 171.743 C 215.513 171.885 213.8 173.119 213.024 174.963 L 198.089 210.486 L 194.652 219.211 Z " fill="rgb(90,67,151)"/><path d=" M 246.467 193.414 C 245.624 196.438 242.485 199.185 239.456 199.548 C 236.428 199.912 234.657 197.755 235.5 194.731 C 236.343 191.707 239.482 188.96 242.51 188.597 C 245.539 188.233 247.31 190.39 246.467 193.414 Z " fill="rgb(162,151,200)"/><path d=" M 195.763 181.694 C 194.485 179.164 192.792 176.853 191.776 174.193 C 191.591 173.708 190.802 173.918 190.99 174.41 C 192.033 177.139 193.747 179.51 195.059 182.106 C 195.296 182.574 196 182.162 195.763 181.694 L 195.763 181.694 Z " fill="rgb(254,254,254)"/><path d=" M 184.58 206.702 C 186.287 210.5 192.067 211.144 195.608 210.734 C 196.123 210.675 196.13 209.858 195.608 209.918 C 192.347 210.296 186.873 209.825 185.284 206.29 C 185.069 205.812 184.366 206.226 184.58 206.702 L 184.58 206.702 Z " fill="rgb(254,254,254)"/><path d=" M 171.251 203.48 C 170.809 196.061 170.109 188.657 169.156 181.286 C 168.383 175.316 167.655 169.318 166.2 163.466 C 165.474 160.545 164.566 157.668 163.409 154.889 C 162.312 152.255 160.524 149.381 161.636 146.443 C 158.722 148.536 156.803 149.393 153.461 150.698 C 150.769 151.75 147.974 152.529 145.308 153.643 C 143.759 154.29 142.239 155.06 140.974 156.163 C 139.543 157.41 138.495 159.03 137.513 160.655 C 136.403 162.491 135.35 164.364 134.447 166.31 C 132.998 169.433 131.943 172.72 130.737 175.945 C 128.584 181.704 125.944 187.273 123.057 192.702 C 121.235 196.128 119.277 199.606 118.766 203.452 C 118.254 207.299 119.561 211.678 122.935 213.596 C 124.475 214.471 126.277 214.754 128.044 214.887 C 140.95 215.852 153.185 214.079 167.77 212.185 C 168.17 212.133 167.396 212.336 167.77 212.185 C 168.198 212.011 168.448 211.572 168.651 211.157 C 169.829 208.751 171.079 206.154 171.251 203.48 L 171.251 203.48 Z " fill="rgb(252,201,69)"/><path d=" M 150.186 181.596 C 148.192 186.592 146.545 191.709 145.252 196.931 C 145.198 197.15 145.322 197.365 145.537 197.432 C 152.404 199.584 159.627 199.888 166.646 201.31 C 167.599 201.503 170.564 201.761 170.778 202.824 C 170.928 203.567 170.604 204.597 170.452 205.319 C 169.921 207.861 169.006 210.503 167.225 212.447 C 166.871 212.834 167.446 213.412 167.802 213.024 C 169.646 211.011 170.638 208.316 171.207 205.683 C 171.514 204.265 172.237 202.208 170.576 201.455 C 168.807 200.654 166.553 200.439 164.652 200.112 C 162.597 199.758 160.53 199.476 158.465 199.188 C 154.178 198.588 149.895 197.944 145.754 196.646 C 145.849 196.813 145.944 196.98 146.039 197.147 C 147.331 191.926 148.978 186.809 150.973 181.813 C 151.168 181.326 150.379 181.114 150.186 181.596 L 150.186 181.596 Z " fill="rgb(254,254,254)"/><path d=" M 145.59 196.643 C 143.333 196.983 141.178 197.627 139.096 198.557 C 138.618 198.771 139.032 199.474 139.508 199.262 C 141.525 198.36 143.622 197.759 145.806 197.43 C 146.324 197.352 146.104 196.566 145.59 196.643 L 145.59 196.643 Z " fill="rgb(254,254,254)"/><path d=" M 173.767 154.727 C 171.853 155.42 169.732 155.208 167.734 154.809 C 165.752 154.412 163.609 153.699 162.592 151.951 C 161.309 149.752 162.345 147.006 162.957 144.534 C 163.742 141.378 163.772 138.036 163.049 134.866 L 170.564 136.315 L 173.114 136.807 C 173.046 140.083 173.884 143.373 175.512 146.217 C 175.667 146.486 175.828 146.753 175.985 147.022 C 176.578 148.02 177.149 149.039 177.209 150.181 C 177.317 152.215 175.683 154.034 173.767 154.727 Z " fill="rgb(248,179,159)"/><path d=" M 175.985 147.022 C 168.952 146.505 166.271 141.614 165.385 139.265 C 165.966 139.73 166.608 140.116 167.301 140.402 C 169.232 141.198 171.486 141.111 173.378 140.252 C 173.734 142.345 174.457 144.374 175.512 146.217 C 175.667 146.486 175.828 146.753 175.985 147.022 Z " fill="rgb(245,153,142)"/><path d=" M 232.99 96.645 C 224.531 96.645 217.65 103.527 217.65 111.986 C 217.65 120.444 224.531 127.326 232.99 127.326 C 241.448 127.326 248.33 120.444 248.33 111.986 C 248.33 103.527 241.448 96.645 232.99 96.645 Z  M 232.99 127.598 C 224.381 127.598 217.378 120.594 217.378 111.986 C 217.378 103.377 224.381 96.373 232.99 96.373 C 241.598 96.373 248.602 103.377 248.602 111.986 C 248.602 120.594 241.598 127.598 232.99 127.598 Z " fill="rgb(90,67,151)"/><path d=" M 232.825 112.143 L 234.874 100.1 L 235.142 100.145 L 233.155 111.828 C 235.76 111.499 239.562 110.987 239.827 110.861 L 239.877 110.965 L 239.898 110.969 L 239.998 110.869 L 240.032 111.015 C 239.998 111.113 239.952 111.249 233.007 112.121 L 232.825 112.143 Z " fill="rgb(90,67,151)"/><path d=" M 285.799 133.498 C 285.172 131.634 284.386 129.741 282.938 128.41 C 280.186 125.879 275.622 126.16 272.564 128.312 C 269.507 130.465 267.759 134.059 266.843 137.685 C 266.006 143.456 266.217 147.547 267.957 153.62 C 268.805 156.579 270.111 159.515 272.389 161.585 C 274.666 163.656 278.079 164.687 280.923 163.51 C 283.637 162.386 285.267 159.59 286.259 156.825 C 288.935 149.366 288.324 141.01 285.799 133.498 Z " fill="rgb(227,236,247)"/><path d=" M 147.628 179.765 C 148.1 180.14 148.442 180.637 148.89 181.036 C 149.317 181.414 149.811 181.7 150.306 181.978 C 150.764 182.235 151.176 181.531 150.718 181.274 C 150.234 181.002 149.744 180.731 149.343 180.344 C 148.951 179.966 148.633 179.528 148.205 179.188 C 147.799 178.865 147.218 179.439 147.628 179.765 L 147.628 179.765 Z " fill="rgb(254,254,254)"/><path d=" M 191.75 174.572 C 192.313 173.772 192.857 172.961 193.382 172.136 C 193.665 171.692 192.96 171.283 192.678 171.724 C 192.152 172.549 191.608 173.361 191.046 174.16 C 190.743 174.591 191.45 174.998 191.75 174.572 L 191.75 174.572 Z " fill="rgb(254,254,254)"/><path d=" M 160.72 128.223 C 161.047 132.216 162.011 137.832 165.77 140.07 C 167.482 141.088 169.778 141.817 171.778 141.486 C 173.808 141.149 175.287 139.645 176.523 138.11 C 176.767 137.806 176.337 137.371 176.09 137.678 C 174.926 139.124 173.57 140.559 171.653 140.869 C 169.688 141.187 167.32 140.404 165.696 139.3 C 162.481 137.116 161.625 131.806 161.331 128.223 C 161.299 127.834 160.687 127.83 160.72 128.223 L 160.72 128.223 Z " fill="rgb(254,254,254)"/><path d=" M 146.647 224.284 L 134.684 224.284 L 132.189 208.075 L 149.409 208.075 L 146.647 224.284 Z " fill="rgb(254,254,254)"/><path d=" M 146.646 224.284 C 146.646 225.393 143.961 226.293 140.649 226.293 C 137.337 226.293 134.652 225.393 134.652 224.284 C 134.652 223.175 137.337 222.275 140.649 222.275 C 143.961 222.275 146.646 223.175 146.646 224.284 Z " fill="rgb(254,254,254)"/><path d=" M 149.409 208.075 C 149.409 209.185 145.554 210.085 140.799 210.085 C 136.044 210.085 132.189 209.185 132.189 208.075 C 132.189 206.966 136.044 206.067 140.799 206.067 C 145.554 206.067 149.409 206.966 149.409 208.075 Z " fill="rgb(254,254,254)"/><path d=" M 147.961 208.075 C 147.961 208.998 144.754 209.746 140.799 209.746 C 136.844 209.746 133.637 208.998 133.637 208.075 C 133.637 207.152 136.844 206.404 140.799 206.404 C 144.754 206.404 147.961 207.152 147.961 208.075 Z " fill="rgb(72,54,99)"/><path d=" M 133.318 209.795 C 130.489 210.193 127.66 210.59 124.832 210.988 C 124.191 211.078 124.094 211.955 124.472 212.351 C 126.413 214.387 128.349 216.428 130.297 218.458 C 131.976 220.208 133.707 221.888 135.819 223.111 C 136.729 223.638 137.552 222.229 136.642 221.702 C 134.51 220.468 132.814 218.731 131.126 216.964 C 129.291 215.044 127.459 213.12 125.625 211.198 C 125.505 211.652 125.385 212.107 125.265 212.561 C 128.094 212.163 130.923 211.766 133.752 211.368 C 134.787 211.223 134.346 209.651 133.318 209.795 L 133.318 209.795 Z " fill="rgb(254,254,254)"/><path d=" M 138.586 208.037 C 138.33 207.72 138.091 207.384 137.886 207.032 C 137.577 206.503 137.512 206.424 137.717 205.823 C 137.923 205.219 138.405 205.028 138.751 204.534 C 139.122 204.004 139.255 203.366 138.847 202.817 C 138.377 202.186 137.415 202.025 136.689 202.118 C 136.516 202.141 136.35 202.194 136.183 202.24 C 135.652 202.384 134.685 202.278 134.322 201.757 C 133.781 200.977 135.156 199.826 135.675 199.361 C 135.969 199.097 135.535 198.666 135.243 198.928 C 134.432 199.655 133.5 200.404 133.668 201.606 C 133.804 202.577 134.436 203.203 135.421 203.088 C 136.158 203.002 139.295 202.049 138.266 204.082 C 137.948 204.71 137.18 204.934 136.937 205.612 C 136.579 206.611 137.58 207.761 138.153 208.469 C 138.401 208.776 138.831 208.341 138.586 208.037 L 138.586 208.037 Z " fill="rgb(254,254,254)"/><path d=" M 141.293 206.972 C 140.963 206.599 140.443 206.086 140.375 205.556 C 140.235 204.467 140.992 204.44 141.49 203.971 C 141.746 203.73 141.926 203.504 141.96 203.15 C 142.07 201.983 140.735 201.865 139.992 201.442 C 137.794 200.192 138.883 197.846 139.917 196.274 C 140.631 195.189 141.261 194.142 141.178 192.8 C 141.153 192.409 140.541 192.406 140.566 192.8 C 140.751 195.772 136.427 198.064 138.73 201.131 C 139.117 201.646 139.571 201.915 140.146 202.166 C 140.918 202.502 141.346 203.012 140.665 203.804 C 140.515 203.98 140.256 204.056 140.098 204.244 C 139.201 205.312 140.116 206.565 140.86 207.404 C 141.122 207.7 141.553 207.266 141.293 206.972 L 141.293 206.972 Z " fill="rgb(254,254,254)"/><path d=" M 143.808 207.445 C 143.579 206.955 143.261 206.403 143.774 205.943 C 143.911 205.819 144.118 205.783 144.279 205.7 C 144.601 205.535 144.841 205.336 144.956 204.982 C 145.19 204.259 144.715 203.601 144.033 203.399 C 143.655 203.287 143.493 203.877 143.87 203.989 C 144.349 204.13 144.612 204.722 144.135 205.092 C 144.023 205.18 143.757 205.248 143.621 205.325 C 143.394 205.453 143.192 205.598 143.054 205.825 C 142.674 206.45 143.003 207.16 143.28 207.754 C 143.447 208.11 143.974 207.8 143.808 207.445 L 143.808 207.445 Z " fill="rgb(254,254,254)"/></g></svg>