<?xml version="1.0" encoding="UTF-8"?>
<svg xmlns="http://www.w3.org/2000/svg" xmlns:xlink="http://www.w3.org/1999/xlink" width="52pt" height="52pt" viewBox="0 0 52 52" version="1.1">
<g id="surface6878747">
<path style=" stroke:none;fill-rule:nonzero;fill:rgb(45.882353%,45.882353%,45.882353%);fill-opacity:1;" d="M 8 0 C 3.601562 0 0 3.601562 0 8 L 0 42 C 0 46.398438 3.601562 50 8 50 L 27.8125 50 C 27.8125 49.601562 27.796875 48.976562 28 48.375 L 28.375 46 L 8 46 C 5.796875 46 4 44.203125 4 42 L 4 8 C 4 5.796875 5.796875 4 8 4 L 20.625 4 C 22.023438 4.398438 22 6.203125 22 8 L 22 14 C 22 15.203125 22.796875 16 24 16 L 30 16 C 32 16 34 16 34 18 L 34 29 L 34.625 27.8125 C 35.226562 26.414062 36.601562 25.414062 38 24.8125 L 38 16 C 38 13.796875 36.023438 11.773438 32.625 8.375 C 32.023438 7.976562 31.601562 7.398438 31 7 C 30.601562 6.398438 30.023438 5.976562 29.625 5.375 C 26.226562 1.976562 24.203125 0 22 0 Z M 40.1875 28.5625 C 39.4375 28.5625 38.671875 28.921875 38.375 29.625 L 35.8125 35 L 30 35.8125 C 29.203125 36.015625 28.578125 36.390625 28.375 37.1875 C 28.171875 37.984375 28.398438 38.789062 29 39.1875 L 33.1875 43.375 L 32.1875 49.1875 C 31.984375 49.984375 32.398438 50.789062 33 51.1875 C 33.601562 51.585938 34.390625 51.773438 35.1875 51.375 L 40.375 48.625 L 45.625 51.375 C 45.828125 51.578125 46.226562 51.625 46.625 51.625 C 47.828125 51.625 48.625 50.828125 48.625 49.625 C 48.625 49.421875 48.578125 49.210938 48.375 48.8125 L 47.375 43.375 L 51.625 39.1875 C 52.023438 38.585938 52.203125 37.789062 52 37.1875 C 51.796875 36.390625 51.171875 36.015625 50.375 35.8125 L 44.625 35 L 42 29.625 C 41.703125 28.921875 40.9375 28.5625 40.1875 28.5625 Z M 40.1875 28.5625 "/>
</g>
</svg>
