<?xml version="1.0" encoding="UTF-8" standalone="no"?><!-- Generator: Gravit.io --><svg xmlns="http://www.w3.org/2000/svg" xmlns:xlink="http://www.w3.org/1999/xlink" style="isolation:isolate" viewBox="356.17 382.887 487.66 445.372" width="487.66pt" height="445.372pt"><g><path d=" M 600 756.628 C 548.373 756.628 506.521 772.663 506.521 792.443 C 506.521 812.224 548.373 828.259 600 828.259 C 651.627 828.259 693.479 812.224 693.479 792.443 C 693.479 772.663 651.627 756.628 600 756.628 Z " fill="rgb(232,232,232)"/><path d=" M 389.541 586.941 L 404.532 586.941 L 404.532 414.532 L 389.541 414.532 L 389.541 586.941 Z " fill="rgb(162,162,162)"/><path d=" M 795.468 586.941 L 810.46 586.941 L 810.46 414.532 L 795.468 414.532 L 795.468 586.941 Z " fill="rgb(162,162,162)"/><path d=" M 416.443 562.515 C 383.155 562.515 356.17 589.5 356.17 622.789 C 356.17 656.077 383.155 683.063 416.443 683.063 C 449.731 683.063 476.717 656.077 476.717 622.789 C 476.717 589.5 449.731 562.515 416.443 562.515 Z " fill="rgb(209,209,209)"/><path d=" M 783.557 562.515 C 750.269 562.515 723.283 589.5 723.283 622.789 C 723.283 656.077 750.269 683.063 783.557 683.063 C 816.845 683.063 843.83 656.077 843.83 622.789 C 843.83 589.5 816.845 562.515 783.557 562.515 Z " fill="rgb(209,209,209)"/><path d=" M 596.618 453.029 C 488.134 454.841 402.146 545.612 402.146 654.111 L 402.146 738.437 C 402.146 768.337 426.386 792.577 456.287 792.577 L 743.713 792.577 C 773.614 792.577 797.854 768.337 797.854 738.437 L 797.854 650.854 C 797.854 540.458 707.438 451.179 596.618 453.029 Z " fill="rgb(232,232,232)"/><path d=" M 596.618 431.805 C 488.134 433.617 402.146 524.388 402.146 632.887 L 402.146 730.839 C 402.146 753.214 420.285 771.353 442.66 771.353 L 757.34 771.353 C 779.715 771.353 797.854 753.214 797.854 730.839 L 797.854 629.631 C 797.854 519.234 707.438 429.955 596.618 431.805 Z " fill="rgb(139,139,139)"/><path d=" M 597.371 468.098 C 513.036 469.522 446.189 540.888 446.189 626.19 L 446.189 703.201 C 446.189 720.793 460.29 735.054 477.685 735.054 L 722.315 735.054 C 739.71 735.054 753.811 720.793 753.811 703.201 L 753.811 623.631 C 753.811 536.835 683.521 466.643 597.371 468.098 Z " fill="rgb(232,232,232)"/><path d=" M 532.223 574.255 C 522.049 574.255 513.803 582.502 513.803 592.676 C 513.803 602.849 522.049 611.096 532.223 611.096 C 542.396 611.096 550.643 602.849 550.643 592.676 C 550.643 582.502 542.396 574.255 532.223 574.255 Z " fill="rgb(139,139,139)"/><path d=" M 667.777 574.255 C 657.604 574.255 649.357 582.502 649.357 592.676 C 649.357 602.849 657.604 611.096 667.777 611.096 C 677.95 611.096 686.197 602.849 686.197 592.676 C 686.197 582.502 677.95 574.255 667.777 574.255 Z " fill="rgb(139,139,139)"/><path d=" M 645.022 638.836 L 554.977 638.836 C 552.025 638.836 549.739 641.425 550.06 644.359 C 552.81 669.508 574.12 689.076 600 689.076 C 625.88 689.076 647.19 669.508 649.94 644.359 C 650.261 641.425 647.975 638.836 645.022 638.836 Z " fill="rgb(139,139,139)"/><path d=" M 397.037 382.887 C 385.288 382.887 375.763 392.411 375.763 404.16 C 375.763 415.909 385.288 425.433 397.037 425.433 C 408.785 425.433 418.31 415.909 418.31 404.16 C 418.31 392.411 408.785 382.887 397.037 382.887 Z " fill="rgb(139,139,139)"/><path d=" M 802.964 382.887 C 791.215 382.887 781.69 392.411 781.69 404.16 C 781.69 415.909 791.215 425.433 802.964 425.433 C 814.713 425.433 824.237 415.909 824.237 404.16 C 824.237 392.411 814.713 382.887 802.964 382.887 Z " fill="rgb(139,139,139)"/></g></svg>