<?xml version="1.0" encoding="UTF-8" standalone="no"?><!-- Generator: Gravit.io --><svg xmlns="http://www.w3.org/2000/svg" xmlns:xlink="http://www.w3.org/1999/xlink" style="isolation:isolate" viewBox="178.288 326.288 57.423 57.423" width="57.423pt" height="57.423pt"><g><path d=" M 235.712 355 C 235.712 370.857 222.857 383.712 207 383.712 C 191.143 383.712 178.288 370.857 178.288 355 C 178.288 339.143 191.143 326.288 207 326.288 C 222.857 326.288 235.712 339.143 235.712 355 Z " fill-rule="evenodd" fill="none"/><path d=" M 207 370.133 C 200.661 370.133 195.266 374.335 193.244 380.207 C 197.329 382.441 202.016 383.712 207 383.712 C 211.984 383.712 216.671 382.441 220.756 380.207 C 218.735 374.335 213.339 370.133 207 370.133 Z " fill="rgb(255,255,255)"/><path d=" M 207 368.705 C 201.82 368.705 197.449 374.132 196.072 381.557 C 199.441 382.944 203.131 383.712 207 383.712 C 210.869 383.712 214.559 382.944 217.928 381.557 C 216.551 374.132 212.18 368.705 207 368.705 Z " fill="rgb(238,239,241)"/><path d=" M 207 367.269 C 202.956 367.269 199.677 368.525 199.677 370.075 C 199.677 371.624 202.956 372.88 207 372.88 C 211.044 372.88 214.323 371.624 214.323 370.075 C 214.323 368.525 211.044 367.269 207 367.269 Z " fill="rgb(209,211,212)"/><path d=" M 190.514 353.977 L 191.688 353.977 L 191.688 340.472 L 190.514 340.472 L 190.514 353.977 Z " fill="rgb(238,239,241)"/><path d=" M 222.312 353.977 L 223.486 353.977 L 223.486 340.472 L 222.312 340.472 L 222.312 353.977 Z " fill="rgb(238,239,241)"/><path d=" M 192.621 352.064 C 190.014 352.064 187.9 354.178 187.9 356.785 C 187.9 359.393 190.014 361.507 192.621 361.507 C 195.229 361.507 197.343 359.393 197.343 356.785 C 197.343 354.178 195.229 352.064 192.621 352.064 Z " fill="rgb(209,211,212)"/><path d=" M 221.379 352.064 C 218.771 352.064 216.657 354.178 216.657 356.785 C 216.657 359.393 218.771 361.507 221.379 361.507 C 223.986 361.507 226.1 359.393 226.1 356.785 C 226.1 354.178 223.986 352.064 221.379 352.064 Z " fill="rgb(209,211,212)"/><path d=" M 206.735 343.487 C 198.237 343.629 191.501 350.74 191.501 359.239 L 191.501 365.844 C 191.501 368.186 193.4 370.085 195.742 370.085 L 218.258 370.085 C 220.6 370.085 222.499 368.186 222.499 365.844 L 222.499 358.984 C 222.499 350.336 215.416 343.342 206.735 343.487 Z " fill="rgb(209,211,212)"/><path d=" M 206.735 341.825 C 198.237 341.967 191.501 349.077 191.501 357.576 L 191.501 365.249 C 191.501 367.002 192.922 368.423 194.675 368.423 L 219.325 368.423 C 221.078 368.423 222.499 367.002 222.499 365.249 L 222.499 357.321 C 222.499 348.673 215.416 341.68 206.735 341.825 Z " fill="rgb(238,239,241)"/><path d=" M 206.794 344.668 C 200.188 344.779 194.951 350.37 194.951 357.052 L 194.951 363.084 C 194.951 364.462 196.056 365.579 197.419 365.579 L 216.581 365.579 C 217.944 365.579 219.049 364.462 219.049 363.084 L 219.049 356.851 C 219.049 350.052 213.542 344.554 206.794 344.668 Z " fill="rgb(209,211,212)"/><path d=" M 206.794 345.672 C 200.188 345.784 194.951 351.374 194.951 358.056 L 194.951 363.084 C 194.951 364.462 196.056 365.579 197.419 365.579 L 216.581 365.579 C 217.944 365.579 219.049 364.462 219.049 363.084 L 219.049 357.856 C 219.049 351.057 213.542 345.558 206.794 345.672 Z " fill="rgb(53,56,73)"/><path d=" M 201.691 352.983 C 200.894 352.983 200.248 353.629 200.248 354.426 C 200.248 355.223 200.894 355.869 201.691 355.869 C 202.488 355.869 203.134 355.223 203.134 354.426 C 203.134 353.629 202.488 352.983 201.691 352.983 Z " fill="rgb(209,209,209)"/><path d=" M 212.309 352.983 C 211.512 352.983 210.866 353.629 210.866 354.426 C 210.866 355.223 211.512 355.869 212.309 355.869 C 213.106 355.869 213.752 355.223 213.752 354.426 C 213.752 353.629 213.106 352.983 212.309 352.983 Z " fill="rgb(209,209,209)"/><path d=" M 210.527 358.042 L 203.473 358.042 C 203.242 358.042 203.063 358.245 203.088 358.475 C 203.303 360.445 204.973 361.978 207 361.978 C 209.027 361.978 210.697 360.445 210.912 358.475 C 210.937 358.245 210.758 358.042 210.527 358.042 Z " fill="rgb(209,209,209)"/><path d=" M 191.101 337.993 C 190.181 337.993 189.435 338.739 189.435 339.659 C 189.435 340.58 190.181 341.326 191.101 341.326 C 192.021 341.326 192.768 340.58 192.768 339.659 C 192.768 338.739 192.021 337.993 191.101 337.993 Z " fill="rgb(209,211,212)"/><path d=" M 222.899 337.993 C 221.979 337.993 221.232 338.739 221.232 339.659 C 221.232 340.58 221.979 341.326 222.899 341.326 C 223.819 341.326 224.565 340.58 224.565 339.659 C 224.565 338.739 223.819 337.993 222.899 337.993 Z " fill="rgb(209,211,212)"/></g></svg>