<?xml version="1.0" encoding="UTF-8" standalone="no"?><!-- Generator: Gravit.io --><svg xmlns="http://www.w3.org/2000/svg" xmlns:xlink="http://www.w3.org/1999/xlink" style="isolation:isolate" viewBox="161.288 393.288 57.423 57.423" width="57.423pt" height="57.423pt"><g><path d=" M 218.712 422 C 218.712 437.857 205.857 450.712 190 450.712 C 174.143 450.712 161.288 437.857 161.288 422 C 161.288 406.143 174.143 393.288 190 393.288 C 205.857 393.288 218.712 406.143 218.712 422 Z " fill-rule="evenodd" fill="rgb(162,151,200)"/><path d=" M 190 437.133 C 183.661 437.133 178.266 441.335 176.244 447.207 C 180.329 449.441 185.016 450.712 190 450.712 C 194.984 450.712 199.671 449.441 203.756 447.207 C 201.735 441.335 196.339 437.133 190 437.133 Z " fill="rgb(255,255,255)"/><path d=" M 190 435.705 C 184.82 435.705 180.449 441.132 179.072 448.557 C 182.441 449.944 186.131 450.712 190 450.712 C 193.869 450.712 197.559 449.944 200.928 448.557 C 199.551 441.132 195.18 435.705 190 435.705 Z " fill="rgb(238,239,241)"/><path d=" M 190 434.269 C 185.956 434.269 182.677 435.525 182.677 437.075 C 182.677 438.624 185.956 439.88 190 439.88 C 194.044 439.88 197.323 438.624 197.323 437.075 C 197.323 435.525 194.044 434.269 190 434.269 Z " fill="rgb(209,211,212)"/><path d=" M 173.514 420.977 L 174.688 420.977 L 174.688 407.472 L 173.514 407.472 L 173.514 420.977 Z " fill="rgb(238,239,241)"/><path d=" M 205.312 420.977 L 206.486 420.977 L 206.486 407.472 L 205.312 407.472 L 205.312 420.977 Z " fill="rgb(238,239,241)"/><path d=" M 175.621 419.064 C 173.014 419.064 170.9 421.178 170.9 423.785 C 170.9 426.393 173.014 428.507 175.621 428.507 C 178.229 428.507 180.343 426.393 180.343 423.785 C 180.343 421.178 178.229 419.064 175.621 419.064 Z " fill="rgb(209,211,212)"/><path d=" M 204.379 419.064 C 201.771 419.064 199.657 421.178 199.657 423.785 C 199.657 426.393 201.771 428.507 204.379 428.507 C 206.986 428.507 209.1 426.393 209.1 423.785 C 209.1 421.178 206.986 419.064 204.379 419.064 Z " fill="rgb(209,211,212)"/><path d=" M 189.735 410.487 C 181.237 410.629 174.501 417.74 174.501 426.239 L 174.501 432.844 C 174.501 435.186 176.4 437.085 178.742 437.085 L 201.258 437.085 C 203.6 437.085 205.499 435.186 205.499 432.844 L 205.499 425.984 C 205.499 417.336 198.416 410.342 189.735 410.487 Z " fill="rgb(209,211,212)"/><path d=" M 189.735 408.825 C 181.237 408.967 174.501 416.077 174.501 424.576 L 174.501 432.249 C 174.501 434.002 175.922 435.423 177.675 435.423 L 202.325 435.423 C 204.078 435.423 205.499 434.002 205.499 432.249 L 205.499 424.321 C 205.499 415.673 198.416 408.68 189.735 408.825 Z " fill="rgb(238,239,241)"/><path d=" M 189.794 411.668 C 183.188 411.779 177.951 417.37 177.951 424.052 L 177.951 430.084 C 177.951 431.462 179.056 432.579 180.419 432.579 L 199.581 432.579 C 200.944 432.579 202.049 431.462 202.049 430.084 L 202.049 423.851 C 202.049 417.052 196.542 411.554 189.794 411.668 Z " fill="rgb(209,211,212)"/><path d=" M 189.794 412.672 C 183.188 412.784 177.951 418.374 177.951 425.056 L 177.951 430.084 C 177.951 431.462 179.056 432.579 180.419 432.579 L 199.581 432.579 C 200.944 432.579 202.049 431.462 202.049 430.084 L 202.049 424.856 C 202.049 418.057 196.542 412.558 189.794 412.672 Z " fill="rgb(53,56,73)"/><path d=" M 184.691 419.983 C 183.894 419.983 183.248 420.629 183.248 421.426 C 183.248 422.223 183.894 422.869 184.691 422.869 C 185.488 422.869 186.134 422.223 186.134 421.426 C 186.134 420.629 185.488 419.983 184.691 419.983 Z " fill="rgb(252,201,69)"/><path d=" M 195.309 419.983 C 194.512 419.983 193.866 420.629 193.866 421.426 C 193.866 422.223 194.512 422.869 195.309 422.869 C 196.106 422.869 196.752 422.223 196.752 421.426 C 196.752 420.629 196.106 419.983 195.309 419.983 Z " fill="rgb(252,201,69)"/><path d=" M 193.527 425.042 L 186.473 425.042 C 186.242 425.042 186.063 425.245 186.088 425.475 C 186.303 427.445 187.973 428.978 190 428.978 C 192.027 428.978 193.697 427.445 193.912 425.475 C 193.937 425.245 193.758 425.042 193.527 425.042 Z " fill="rgb(252,201,69)"/><path d=" M 174.101 404.993 C 173.181 404.993 172.435 405.739 172.435 406.659 C 172.435 407.58 173.181 408.326 174.101 408.326 C 175.021 408.326 175.768 407.58 175.768 406.659 C 175.768 405.739 175.021 404.993 174.101 404.993 Z " fill="rgb(209,211,212)"/><path d=" M 205.899 404.993 C 204.979 404.993 204.232 405.739 204.232 406.659 C 204.232 407.58 204.979 408.326 205.899 408.326 C 206.819 408.326 207.565 407.58 207.565 406.659 C 207.565 405.739 206.819 404.993 205.899 404.993 Z " fill="rgb(209,211,212)"/></g></svg>