<?xml version="1.0" encoding="UTF-8" standalone="no"?><!-- Generator: Gravit.io --><svg xmlns="http://www.w3.org/2000/svg" xmlns:xlink="http://www.w3.org/1999/xlink" style="isolation:isolate" viewBox="161.288 393.288 70.419 57.423" width="70.419pt" height="57.423pt"><g><path d=" M 218.712 422 C 218.712 437.857 205.857 450.712 190 450.712 C 174.143 450.712 161.288 437.857 161.288 422 C 161.288 406.143 174.143 393.288 190 393.288 C 205.857 393.288 218.712 406.143 218.712 422 Z " fill-rule="evenodd" fill="rgb(162,151,200)"/><path d=" M 190 437.133 C 183.661 437.133 178.266 441.335 176.244 447.207 C 180.329 449.441 185.016 450.712 190 450.712 C 194.984 450.712 199.671 449.441 203.756 447.207 C 201.735 441.335 196.339 437.133 190 437.133 Z " fill="rgb(255,255,255)"/><path d=" M 190 435.705 C 184.82 435.705 180.449 441.132 179.072 448.557 C 182.441 449.944 186.131 450.712 190 450.712 C 193.869 450.712 197.559 449.944 200.928 448.557 C 199.551 441.132 195.18 435.705 190 435.705 Z " fill="rgb(238,239,241)"/><path d=" M 190 434.269 C 185.956 434.269 182.677 435.525 182.677 437.075 C 182.677 438.624 185.956 439.88 190 439.88 C 194.044 439.88 197.323 438.624 197.323 437.075 C 197.323 435.525 194.044 434.269 190 434.269 Z " fill="rgb(209,211,212)"/><path d=" M 173.514 420.977 L 174.688 420.977 L 174.688 407.472 L 173.514 407.472 L 173.514 420.977 Z " fill="rgb(238,239,241)"/><path d=" M 205.312 420.977 L 206.486 420.977 L 206.486 407.472 L 205.312 407.472 L 205.312 420.977 Z " fill="rgb(238,239,241)"/><path d=" M 175.621 419.064 C 173.014 419.064 170.9 421.178 170.9 423.785 C 170.9 426.393 173.014 428.507 175.621 428.507 C 178.229 428.507 180.343 426.393 180.343 423.785 C 180.343 421.178 178.229 419.064 175.621 419.064 Z " fill="rgb(209,211,212)"/><path d=" M 204.379 419.064 C 201.771 419.064 199.657 421.178 199.657 423.785 C 199.657 426.393 201.771 428.507 204.379 428.507 C 206.986 428.507 209.1 426.393 209.1 423.785 C 209.1 421.178 206.986 419.064 204.379 419.064 Z " fill="rgb(209,211,212)"/><path d=" M 189.735 410.487 C 181.237 410.629 174.501 417.74 174.501 426.239 L 174.501 432.844 C 174.501 435.186 176.4 437.085 178.742 437.085 L 201.258 437.085 C 203.6 437.085 205.499 435.186 205.499 432.844 L 205.499 425.984 C 205.499 417.336 198.416 410.342 189.735 410.487 Z " fill="rgb(209,211,212)"/><path d=" M 189.735 408.825 C 181.237 408.967 174.501 416.077 174.501 424.576 L 174.501 432.249 C 174.501 434.002 175.922 435.423 177.675 435.423 L 202.325 435.423 C 204.078 435.423 205.499 434.002 205.499 432.249 L 205.499 424.321 C 205.499 415.673 198.416 408.68 189.735 408.825 Z " fill="rgb(238,239,241)"/><path d=" M 189.794 411.668 C 183.188 411.779 177.951 417.37 177.951 424.052 L 177.951 430.084 C 177.951 431.462 179.056 432.579 180.419 432.579 L 199.581 432.579 C 200.944 432.579 202.049 431.462 202.049 430.084 L 202.049 423.851 C 202.049 417.052 196.542 411.554 189.794 411.668 Z " fill="rgb(209,211,212)"/><path d=" M 189.794 412.672 C 183.188 412.784 177.951 418.374 177.951 425.056 L 177.951 430.084 C 177.951 431.462 179.056 432.579 180.419 432.579 L 199.581 432.579 C 200.944 432.579 202.049 431.462 202.049 430.084 L 202.049 424.856 C 202.049 418.057 196.542 412.558 189.794 412.672 Z " fill="rgb(53,56,73)"/><path d=" M 184.691 419.983 C 183.894 419.983 183.248 420.629 183.248 421.426 C 183.248 422.223 183.894 422.869 184.691 422.869 C 185.488 422.869 186.134 422.223 186.134 421.426 C 186.134 420.629 185.488 419.983 184.691 419.983 Z " fill="rgb(252,201,69)"/><path d=" M 195.309 419.983 C 194.512 419.983 193.866 420.629 193.866 421.426 C 193.866 422.223 194.512 422.869 195.309 422.869 C 196.106 422.869 196.752 422.223 196.752 421.426 C 196.752 420.629 196.106 419.983 195.309 419.983 Z " fill="rgb(252,201,69)"/><path d=" M 193.527 425.042 L 186.473 425.042 C 186.242 425.042 186.063 425.245 186.088 425.475 C 186.303 427.445 187.973 428.978 190 428.978 C 192.027 428.978 193.697 427.445 193.912 425.475 C 193.937 425.245 193.758 425.042 193.527 425.042 Z " fill="rgb(252,201,69)"/><path d=" M 174.101 404.993 C 173.181 404.993 172.435 405.739 172.435 406.659 C 172.435 407.58 173.181 408.326 174.101 408.326 C 175.021 408.326 175.768 407.58 175.768 406.659 C 175.768 405.739 175.021 404.993 174.101 404.993 Z " fill="rgb(209,211,212)"/><path d=" M 205.899 404.993 C 204.979 404.993 204.232 405.739 204.232 406.659 C 204.232 407.58 204.979 408.326 205.899 408.326 C 206.819 408.326 207.565 407.58 207.565 406.659 C 207.565 405.739 206.819 404.993 205.899 404.993 Z " fill="rgb(209,211,212)"/><path d=" M 225.047 408.221 L 215.184 408.221 C 211.506 408.221 208.524 411.203 208.524 414.881 L 208.524 414.881 C 208.524 417.584 210.135 419.909 212.448 420.953 L 212.246 421.332 L 211.164 423.366 L 213.197 422.284 L 214.638 421.517 C 214.818 421.531 215 421.541 215.184 421.541 L 225.047 421.541 C 228.725 421.541 231.707 418.559 231.707 414.881 L 231.707 414.881 C 231.707 411.203 228.725 408.221 225.047 408.221 Z " fill-rule="evenodd" fill="rgb(53,56,73)"/><path d=" M 215.895 412.357 L 215.895 414.191 L 218.694 414.191 L 218.694 412.357 C 218.694 412.095 218.753 411.898 218.871 411.767 C 218.989 411.636 219.144 411.571 219.336 411.571 C 219.531 411.571 219.689 411.636 219.81 411.765 C 219.93 411.895 219.991 412.092 219.991 412.357 L 219.991 417.401 C 219.991 417.666 219.93 417.864 219.807 417.995 C 219.685 418.126 219.528 418.191 219.336 418.191 C 219.141 418.191 218.985 418.125 218.868 417.992 C 218.752 417.86 218.694 417.663 218.694 417.401 L 218.694 415.248 L 215.895 415.248 L 215.895 417.401 C 215.895 417.666 215.833 417.864 215.711 417.995 C 215.589 418.126 215.432 418.191 215.24 418.191 C 215.044 418.191 214.889 418.125 214.772 417.992 C 214.656 417.86 214.598 417.663 214.598 417.401 L 214.598 412.357 C 214.598 412.095 214.655 411.898 214.77 411.767 C 214.885 411.636 215.042 411.571 215.24 411.571 C 215.435 411.571 215.593 411.636 215.713 411.765 C 215.834 411.895 215.895 412.092 215.895 412.357 Z " fill="rgb(255,255,255)"/><path d=" M 221.436 417.401 L 221.436 412.357 C 221.436 412.095 221.496 411.898 221.615 411.767 C 221.734 411.636 221.889 411.571 222.078 411.571 C 222.273 411.571 222.432 411.636 222.552 411.765 C 222.673 411.895 222.733 412.092 222.733 412.357 L 222.733 417.401 C 222.733 417.666 222.673 417.864 222.552 417.995 C 222.432 418.126 222.273 418.191 222.078 418.191 C 221.892 418.191 221.738 418.125 221.618 417.992 C 221.496 417.86 221.436 417.663 221.436 417.401 Z " fill="rgb(255,255,255)"/><path d=" M 224.978 418.182 C 224.8 418.182 224.645 418.125 224.513 418.01 C 224.38 417.895 224.314 417.734 224.314 417.527 C 224.314 417.347 224.377 417.193 224.504 417.067 C 224.63 416.94 224.785 416.877 224.97 416.877 C 225.153 416.877 225.309 416.94 225.439 417.067 C 225.568 417.193 225.633 417.347 225.633 417.527 C 225.633 417.731 225.567 417.891 225.436 418.008 C 225.306 418.124 225.153 418.182 224.978 418.182 Z  M 224.493 415.309 L 224.353 413.217 C 224.327 412.81 224.314 412.517 224.314 412.339 C 224.314 412.098 224.377 411.909 224.504 411.774 C 224.63 411.639 224.797 411.571 225.004 411.571 C 225.255 411.571 225.422 411.657 225.506 411.831 C 225.591 412.004 225.633 412.254 225.633 412.58 C 225.633 412.772 225.623 412.967 225.603 413.165 L 225.414 415.318 C 225.394 415.574 225.35 415.77 225.284 415.907 C 225.216 416.044 225.106 416.112 224.952 416.112 C 224.795 416.112 224.685 416.046 224.624 415.914 C 224.563 415.781 224.519 415.58 224.493 415.309 Z " fill="rgb(255,255,255)"/></g></svg>