<?xml version="1.0" encoding="UTF-8"?>
<svg xmlns="http://www.w3.org/2000/svg" xmlns:xlink="http://www.w3.org/1999/xlink" width="50pt" height="50pt" viewBox="0 0 50 50" version="1.1">
<g id="surface4373309">
<path style=" stroke:none;fill-rule:nonzero;fill:rgb(16.078431%,38.431373%,100%);fill-opacity:1;" d="M 25 2 C 12.316406 2 2 12.316406 2 25 C 2 37.683594 12.316406 48 25 48 C 37.683594 48 48 37.683594 48 25 C 48 12.316406 37.683594 2 25 2 Z M 25 28 C 24.539062 28 24.105469 27.886719 23.714844 27.699219 L 17.707031 33.707031 C 17.511719 33.902344 17.257812 34 17 34 C 16.742188 34 16.488281 33.902344 16.292969 33.707031 C 15.902344 33.316406 15.902344 32.683594 16.292969 32.292969 L 22.300781 26.285156 C 22.113281 25.894531 22 25.460938 22 25 C 22 23.695312 22.835938 22.597656 24 22.183594 L 24 8 C 24 7.445312 24.445312 7 25 7 C 25.554688 7 26 7.445312 26 8 L 26 22.183594 C 27.164062 22.597656 28 23.695312 28 25 C 28 26.65625 26.65625 28 25 28 Z M 25 28 "/>
</g>
</svg>
