<?xml version="1.0" encoding="iso-8859-1"?>
<!-- Generator: Adobe Illustrator 19.0.0, SVG Export Plug-In . SVG Version: 6.00 Build 0)  -->
<svg version="1.1" id="Capa_1" xmlns="http://www.w3.org/2000/svg" xmlns:xlink="http://www.w3.org/1999/xlink" x="0px" y="0px"
	 viewBox="0 0 382.004 382.004" style="enable-background:new 0 0 382.004 382.004;" xml:space="preserve">
<g>
	<g>
		<path d="M331.002,0h-279.9c-27.6,0-50,22.4-50.1,50v198.9c0,27.6,22.4,50,50,50.1h81.3l50.2,78.5c1.8,2.9,5,4.6,8.4,4.5
			c3.4,0,6.6-1.7,8.4-4.6l49.7-78.4h82c27.6-0.1,50-22.5,50-50.1V50C380.902,22.4,358.602,0,331.002,0z M361.002,248.9
			c0,16.6-13.5,30.1-30,30.1h-87.3c-3.4,0-6.6,1.7-8.5,4.6l-44.2,69.8l-44.7-69.8c-1.8-2.9-5-4.6-8.4-4.6h-86.9
			c-16.6-0.1-30-13.5-30-30.1V50c0-16.6,13.5-30,30-30h279.9c16.6,0,30,13.4,30.1,30V248.9z"/>
	</g>
</g>
<g>
	<g>
		<path d="M183.002,110h-74c-5.5,0-10,4.5-10,10s4.5,10,10,10h74c5.5,0,10-4.5,10-10S188.502,110,183.002,110z"/>
	</g>
</g>
<g>
	<g>
		<path d="M273.002,160h-164c-5.5,0-10,4.5-10,10s4.5,10,10,10h164c5.5,0,10-4.5,10-10S278.502,160,273.002,160z"/>
	</g>
</g>
<g>
</g>
<g>
</g>
<g>
</g>
<g>
</g>
<g>
</g>
<g>
</g>
<g>
</g>
<g>
</g>
<g>
</g>
<g>
</g>
<g>
</g>
<g>
</g>
<g>
</g>
<g>
</g>
<g>
</g>
</svg>
