<?xml version="1.0" encoding="UTF-8"?>
<svg xmlns="http://www.w3.org/2000/svg" xmlns:xlink="http://www.w3.org/1999/xlink" width="64pt" height="64pt" viewBox="0 0 64 64" version="1.1">
<g id="surface5005243">
<path style=" stroke:none;fill-rule:nonzero;fill:rgb(16.078431%,38.431373%,100%);fill-opacity:1;" d="M 23.5 5.5 C 20.75 5.5 18.5 7.75 18.5 10.5 L 18.5 18 L 7 18 C 3.398438 18 0.5 20.898438 0.5 24.5 L 0.5 52 C 0.5 55.601562 3.398438 58.5 7 58.5 L 28.402344 58.5 C 29.199219 58.5 29.949219 57.898438 30 57.097656 C 30.050781 56.25 29.351562 55.5 28.5 55.5 L 7 55.5 C 5.050781 55.5 3.5 53.949219 3.5 52 L 3.5 24.5 C 3.5 22.550781 5.050781 21 7 21 L 34.5 21 C 36.449219 21 38 22.550781 38 24.5 L 38 46.597656 C 38 50.050781 39.398438 53.199219 41.75 55.5 L 40.601562 55.5 C 38.75 55.5 36.851562 54.898438 35.601562 53.5 C 34.949219 52.800781 33.851562 52.851562 33.25 53.597656 C 32.800781 54.199219 32.898438 55.050781 33.449219 55.597656 C 35.351562 57.449219 37.851562 58.5 40.5 58.5 L 46.902344 58.5 C 47.601562 58.5 48.25 58.101562 48.402344 57.402344 C 48.652344 56.601562 48.199219 55.800781 47.449219 55.550781 C 43.601562 54.25 41 50.648438 41 46.550781 L 41 43 L 44.949219 43 C 47.199219 43 49.398438 42.101562 51 40.5 C 52.601562 42.101562 54.75 43 57.050781 43 L 58.25 43 C 59.601562 43 60.25 41.351562 59.300781 40.402344 C 57.25 38.402344 56 35.601562 56 32.550781 L 56 10.5 C 56 7.75 53.75 5.5 51 5.5 Z M 15.5 32.402344 C 14.121094 32.402344 13 33.519531 13 34.902344 C 13 36.28125 14.121094 37.402344 15.5 37.402344 C 16.878906 37.402344 18 36.28125 18 34.902344 C 18 33.519531 16.878906 32.402344 15.5 32.402344 Z M 25.5 32.402344 C 24.121094 32.402344 23 33.519531 23 34.902344 C 23 36.28125 24.121094 37.402344 25.5 37.402344 C 26.878906 37.402344 28 36.28125 28 34.902344 C 28 33.519531 26.878906 32.402344 25.5 32.402344 Z M 15.699219 40.597656 C 15.699219 43.398438 17.949219 45.597656 20.699219 45.597656 C 23.449219 45.597656 25.699219 43.351562 25.699219 40.597656 Z M 53.5 55.5 C 52.671875 55.5 52 56.171875 52 57 C 52 57.828125 52.671875 58.5 53.5 58.5 C 54.328125 58.5 55 57.828125 55 57 C 55 56.171875 54.328125 55.5 53.5 55.5 Z M 53.5 55.5 "/>
</g>
</svg>
