<?xml version="1.0" encoding="UTF-8"?>
<svg xmlns="http://www.w3.org/2000/svg" xmlns:xlink="http://www.w3.org/1999/xlink" width="64pt" height="64pt" viewBox="0 0 64 64" version="1.1">
<g id="surface6197293">
<path style=" stroke:none;fill-rule:nonzero;fill:rgb(16.078431%,38.431373%,100%);fill-opacity:1;" d="M 19.949219 9.5 C 14.199219 9.5 9.5 14.199219 9.5 19.949219 L 9.5 44.097656 C 9.5 49.851562 14.199219 54.550781 19.949219 54.550781 L 49.097656 54.550781 C 54.851562 54.550781 59.550781 49.847656 59.550781 44.097656 L 59.550781 19.949219 C 59.5 14.199219 54.800781 9.5 49.050781 9.5 Z M 19.949219 12.5 L 44.097656 12.5 C 48.199219 12.5 51.550781 15.851562 51.550781 19.949219 L 51.550781 44.050781 L 51.5 44.050781 C 51.5 48.148438 48.148438 51.5 44.050781 51.5 L 19.949219 51.5 C 15.851562 51.5 12.5 48.148438 12.5 44.050781 L 12.5 19.949219 C 12.5 15.851562 15.851562 12.5 19.949219 12.5 Z M 32 15.5 C 31.148438 15.5 30.5 16.148438 30.5 17 L 30.5 29.402344 C 29.601562 29.902344 29 30.898438 29 32 C 29 33.648438 30.351562 35 32 35 C 33.101562 35 34.097656 34.398438 34.597656 33.5 L 42 33.5 C 42.851562 33.5 43.5 32.851562 43.5 32 C 43.5 31.148438 42.851562 30.5 42 30.5 L 34.597656 30.5 C 34.351562 30.050781 33.949219 29.648438 33.5 29.402344 L 33.5 17 C 33.5 16.148438 32.851562 15.5 32 15.5 Z M 32 15.5 "/>
</g>
</svg>
