<?xml version="1.0" encoding="UTF-8"?>
<svg xmlns="http://www.w3.org/2000/svg" xmlns:xlink="http://www.w3.org/1999/xlink" width="48pt" height="48pt" viewBox="0 0 48 48" version="1.1">
<g id="surface6944300">
<path style=" stroke:none;fill-rule:nonzero;fill:rgb(45.882353%,45.882353%,45.882353%);fill-opacity:1;" d="M 27.574219 4.3125 C 35.632812 5.71875 42.15625 12.148438 43.644531 20.195312 C 43.96875 21.945312 44.0625 23.664062 43.953125 25.328125 C 42.722656 24.75 41.394531 24.34375 40 24.140625 C 40.007812 23.039062 39.90625 21.90625 39.679688 20.761719 C 38.464844 14.601562 33.53125 9.621094 27.382812 8.351562 C 21.503906 7.136719 16.054688 9.203125 12.433594 13.019531 L 15.707031 16.292969 C 16.097656 16.683594 16.097656 17.316406 15.707031 17.707031 C 15.511719 17.902344 15.257812 18 15 18 L 6 18 C 4.894531 18 4 17.105469 4 16 L 4 7 C 4 6.742188 4.097656 6.488281 4.292969 6.292969 C 4.683594 5.902344 5.316406 5.902344 5.707031 6.292969 L 9.59375 10.179688 C 13.296875 6.3125 18.519531 3.917969 24.304688 4.003906 C 25.378906 4.019531 26.46875 4.121094 27.574219 4.3125 Z M 24 44 C 13.730469 44 5.242188 36.21875 4.125 26.242188 C 3.992188 25.050781 4.925781 24 6.125 24 C 7.125 24 7.984375 24.738281 8.09375 25.730469 C 8.960938 33.742188 15.761719 40 24 40 C 24.046875 40 24.09375 40 24.140625 40 C 24.34375 41.394531 24.75 42.722656 25.332031 43.957031 C 24.890625 43.984375 24.445312 44 24 44 Z M 26 14 L 26 23.171875 L 29.621094 26.792969 C 28.546875 27.59375 27.59375 28.546875 26.792969 29.621094 L 22.585938 25.414062 C 22.210938 25.039062 22 24.53125 22 24 L 22 14 C 22 12.894531 22.894531 12 24 12 C 25.105469 12 26 12.894531 26 14 Z M 26 14 "/>
<path style=" stroke:none;fill-rule:nonzero;fill:rgb(80%,80%,80%);fill-opacity:1;" d="M 38 28 C 32.476562 28 28 32.476562 28 38 C 28 43.523438 32.476562 48 38 48 C 43.523438 48 48 43.523438 48 38 C 48 32.476562 43.523438 28 38 28 Z M 42 40 L 40 40 L 40 42 C 40 43.105469 39.105469 44 38 44 C 36.894531 44 36 43.105469 36 42 L 36 40 L 34 40 C 32.894531 40 32 39.105469 32 38 C 32 36.894531 32.894531 36 34 36 L 36 36 L 36 34 C 36 32.894531 36.894531 32 38 32 C 39.105469 32 40 32.894531 40 34 L 40 36 L 42 36 C 43.105469 36 44 36.894531 44 38 C 44 39.105469 43.105469 40 42 40 Z M 42 40 "/>
</g>
</svg>
