<?xml version="1.0" encoding="UTF-8"?>
<svg xmlns="http://www.w3.org/2000/svg" xmlns:xlink="http://www.w3.org/1999/xlink" width="60pt" height="60pt" viewBox="0 0 60 60" version="1.1">
<g id="surface1437076">
<path style=" stroke:none;fill-rule:nonzero;fill:rgb(20%,20%,20%);fill-opacity:1;" d="M 15.957031 11.960938 C 14.328125 11.964844 12.867188 12.949219 12.253906 14.457031 C 11.644531 15.964844 12.007812 17.695312 13.171875 18.828125 L 24.34375 30 L 13.171875 41.171875 C 12.125 42.175781 11.707031 43.664062 12.070312 45.066406 C 12.4375 46.46875 13.53125 47.5625 14.933594 47.929688 C 16.335938 48.292969 17.824219 47.875 18.828125 46.828125 L 30 35.65625 L 41.171875 46.828125 C 42.175781 47.875 43.664062 48.292969 45.066406 47.929688 C 46.46875 47.5625 47.5625 46.46875 47.929688 45.066406 C 48.292969 43.664062 47.875 42.175781 46.828125 41.171875 L 35.65625 30 L 46.828125 18.828125 C 48.011719 17.679688 48.367188 15.917969 47.722656 14.402344 C 47.082031 12.882812 45.570312 11.914062 43.921875 11.960938 C 42.882812 11.992188 41.894531 12.425781 41.171875 13.171875 L 30 24.34375 L 18.828125 13.171875 C 18.074219 12.398438 17.039062 11.960938 15.957031 11.960938 Z M 15.957031 11.960938 "/>
</g>
</svg>
