<?xml version="1.0" encoding="UTF-8"?>
<svg xmlns="http://www.w3.org/2000/svg" xmlns:xlink="http://www.w3.org/1999/xlink" width="48pt" height="48pt" viewBox="0 0 48 48" version="1.1">
<g id="surface5014704">
<path style=" stroke:none;fill-rule:nonzero;fill:rgb(16.078431%,38.431373%,100%);fill-opacity:1;" d="M 16 2 C 13.398438 2 11.203125 3.679688 10.375 6 L 8.125 6 L 0.6875 30 C 0.242188 31.25 0 32.601562 0 34 C 0 40.601562 5.398438 46 12 46 C 16.523438 46 20.515625 43.46875 22.5625 39.75 C 23.007812 39.921875 23.492188 40 24 40 C 24.507812 40 24.992188 39.921875 25.4375 39.75 C 27.484375 43.46875 31.476562 46 36 46 C 42.601562 46 48 40.601562 48 34 C 48 31.8125 47.414062 29.773438 46.375 28 L 39.875 6 L 37.625 6 C 36.796875 3.679688 34.601562 2 32 2 C 29.398438 2 27.203125 3.679688 26.375 6 L 21.625 6 C 20.796875 3.679688 18.601562 2 16 2 Z M 12 26 C 16.445312 26 20 29.554688 20 34 C 20 38.445312 16.445312 42 12 42 C 7.554688 42 4 38.445312 4 34 C 4 29.554688 7.554688 26 12 26 Z M 36 26 C 40.445312 26 44 29.554688 44 34 C 44 38.445312 40.445312 42 36 42 C 31.554688 42 28 38.445312 28 34 C 28 29.554688 31.554688 26 36 26 Z M 36 26 "/>
</g>
</svg>
