<?xml version="1.0" encoding="UTF-8"?>
<svg xmlns="http://www.w3.org/2000/svg" xmlns:xlink="http://www.w3.org/1999/xlink" width="16pt" height="16pt" viewBox="0 0 16 16" version="1.1">
<g id="surface5934072">
<path style=" stroke:none;fill-rule:nonzero;fill:rgb(0%,0%,0%);fill-opacity:1;" d="M 4 6.667969 C 3.261719 6.667969 2.667969 7.261719 2.667969 8 C 2.667969 8.738281 3.261719 9.332031 4 9.332031 C 4.738281 9.332031 5.332031 8.738281 5.332031 8 C 5.332031 7.261719 4.738281 6.667969 4 6.667969 Z M 8 6.667969 C 7.261719 6.667969 6.667969 7.261719 6.667969 8 C 6.667969 8.738281 7.261719 9.332031 8 9.332031 C 8.738281 9.332031 9.332031 8.738281 9.332031 8 C 9.332031 7.261719 8.738281 6.667969 8 6.667969 Z M 12 6.667969 C 11.261719 6.667969 10.667969 7.261719 10.667969 8 C 10.667969 8.738281 11.261719 9.332031 12 9.332031 C 12.738281 9.332031 13.332031 8.738281 13.332031 8 C 13.332031 7.261719 12.738281 6.667969 12 6.667969 Z M 12 6.667969 "/>
</g>
</svg>
