<?xml version="1.0" encoding="UTF-8"?>
<svg xmlns="http://www.w3.org/2000/svg" xmlns:xlink="http://www.w3.org/1999/xlink" width="64pt" height="64pt" viewBox="0 0 64 64" version="1.1">
<g id="surface1966673">
<path style=" stroke:none;fill-rule:nonzero;fill:rgb(40%,40%,40%);fill-opacity:1;" d="M 32 11.800781 C 30.148438 11.800781 28.550781 12.75 27.597656 14.300781 L 9.550781 44.449219 C 8.601562 46.050781 8.550781 48 9.5 49.597656 C 10.398438 51.199219 12.050781 52.199219 13.902344 52.199219 L 50.050781 52.199219 C 51.898438 52.199219 53.601562 51.25 54.5 49.597656 C 55.398438 48 55.398438 46.050781 54.449219 44.449219 L 36.402344 14.300781 C 35.449219 12.75 33.851562 11.800781 32 11.800781 Z M 32 14.800781 C 32.75 14.800781 33.398438 15.148438 33.800781 15.847656 L 51.898438 46 C 52.300781 46.648438 52.300781 47.449219 51.949219 48.148438 C 51.550781 48.800781 50.898438 49.199219 50.097656 49.199219 L 13.898438 49.199219 C 13.148438 49.199219 12.449219 48.800781 12.050781 48.148438 C 11.648438 47.5 11.699219 46.648438 12.097656 46 L 30.199219 15.847656 C 30.601562 15.199219 31.25 14.800781 32 14.800781 Z M 32 24.648438 C 31.148438 24.648438 30.5 25.300781 30.5 26.148438 L 30.5 36.648438 C 30.5 37.5 31.148438 38.148438 32 38.148438 C 32.851562 38.148438 33.5 37.5 33.5 36.648438 L 33.5 26.148438 C 33.5 25.300781 32.851562 24.648438 32 24.648438 Z M 32 40.25 C 31.171875 40.25 30.5 40.921875 30.5 41.75 C 30.5 42.578125 31.171875 43.25 32 43.25 C 32.828125 43.25 33.5 42.578125 33.5 41.75 C 33.5 40.921875 32.828125 40.25 32 40.25 Z M 32 40.25 "/>
</g>
</svg>
