<?xml version="1.0" encoding="UTF-8"?>
<svg xmlns="http://www.w3.org/2000/svg" xmlns:xlink="http://www.w3.org/1999/xlink" width="50pt" height="50pt" viewBox="0 0 50 50" version="1.1">
<g id="surface961885">
<path style=" stroke:none;fill-rule:nonzero;fill:rgb(16.078431%,38.431373%,100%);fill-opacity:1;" d="M 22 4 C 12.625 4 5 11.625 5 21 C 5 30.375 12.625 38 22 38 C 25.710938 38 29.136719 36.789062 31.933594 34.761719 L 45.085938 47.914062 L 47.914062 45.085938 L 34.886719 32.054688 C 37.441406 29.082031 39 25.222656 39 21 C 39 11.625 31.375 4 22 4 Z M 14 19 C 15.105469 19 16 19.894531 16 21 C 16 22.105469 15.105469 23 14 23 C 12.894531 23 12 22.105469 12 21 C 12 19.894531 12.894531 19 14 19 Z M 22 19 C 23.105469 19 24 19.894531 24 21 C 24 22.105469 23.105469 23 22 23 C 20.894531 23 20 22.105469 20 21 C 20 19.894531 20.894531 19 22 19 Z M 30 19 C 31.105469 19 32 19.894531 32 21 C 32 22.105469 31.105469 23 30 23 C 28.894531 23 28 22.105469 28 21 C 28 19.894531 28.894531 19 30 19 Z M 30 19 "/>
</g>
</svg>
