<?xml version="1.0" encoding="UTF-8"?>
<svg xmlns="http://www.w3.org/2000/svg" xmlns:xlink="http://www.w3.org/1999/xlink" width="16pt" height="16pt" viewBox="0 0 16 16" version="1.1">
<g id="surface5908469">
<path style=" stroke:none;fill-rule:nonzero;fill:rgb(20%,20%,20%);fill-opacity:1;" d="M 2.785156 1.75 C 2.214844 1.75 1.753906 2.183594 1.753906 2.722656 L 1.753906 6.28125 C 1.753906 6.816406 2.214844 7.25 2.785156 7.25 L 6.21875 7.25 C 6.789062 7.25 7.25 6.816406 7.25 6.28125 L 7.25 2.722656 C 7.25 2.183594 6.789062 1.75 6.21875 1.75 Z M 9.722656 1.75 C 9.183594 1.75 8.75 2.183594 8.75 2.722656 L 8.75 6.28125 C 8.75 6.816406 9.183594 7.25 9.722656 7.25 L 13.28125 7.25 C 13.816406 7.25 14.25 6.816406 14.25 6.28125 L 14.25 2.722656 C 14.25 2.183594 13.816406 1.75 13.28125 1.75 Z M 2.785156 2.25 L 6.21875 2.25 C 6.511719 2.25 6.75 2.460938 6.75 2.722656 L 6.75 6.28125 C 6.75 6.539062 6.511719 6.75 6.21875 6.75 L 2.785156 6.75 C 2.492188 6.75 2.253906 6.539062 2.253906 6.28125 L 2.253906 2.722656 C 2.253906 2.460938 2.492188 2.25 2.785156 2.25 Z M 9.722656 2.25 L 13.28125 2.25 C 13.539062 2.25 13.75 2.460938 13.75 2.722656 L 13.75 6.28125 C 13.75 6.539062 13.539062 6.75 13.28125 6.75 L 9.722656 6.75 C 9.460938 6.75 9.25 6.539062 9.25 6.28125 L 9.25 2.722656 C 9.25 2.460938 9.460938 2.25 9.722656 2.25 Z M 3.25 4 C 3.101562 4 3 4.101562 3 4.25 L 3 4.75 C 3 4.898438 3.101562 5 3.25 5 C 3.398438 5 3.5 4.898438 3.5 4.75 L 3.5 4.25 C 3.5 4.101562 3.398438 4 3.25 4 Z M 4.5 4 C 4.351562 4 4.25 4.101562 4.25 4.25 L 4.25 4.75 C 4.25 4.898438 4.351562 5 4.5 5 C 4.648438 5 4.75 4.898438 4.75 4.75 L 4.75 4.25 C 4.75 4.101562 4.648438 4 4.5 4 Z M 5.75 4 C 5.601562 4 5.5 4.101562 5.5 4.25 L 5.5 4.75 C 5.5 4.898438 5.601562 5 5.75 5 C 5.898438 5 6 4.898438 6 4.75 L 6 4.25 C 6 4.101562 5.898438 4 5.75 4 Z M 2.722656 8.75 C 2.1875 8.75 1.753906 9.183594 1.753906 9.71875 L 1.753906 13.277344 C 1.753906 13.8125 2.1875 14.246094 2.722656 14.246094 L 6.28125 14.246094 C 6.816406 14.246094 7.25 13.8125 7.25 13.277344 L 7.25 9.71875 C 7.25 9.183594 6.816406 8.75 6.28125 8.75 Z M 9.722656 8.75 C 9.183594 8.75 8.75 9.183594 8.75 9.71875 L 8.75 13.277344 C 8.75 13.8125 9.183594 14.246094 9.722656 14.246094 L 13.28125 14.246094 C 13.816406 14.246094 14.25 13.8125 14.25 13.277344 L 14.25 9.71875 C 14.25 9.183594 13.816406 8.75 13.28125 8.75 Z M 2.722656 9.25 L 6.28125 9.25 C 6.539062 9.25 6.75 9.460938 6.75 9.71875 L 6.75 13.277344 C 6.75 13.535156 6.539062 13.746094 6.28125 13.746094 L 2.722656 13.746094 C 2.464844 13.746094 2.253906 13.535156 2.253906 13.277344 L 2.253906 9.71875 C 2.253906 9.460938 2.464844 9.25 2.722656 9.25 Z M 9.722656 9.25 L 13.28125 9.25 C 13.539062 9.25 13.75 9.460938 13.75 9.71875 L 13.75 13.277344 C 13.75 13.535156 13.539062 13.746094 13.28125 13.746094 L 9.722656 13.746094 C 9.460938 13.746094 9.25 13.535156 9.25 13.277344 L 9.25 9.71875 C 9.25 9.460938 9.460938 9.25 9.722656 9.25 Z M 10.25 11 C 10.101562 11 10 11.101562 10 11.25 L 10 11.75 C 10 11.898438 10.101562 12 10.25 12 C 10.398438 12 10.5 11.898438 10.5 11.75 L 10.5 11.25 C 10.5 11.101562 10.398438 11 10.25 11 Z M 11.5 11 C 11.351562 11 11.25 11.101562 11.25 11.25 L 11.25 11.75 C 11.25 11.898438 11.351562 12 11.5 12 C 11.648438 12 11.75 11.898438 11.75 11.75 L 11.75 11.25 C 11.75 11.101562 11.648438 11 11.5 11 Z M 12.75 11 C 12.601562 11 12.5 11.101562 12.5 11.25 L 12.5 11.75 C 12.5 11.898438 12.601562 12 12.75 12 C 12.898438 12 13 11.898438 13 11.75 L 13 11.25 C 13 11.101562 12.898438 11 12.75 11 Z M 12.75 11 "/>
</g>
</svg>
