<?xml version="1.0" encoding="UTF-8"?>
<svg xmlns="http://www.w3.org/2000/svg" xmlns:xlink="http://www.w3.org/1999/xlink" width="60pt" height="60pt" viewBox="0 0 60 60" version="1.1">
<g id="surface6127208">
<path style=" stroke:none;fill-rule:nonzero;fill:rgb(16.078431%,38.431373%,100%);fill-opacity:1;" d="M 12 8 C 9.789062 8 8 9.789062 8 12 L 8 21.757812 L 38.242188 52 L 48 52 C 50.210938 52 52 50.210938 52 48 L 52 38.242188 L 21.757812 8 Z M 37.484375 8 C 34.8125 8 33.472656 11.230469 35.363281 13.121094 L 46.878906 24.636719 C 48.769531 26.523438 52 25.1875 52 22.515625 L 52 12 C 52 9.789062 50.210938 8 48 8 Z M 10.671875 34.5 C 9.261719 34.664062 8 35.8125 8 37.484375 L 8 48 C 8 50.210938 9.789062 52 12 52 L 22.515625 52 C 25.1875 52 26.527344 48.769531 24.636719 46.878906 L 13.121094 35.363281 C 12.414062 34.65625 11.515625 34.402344 10.671875 34.5 Z M 10.671875 34.5 "/>
</g>
</svg>
