<?xml version="1.0" encoding="UTF-8"?>
<svg xmlns="http://www.w3.org/2000/svg" xmlns:xlink="http://www.w3.org/1999/xlink" width="100pt" height="100pt" viewBox="0 0 100 100" version="1.1">
<g id="surface4530733">
<path style=" stroke:none;fill-rule:nonzero;fill:rgb(16.078431%,38.431373%,100%);fill-opacity:1;" d="M 86 92 L 58 92 C 54.691406 92 52 89.308594 52 86 L 52 58 C 52 54.691406 54.691406 52 58 52 L 86 52 C 89.308594 52 92 54.691406 92 58 L 92 86 C 92 89.308594 89.308594 92 86 92 Z M 86 48 L 58 48 C 54.691406 48 52 45.308594 52 42 L 52 14 C 52 10.691406 54.691406 8 58 8 L 86 8 C 89.308594 8 92 10.691406 92 14 L 92 42 C 92 45.308594 89.308594 48 86 48 Z M 42 92 L 14 92 C 10.691406 92 8 89.308594 8 86 L 8 58 C 8 54.691406 10.691406 52 14 52 L 42 52 C 45.308594 52 48 54.691406 48 58 L 48 86 C 48 89.308594 45.308594 92 42 92 Z M 42 48 L 14 48 C 10.691406 48 8 45.308594 8 42 L 8 14 C 8 10.691406 10.691406 8 14 8 L 42 8 C 45.308594 8 48 10.691406 48 14 L 48 42 C 48 45.308594 45.308594 48 42 48 Z M 42 48 "/>
</g>
</svg>
