<?xml version="1.0" encoding="UTF-8"?>
<svg xmlns="http://www.w3.org/2000/svg" xmlns:xlink="http://www.w3.org/1999/xlink" width="50pt" height="50pt" viewBox="0 0 50 50" version="1.1">
<g id="surface4248736">
<path style=" stroke:none;fill-rule:nonzero;fill:rgb(16.078431%,38.431373%,100%);fill-opacity:1;" d="M 19.03125 0.0625 C 18.9375 0.0820312 18.839844 0.117188 18.75 0.15625 L 11.59375 3.125 C 10.855469 3.433594 10.476562 4.308594 10.78125 5.0625 L 11.125 6.03125 C 11.351562 6.585938 11.902344 6.9375 12.5 6.9375 C 12.695312 6.9375 12.882812 6.886719 13.0625 6.8125 L 13.8125 6.5 L 14.375 7.8125 L 19.96875 5.53125 L 19.375 4.1875 L 20.21875 3.84375 C 20.585938 3.691406 20.882812 3.398438 21.03125 3.03125 C 21.179688 2.667969 21.152344 2.292969 21 1.9375 L 20.6875 0.9375 C 20.414062 0.304688 19.683594 -0.0625 19.03125 0.0625 Z M 22.28125 6.9375 C 21.867188 6.90625 21.464844 7.054688 20.90625 7.28125 L 14.96875 9.71875 C 13.339844 10.367188 13.085938 10.964844 13.75 12.625 L 18.03125 22.9375 L 28.0625 18.9375 L 23.75 8.46875 C 23.476562 7.777344 23.257812 7.273438 22.6875 7.03125 C 22.546875 6.96875 22.417969 6.949219 22.28125 6.9375 Z M 12.15625 13.96875 C 7.882812 16.5 5.957031 21.855469 7.875 26.59375 L 9.28125 29.9375 C 10.945312 28.097656 13.328125 26.90625 16 26.90625 C 16.035156 26.90625 16.058594 26.9375 16.09375 26.9375 L 14.84375 23.75 C 14.496094 22.886719 14.65625 21.933594 15.15625 21.21875 Z M 28.8125 20.8125 L 18.78125 24.8125 L 19.40625 26.34375 C 19.507812 26.585938 19.699219 26.773438 19.9375 26.875 L 22.78125 28.09375 C 22.90625 28.148438 23.054688 28.1875 23.1875 28.1875 C 23.3125 28.1875 23.445312 28.140625 23.5625 28.09375 L 27.65625 26.46875 C 27.902344 26.371094 28.082031 26.179688 28.1875 25.9375 L 29.4375 23.0625 C 29.542969 22.816406 29.539062 22.558594 29.4375 22.3125 Z M 35.5 27.40625 C 35.457031 27.414062 35.414062 27.425781 35.375 27.4375 C 35.289062 27.449219 35.207031 27.46875 35.125 27.5 L 22.28125 32.78125 C 21.105469 30.496094 18.742188 28.90625 16 28.90625 C 12.09375 28.90625 8.90625 32.09375 8.90625 36 C 8.90625 39.90625 12.09375 43.09375 16 43.09375 C 19.90625 43.09375 23.09375 39.90625 23.09375 36 C 23.09375 35.542969 23.019531 35.089844 22.9375 34.65625 L 35.875 29.375 C 36.417969 29.269531 36.777344 28.746094 36.671875 28.203125 C 36.566406 27.660156 36.042969 27.300781 35.5 27.40625 Z M 35.84375 36.78125 C 35.378906 36.78125 34.933594 36.863281 34.5 37.03125 L 24.625 40.84375 C 24.347656 40.953125 24.015625 40.957031 23.65625 40.875 C 23.144531 41.679688 22.515625 42.394531 21.78125 43 L 38.6875 43 C 38.921875 42.726562 39.128906 42.433594 39.28125 42.09375 C 39.691406 41.171875 39.738281 40.160156 39.375 39.21875 C 38.816406 37.773438 37.394531 36.78125 35.84375 36.78125 Z M 9.875 45 C 8.289062 45 7 46.347656 7 48 L 7 49 C 7 49.554688 7.449219 50 8 50 L 42 50 C 42.554688 50 43 49.554688 43 49 L 43 48 C 43 46.347656 41.710938 45 40.125 45 Z M 9.875 45 "/>
</g>
</svg>
