<?xml version="1.0" encoding="UTF-8"?>
<svg xmlns="http://www.w3.org/2000/svg" xmlns:xlink="http://www.w3.org/1999/xlink" width="30pt" height="30pt" viewBox="0 0 30 30" version="1.1">
<g id="surface961591">
<path style=" stroke:none;fill-rule:nonzero;fill:rgb(16.078431%,38.431373%,100%);fill-opacity:1;" d="M 15 2 C 14.449219 2 14 2.449219 14 3 C 14 3.550781 14.449219 4 15 4 C 15.550781 4 16 3.550781 16 3 C 16 2.449219 15.550781 2 15 2 Z M 10 3 C 9.449219 3 9 3.449219 9 4 C 9 4.550781 9.449219 5 10 5 C 10.550781 5 11 4.550781 11 4 C 11 3.449219 10.550781 3 10 3 Z M 20 3 C 19.449219 3 19 3.449219 19 4 C 19 4.550781 19.449219 5 20 5 C 20.550781 5 21 4.550781 21 4 C 21 3.449219 20.550781 3 20 3 Z M 5 7 C 3.894531 7 3 7.894531 3 9 L 3 12.585938 L 1.292969 14.292969 C 0.902344 14.683594 0.902344 15.316406 1.292969 15.707031 L 3 17.414062 L 3 21 C 3 22.105469 3.894531 23 5 23 L 25 23 C 26.105469 23 27 22.105469 27 21 L 27 9 C 27 7.894531 26.105469 7 25 7 Z M 8 12 L 22 12 C 22.554688 12 23 12.449219 23 13 C 23 13.550781 22.554688 14 22 14 L 8 14 C 7.445312 14 7 13.550781 7 13 C 7 12.449219 7.445312 12 8 12 Z M 8 16 L 16 16 C 16.554688 16 17 16.449219 17 17 C 17 17.550781 16.554688 18 16 18 L 8 18 C 7.445312 18 7 17.550781 7 17 C 7 16.449219 7.445312 16 8 16 Z M 10 25 C 9.449219 25 9 25.449219 9 26 C 9 26.550781 9.449219 27 10 27 C 10.550781 27 11 26.550781 11 26 C 11 25.449219 10.550781 25 10 25 Z M 20 25 C 19.449219 25 19 25.449219 19 26 C 19 26.550781 19.449219 27 20 27 C 20.550781 27 21 26.550781 21 26 C 21 25.449219 20.550781 25 20 25 Z M 15 26 C 14.449219 26 14 26.449219 14 27 C 14 27.550781 14.449219 28 15 28 C 15.550781 28 16 27.550781 16 27 C 16 26.449219 15.550781 26 15 26 Z M 15 26 "/>
</g>
</svg>
