<?xml version="1.0" encoding="UTF-8" standalone="no"?><!-- Generator: Gravit.io --><svg xmlns="http://www.w3.org/2000/svg" xmlns:xlink="http://www.w3.org/1999/xlink" style="isolation:isolate" viewBox="0 0 750 500" width="750pt" height="500pt"><clipPath id="_clipPath_B7a7M89MHh09x1QsiE3XkB9yhqUssd15"><path d=" M 0 500 L 750 500 L 750 0 L 0 0 L 0 500 Z " fill="rgb(255,255,255)"/></clipPath><g clip-path="url(#_clipPath_B7a7M89MHh09x1QsiE3XkB9yhqUssd15)"><path d=" M 34.1 402.942 L 692.441 402.942 C 692.441 402.942 666.907 342.587 623.61 324.835 C 580.312 307.083 562.549 241.354 512.591 232.798 C 462.632 224.242 435.988 277.497 373.817 239.627 C 311.647 201.756 298.325 107.081 227.272 107.081 C 128.161 107.081 34.1 402.942 34.1 402.942 Z " fill="rgb(206,219,237)"/></g><path d=" M 34.1 402.941 L 340.668 402.941 C 336.27 357.412 283.174 323.804 226.446 319.914 L 226.446 319.914 C 216.064 274.627 177.648 268.083 144.008 272.774 L 144.008 272.774 C 135.896 249.042 114.589 242.289 100.751 240.46 L 100.751 240.46 C 60.807 318.943 34.1 402.941 34.1 402.941 Z " fill="none"/><clipPath id="_clipPath_UJT6wJFDzEItg0NTAO8VvddkjKOKScQY"><path d=" M 0 0 L 750 0 L 750 500 L 0 500 L 0 0 Z " fill="rgb(255,255,255)"/></clipPath><g clip-path="url(#_clipPath_UJT6wJFDzEItg0NTAO8VvddkjKOKScQY)"><path d=" M 643.074 330.084 C 661.961 346.397 682.464 365.366 696.842 402.941" fill="none" vector-effect="non-scaling-stroke" stroke-width="2.07" stroke="rgb(206,219,237)" stroke-linejoin="miter" stroke-linecap="square" stroke-miterlimit="3"/><path d=" M 649.966 330.084 C 668.853 346.397 689.357 365.366 703.735 402.941" fill="none" vector-effect="non-scaling-stroke" stroke-width="2.07" stroke="rgb(206,219,237)" stroke-linejoin="miter" stroke-linecap="square" stroke-miterlimit="3"/><path d=" M 656.858 330.084 C 675.745 346.397 696.248 365.366 710.626 402.941" fill="none" vector-effect="non-scaling-stroke" stroke-width="2.07" stroke="rgb(206,219,237)" stroke-linejoin="miter" stroke-linecap="square" stroke-miterlimit="3"/><path d=" M 197.823 108.327 C 197.823 108.327 156.395 118.17 100.268 230.448" fill="none" vector-effect="non-scaling-stroke" stroke-width="1.035" stroke="rgb(206,219,237)" stroke-linejoin="miter" stroke-linecap="square" stroke-miterlimit="3"/><path d=" M 192.785 105.944 C 192.785 105.944 151.357 115.787 95.23 228.065" fill="none" vector-effect="non-scaling-stroke" stroke-width="1.035" stroke="rgb(206,219,237)" stroke-linejoin="miter" stroke-linecap="square" stroke-miterlimit="3"/><path d=" M 187.747 103.56 C 187.747 103.56 146.32 113.403 90.192 225.681" fill="none" vector-effect="non-scaling-stroke" stroke-width="1.035" stroke="rgb(206,219,237)" stroke-linejoin="miter" stroke-linecap="square" stroke-miterlimit="3"/><line x1="471.096" y1="187.474" x2="471.096" y2="198.352" vector-effect="non-scaling-stroke" stroke-width="0.65" stroke="rgb(255,157,69)" stroke-linejoin="miter" stroke-linecap="square" stroke-miterlimit="3"/><line x1="471.096" y1="71.71" x2="471.096" y2="82.588" vector-effect="non-scaling-stroke" stroke-width="0.65" stroke="rgb(255,157,69)" stroke-linejoin="miter" stroke-linecap="square" stroke-miterlimit="3"/><line x1="476.585" y1="187.144" x2="477.723" y2="197.962" vector-effect="non-scaling-stroke" stroke-width="0.65" stroke="rgb(255,157,69)" stroke-linejoin="miter" stroke-linecap="square" stroke-miterlimit="3"/><line x1="464.484" y1="72.014" x2="465.622" y2="82.832" vector-effect="non-scaling-stroke" stroke-width="0.65" stroke="rgb(255,157,69)" stroke-linejoin="miter" stroke-linecap="square" stroke-miterlimit="3"/><line x1="482.008" y1="186.241" x2="484.27" y2="196.881" vector-effect="non-scaling-stroke" stroke-width="0.65" stroke="rgb(255,157,69)" stroke-linejoin="miter" stroke-linecap="square" stroke-miterlimit="3"/><line x1="457.94" y1="73.007" x2="460.202" y2="83.647" vector-effect="non-scaling-stroke" stroke-width="0.65" stroke="rgb(255,157,69)" stroke-linejoin="miter" stroke-linecap="square" stroke-miterlimit="3"/><line x1="487.308" y1="184.777" x2="490.669" y2="195.123" vector-effect="non-scaling-stroke" stroke-width="0.65" stroke="rgb(255,157,69)" stroke-linejoin="miter" stroke-linecap="square" stroke-miterlimit="3"/><line x1="451.536" y1="74.678" x2="454.897" y2="85.023" vector-effect="non-scaling-stroke" stroke-width="0.65" stroke="rgb(255,157,69)" stroke-linejoin="miter" stroke-linecap="square" stroke-miterlimit="3"/><line x1="492.426" y1="182.766" x2="496.85" y2="192.704" vector-effect="non-scaling-stroke" stroke-width="0.65" stroke="rgb(255,157,69)" stroke-linejoin="miter" stroke-linecap="square" stroke-miterlimit="3"/><line x1="445.341" y1="77.011" x2="449.766" y2="86.948" vector-effect="non-scaling-stroke" stroke-width="0.65" stroke="rgb(255,157,69)" stroke-linejoin="miter" stroke-linecap="square" stroke-miterlimit="3"/><line x1="497.305" y1="180.232" x2="502.744" y2="189.652" vector-effect="non-scaling-stroke" stroke-width="0.65" stroke="rgb(255,157,69)" stroke-linejoin="miter" stroke-linecap="square" stroke-miterlimit="3"/><line x1="439.424" y1="79.977" x2="444.862" y2="89.397" vector-effect="non-scaling-stroke" stroke-width="0.65" stroke="rgb(255,157,69)" stroke-linejoin="miter" stroke-linecap="square" stroke-miterlimit="3"/><line x1="501.893" y1="177.202" x2="508.287" y2="186.002" vector-effect="non-scaling-stroke" stroke-width="0.65" stroke="rgb(255,157,69)" stroke-linejoin="miter" stroke-linecap="square" stroke-miterlimit="3"/><line x1="433.848" y1="83.546" x2="440.243" y2="92.346" vector-effect="non-scaling-stroke" stroke-width="0.65" stroke="rgb(255,157,69)" stroke-linejoin="miter" stroke-linecap="square" stroke-miterlimit="3"/><line x1="506.139" y1="173.708" x2="513.417" y2="181.792" vector-effect="non-scaling-stroke" stroke-width="0.65" stroke="rgb(255,157,69)" stroke-linejoin="miter" stroke-linecap="square" stroke-miterlimit="3"/><line x1="428.677" y1="87.678" x2="435.956" y2="95.762" vector-effect="non-scaling-stroke" stroke-width="0.65" stroke="rgb(255,157,69)" stroke-linejoin="miter" stroke-linecap="square" stroke-miterlimit="3"/><line x1="509.997" y1="169.79" x2="518.081" y2="177.068" vector-effect="non-scaling-stroke" stroke-width="0.65" stroke="rgb(255,157,69)" stroke-linejoin="miter" stroke-linecap="square" stroke-miterlimit="3"/><line x1="423.967" y1="92.328" x2="432.05" y2="99.606" vector-effect="non-scaling-stroke" stroke-width="0.65" stroke="rgb(255,157,69)" stroke-linejoin="miter" stroke-linecap="square" stroke-miterlimit="3"/><line x1="513.424" y1="165.49" x2="522.223" y2="171.884" vector-effect="non-scaling-stroke" stroke-width="0.65" stroke="rgb(255,157,69)" stroke-linejoin="miter" stroke-linecap="square" stroke-miterlimit="3"/><line x1="419.768" y1="97.445" x2="428.568" y2="103.839" vector-effect="non-scaling-stroke" stroke-width="0.65" stroke="rgb(255,157,69)" stroke-linejoin="miter" stroke-linecap="square" stroke-miterlimit="3"/><line x1="516.381" y1="160.855" x2="525.803" y2="166.293" vector-effect="non-scaling-stroke" stroke-width="0.65" stroke="rgb(255,157,69)" stroke-linejoin="miter" stroke-linecap="square" stroke-miterlimit="3"/><line x1="416.128" y1="102.973" x2="425.548" y2="108.412" vector-effect="non-scaling-stroke" stroke-width="0.65" stroke="rgb(255,157,69)" stroke-linejoin="miter" stroke-linecap="square" stroke-miterlimit="3"/><line x1="518.84" y1="155.937" x2="528.778" y2="160.361" vector-effect="non-scaling-stroke" stroke-width="0.65" stroke="rgb(255,157,69)" stroke-linejoin="miter" stroke-linecap="square" stroke-miterlimit="3"/><line x1="413.084" y1="108.851" x2="423.022" y2="113.276" vector-effect="non-scaling-stroke" stroke-width="0.65" stroke="rgb(255,157,69)" stroke-linejoin="miter" stroke-linecap="square" stroke-miterlimit="3"/><line x1="520.77" y1="150.788" x2="531.116" y2="154.149" vector-effect="non-scaling-stroke" stroke-width="0.65" stroke="rgb(255,157,69)" stroke-linejoin="miter" stroke-linecap="square" stroke-miterlimit="3"/><line x1="410.672" y1="115.015" x2="421.018" y2="118.376" vector-effect="non-scaling-stroke" stroke-width="0.65" stroke="rgb(255,157,69)" stroke-linejoin="miter" stroke-linecap="square" stroke-miterlimit="3"/><line x1="522.152" y1="145.466" x2="532.792" y2="147.728" vector-effect="non-scaling-stroke" stroke-width="0.65" stroke="rgb(255,157,69)" stroke-linejoin="miter" stroke-linecap="square" stroke-miterlimit="3"/><line x1="408.917" y1="121.397" x2="419.558" y2="123.659" vector-effect="non-scaling-stroke" stroke-width="0.65" stroke="rgb(255,157,69)" stroke-linejoin="miter" stroke-linecap="square" stroke-miterlimit="3"/><line x1="522.969" y1="140.029" x2="533.787" y2="141.166" vector-effect="non-scaling-stroke" stroke-width="0.65" stroke="rgb(255,157,69)" stroke-linejoin="miter" stroke-linecap="square" stroke-miterlimit="3"/><line x1="407.84" y1="127.928" x2="418.657" y2="129.065" vector-effect="non-scaling-stroke" stroke-width="0.65" stroke="rgb(255,157,69)" stroke-linejoin="miter" stroke-linecap="square" stroke-miterlimit="3"/><line x1="523.215" y1="134.536" x2="534.092" y2="134.536" vector-effect="non-scaling-stroke" stroke-width="0.65" stroke="rgb(255,157,69)" stroke-linejoin="miter" stroke-linecap="square" stroke-miterlimit="3"/><line x1="407.45" y1="134.536" x2="418.328" y2="134.536" vector-effect="non-scaling-stroke" stroke-width="0.65" stroke="rgb(255,157,69)" stroke-linejoin="miter" stroke-linecap="square" stroke-miterlimit="3"/><line x1="522.883" y1="129.048" x2="533.701" y2="127.911" vector-effect="non-scaling-stroke" stroke-width="0.65" stroke="rgb(255,157,69)" stroke-linejoin="miter" stroke-linecap="square" stroke-miterlimit="3"/><line x1="407.754" y1="141.148" x2="418.571" y2="140.011" vector-effect="non-scaling-stroke" stroke-width="0.65" stroke="rgb(255,157,69)" stroke-linejoin="miter" stroke-linecap="square" stroke-miterlimit="3"/><line x1="521.981" y1="123.624" x2="532.621" y2="121.362" vector-effect="non-scaling-stroke" stroke-width="0.65" stroke="rgb(255,157,69)" stroke-linejoin="miter" stroke-linecap="square" stroke-miterlimit="3"/><line x1="408.747" y1="147.693" x2="419.387" y2="145.431" vector-effect="non-scaling-stroke" stroke-width="0.65" stroke="rgb(255,157,69)" stroke-linejoin="miter" stroke-linecap="square" stroke-miterlimit="3"/><line x1="520.516" y1="118.324" x2="530.862" y2="114.963" vector-effect="non-scaling-stroke" stroke-width="0.65" stroke="rgb(255,157,69)" stroke-linejoin="miter" stroke-linecap="square" stroke-miterlimit="3"/><line x1="410.418" y1="154.097" x2="420.764" y2="150.736" vector-effect="non-scaling-stroke" stroke-width="0.65" stroke="rgb(255,157,69)" stroke-linejoin="miter" stroke-linecap="square" stroke-miterlimit="3"/><line x1="518.506" y1="113.206" x2="528.444" y2="108.782" vector-effect="non-scaling-stroke" stroke-width="0.65" stroke="rgb(255,157,69)" stroke-linejoin="miter" stroke-linecap="square" stroke-miterlimit="3"/><line x1="412.75" y1="160.292" x2="422.688" y2="155.868" vector-effect="non-scaling-stroke" stroke-width="0.65" stroke="rgb(255,157,69)" stroke-linejoin="miter" stroke-linecap="square" stroke-miterlimit="3"/><line x1="515.971" y1="108.327" x2="525.392" y2="102.888" vector-effect="non-scaling-stroke" stroke-width="0.65" stroke="rgb(255,157,69)" stroke-linejoin="miter" stroke-linecap="square" stroke-miterlimit="3"/><line x1="415.716" y1="166.209" x2="425.137" y2="160.77" vector-effect="non-scaling-stroke" stroke-width="0.65" stroke="rgb(255,157,69)" stroke-linejoin="miter" stroke-linecap="square" stroke-miterlimit="3"/><line x1="512.941" y1="103.739" x2="521.741" y2="97.345" vector-effect="non-scaling-stroke" stroke-width="0.65" stroke="rgb(255,157,69)" stroke-linejoin="miter" stroke-linecap="square" stroke-miterlimit="3"/><line x1="419.286" y1="171.784" x2="428.086" y2="165.39" vector-effect="non-scaling-stroke" stroke-width="0.65" stroke="rgb(255,157,69)" stroke-linejoin="miter" stroke-linecap="square" stroke-miterlimit="3"/><line x1="509.447" y1="99.493" x2="517.531" y2="92.214" vector-effect="non-scaling-stroke" stroke-width="0.65" stroke="rgb(255,157,69)" stroke-linejoin="miter" stroke-linecap="square" stroke-miterlimit="3"/><line x1="423.418" y1="176.955" x2="431.502" y2="169.676" vector-effect="non-scaling-stroke" stroke-width="0.65" stroke="rgb(255,157,69)" stroke-linejoin="miter" stroke-linecap="square" stroke-miterlimit="3"/><line x1="505.529" y1="95.636" x2="512.808" y2="87.552" vector-effect="non-scaling-stroke" stroke-width="0.65" stroke="rgb(255,157,69)" stroke-linejoin="miter" stroke-linecap="square" stroke-miterlimit="3"/><line x1="428.068" y1="181.665" x2="435.346" y2="173.582" vector-effect="non-scaling-stroke" stroke-width="0.65" stroke="rgb(255,157,69)" stroke-linejoin="miter" stroke-linecap="square" stroke-miterlimit="3"/><line x1="501.229" y1="92.209" x2="507.623" y2="83.409" vector-effect="non-scaling-stroke" stroke-width="0.65" stroke="rgb(255,157,69)" stroke-linejoin="miter" stroke-linecap="square" stroke-miterlimit="3"/><line x1="433.184" y1="185.865" x2="439.579" y2="177.065" vector-effect="non-scaling-stroke" stroke-width="0.65" stroke="rgb(255,157,69)" stroke-linejoin="miter" stroke-linecap="square" stroke-miterlimit="3"/><line x1="496.594" y1="89.251" x2="502.033" y2="79.831" vector-effect="non-scaling-stroke" stroke-width="0.65" stroke="rgb(255,157,69)" stroke-linejoin="miter" stroke-linecap="square" stroke-miterlimit="3"/><line x1="438.713" y1="189.505" x2="444.15" y2="180.085" vector-effect="non-scaling-stroke" stroke-width="0.65" stroke="rgb(255,157,69)" stroke-linejoin="miter" stroke-linecap="square" stroke-miterlimit="3"/><line x1="491.676" y1="86.793" x2="496.1" y2="76.855" vector-effect="non-scaling-stroke" stroke-width="0.65" stroke="rgb(255,157,69)" stroke-linejoin="miter" stroke-linecap="square" stroke-miterlimit="3"/><line x1="444.591" y1="192.549" x2="449.016" y2="182.611" vector-effect="non-scaling-stroke" stroke-width="0.65" stroke="rgb(255,157,69)" stroke-linejoin="miter" stroke-linecap="square" stroke-miterlimit="3"/><line x1="486.528" y1="84.863" x2="489.889" y2="74.517" vector-effect="non-scaling-stroke" stroke-width="0.65" stroke="rgb(255,157,69)" stroke-linejoin="miter" stroke-linecap="square" stroke-miterlimit="3"/><line x1="450.755" y1="194.961" x2="454.116" y2="184.616" vector-effect="non-scaling-stroke" stroke-width="0.65" stroke="rgb(255,157,69)" stroke-linejoin="miter" stroke-linecap="square" stroke-miterlimit="3"/><line x1="481.206" y1="83.481" x2="483.468" y2="72.841" vector-effect="non-scaling-stroke" stroke-width="0.65" stroke="rgb(255,157,69)" stroke-linejoin="miter" stroke-linecap="square" stroke-miterlimit="3"/><line x1="457.137" y1="196.716" x2="459.399" y2="186.076" vector-effect="non-scaling-stroke" stroke-width="0.65" stroke="rgb(255,157,69)" stroke-linejoin="miter" stroke-linecap="square" stroke-miterlimit="3"/><line x1="475.768" y1="82.663" x2="476.906" y2="71.845" vector-effect="non-scaling-stroke" stroke-width="0.65" stroke="rgb(255,157,69)" stroke-linejoin="miter" stroke-linecap="square" stroke-miterlimit="3"/><line x1="463.668" y1="197.793" x2="464.806" y2="186.975" vector-effect="non-scaling-stroke" stroke-width="0.65" stroke="rgb(255,157,69)" stroke-linejoin="miter" stroke-linecap="square" stroke-miterlimit="3"/><path d=" M 515.737 135.032 C 515.737 159.865 495.605 179.997 470.771 179.997 C 445.937 179.997 425.805 159.865 425.805 135.032 C 425.805 110.198 445.937 90.066 470.771 90.066 C 495.605 90.066 515.737 110.198 515.737 135.032 Z " fill="rgb(255,157,69)"/><path d=" M 651.864 351.283 C 651.864 351.283 622.554 369.445 598.42 393.53" fill="none" vector-effect="non-scaling-stroke" stroke-width="0.841" stroke="rgb(12,48,105)" stroke-linejoin="miter" stroke-linecap="square" stroke-miterlimit="3"/><path d=" M 631.49 365.367 C 631.49 365.367 646.153 365.405 653.856 363.438 C 661.558 361.47 662.798 351.626 657.515 346.802 C 652.233 341.975 646.424 342.563 643.125 345.739 C 637.842 350.825 631.49 365.367 631.49 365.367 Z " fill="none" vector-effect="non-scaling-stroke" stroke-width="0.841" stroke="rgb(12,48,105)" stroke-linejoin="miter" stroke-linecap="square" stroke-miterlimit="3"/><path d=" M 622.378 372.34 C 622.378 372.34 621.866 358.689 621.971 352.382" fill="none" vector-effect="non-scaling-stroke" stroke-width="0.841" stroke="rgb(12,48,105)" stroke-linejoin="miter" stroke-linecap="square" stroke-miterlimit="3"/><path d=" M 622.191 366.711 C 622.191 366.711 627.681 359.172 628.89 351.701 C 630.098 344.23 626.585 341.895 621.678 342.406 C 616.773 342.919 614.191 345.898 614.947 351.789 C 615.787 358.333 622.191 366.711 622.191 366.711 Z " fill="none" vector-effect="non-scaling-stroke" stroke-width="0.841" stroke="rgb(12,48,105)" stroke-linejoin="miter" stroke-linecap="square" stroke-miterlimit="3"/><path d=" M 618.706 375.494 C 618.706 375.494 632.345 376.284 638.611 376.989" fill="none" vector-effect="non-scaling-stroke" stroke-width="0.841" stroke="rgb(12,48,105)" stroke-linejoin="miter" stroke-linecap="square" stroke-miterlimit="3"/><path d=" M 624.327 375.844 C 624.327 375.844 631.308 382.027 638.631 383.941 C 645.953 385.855 648.612 382.58 648.569 377.648 C 648.527 372.715 645.807 369.861 639.87 370.053 C 633.276 370.266 624.327 375.844 624.327 375.844 Z " fill="none" vector-effect="non-scaling-stroke" stroke-width="0.841" stroke="rgb(12,48,105)" stroke-linejoin="miter" stroke-linecap="square" stroke-miterlimit="3"/><path d=" M 150.632 303.479 C 150.632 303.479 153.019 337.876 163.058 370.461" fill="none" vector-effect="non-scaling-stroke" stroke-width="0.841" stroke="rgb(12,48,105)" stroke-linejoin="miter" stroke-linecap="square" stroke-miterlimit="3"/><path d=" M 153.581 328.071 C 153.581 328.071 160.458 315.121 162.312 307.389 C 164.167 299.659 156.038 293.969 149.305 296.389 C 142.573 298.81 140.381 304.221 141.65 308.622 C 143.683 315.668 153.581 328.071 153.581 328.071 Z " fill="none" vector-effect="non-scaling-stroke" stroke-width="0.841" stroke="rgb(12,48,105)" stroke-linejoin="miter" stroke-linecap="square" stroke-miterlimit="3"/><path d=" M 155.497 339.384 C 155.497 339.384 143.184 333.466 137.656 330.431" fill="none" vector-effect="non-scaling-stroke" stroke-width="0.841" stroke="rgb(12,48,105)" stroke-linejoin="miter" stroke-linecap="square" stroke-miterlimit="3"/><path d=" M 150.432 336.922 C 150.432 336.922 146.326 328.549 140.282 323.993 C 134.238 319.439 130.533 321.456 128.697 326.034 C 126.86 330.612 128.29 334.286 133.854 336.366 C 140.034 338.677 150.432 336.922 150.432 336.922 Z " fill="none" vector-effect="non-scaling-stroke" stroke-width="0.841" stroke="rgb(12,48,105)" stroke-linejoin="miter" stroke-linecap="square" stroke-miterlimit="3"/><path d=" M 156.572 344.103 C 156.572 344.103 163.635 332.41 167.183 327.196" fill="none" vector-effect="non-scaling-stroke" stroke-width="0.841" stroke="rgb(12,48,105)" stroke-linejoin="miter" stroke-linecap="square" stroke-miterlimit="3"/><path d=" M 159.506 339.295 C 159.506 339.295 168.232 336.005 173.342 330.422 C 178.452 324.839 176.796 320.959 172.413 318.695 C 168.03 316.431 164.237 317.505 161.637 322.846 C 158.749 328.777 159.506 339.295 159.506 339.295 Z " fill="none" vector-effect="non-scaling-stroke" stroke-width="0.841" stroke="rgb(12,48,105)" stroke-linejoin="miter" stroke-linecap="square" stroke-miterlimit="3"/></g><linearGradient id="_lgradient_0" x1="-0.03367474303755813" y1="0.5835779170842947" x2="0.9973077587288763" y2="0.4403570680510729" gradientTransform="matrix(34.766,0,0,28.017,597.277,295.48)" gradientUnits="userSpaceOnUse"><stop offset="0%" stop-opacity="1" style="stop-color:rgb(255,165,38)"/><stop offset="10%" stop-opacity="1" style="stop-color:rgb(255,161,38)"/><stop offset="20%" stop-opacity="1" style="stop-color:rgb(255,154,38)"/><stop offset="30.000000000000004%" stop-opacity="1" style="stop-color:rgb(255,146,38)"/><stop offset="40%" stop-opacity="1" style="stop-color:rgb(255,139,38)"/><stop offset="50%" stop-opacity="1" style="stop-color:rgb(255,132,38)"/><stop offset="60%" stop-opacity="1" style="stop-color:rgb(255,125,38)"/><stop offset="70%" stop-opacity="1" style="stop-color:rgb(255,118,38)"/><stop offset="80%" stop-opacity="1" style="stop-color:rgb(255,110,38)"/><stop offset="89.99999999999999%" stop-opacity="1" style="stop-color:rgb(255,103,38)"/><stop offset="99.99999999999999%" stop-opacity="1" style="stop-color:rgb(255,96,38)"/></linearGradient><path d=" M 609.874 300.993 C 605.681 306.198 597.277 322.29 597.277 322.29 L 597.277 322.29 C 597.277 322.29 610.913 324.591 619.176 322.84 L 619.176 322.84 C 627.437 321.088 635.136 313.825 630.788 303.626 L 630.788 303.626 C 628.342 297.888 624.356 295.48 620.286 295.48 L 620.286 295.48 C 616.497 295.48 612.635 297.566 609.874 300.993 Z " fill="url(#_lgradient_0)"/><linearGradient id="_lgradient_1" x1="0.030941958803506253" y1="0.5491598639839728" x2="1.0277595659835583" y2="0.48029404012755084" gradientTransform="matrix(21.868,0,0,35.437,564.142,283.057)" gradientUnits="userSpaceOnUse"><stop offset="0%" stop-opacity="1" style="stop-color:rgb(255,165,38)"/><stop offset="10%" stop-opacity="1" style="stop-color:rgb(255,161,38)"/><stop offset="20%" stop-opacity="1" style="stop-color:rgb(255,154,38)"/><stop offset="30.000000000000004%" stop-opacity="1" style="stop-color:rgb(255,146,38)"/><stop offset="40%" stop-opacity="1" style="stop-color:rgb(255,139,38)"/><stop offset="50%" stop-opacity="1" style="stop-color:rgb(255,132,38)"/><stop offset="60%" stop-opacity="1" style="stop-color:rgb(255,125,38)"/><stop offset="70%" stop-opacity="1" style="stop-color:rgb(255,118,38)"/><stop offset="80%" stop-opacity="1" style="stop-color:rgb(255,110,38)"/><stop offset="89.99999999999999%" stop-opacity="1" style="stop-color:rgb(255,103,38)"/><stop offset="99.99999999999999%" stop-opacity="1" style="stop-color:rgb(255,96,38)"/></linearGradient><path d=" M 571.337 284.342 C 566.189 286.927 562.279 292.619 565.071 301.024 L 565.071 301.024 C 567.864 309.429 584.687 318.494 584.687 318.494 L 584.687 318.494 C 584.687 318.494 586.878 299.997 585.621 291.295 L 585.621 291.295 C 584.757 285.323 580.778 283.057 576.702 283.057 L 576.702 283.057 C 574.838 283.057 572.953 283.531 571.337 284.342 Z " fill="url(#_lgradient_1)"/><linearGradient id="_lgradient_2" x1="-0.004652663385527944" y1="0.6015866252446855" x2="1.0003719357879746" y2="0.44585645598091617" gradientTransform="matrix(35.647,0,0,25.755,589.389,330.085)" gradientUnits="userSpaceOnUse"><stop offset="0%" stop-opacity="1" style="stop-color:rgb(255,165,38)"/><stop offset="10%" stop-opacity="1" style="stop-color:rgb(255,161,38)"/><stop offset="20%" stop-opacity="1" style="stop-color:rgb(255,154,38)"/><stop offset="30.000000000000004%" stop-opacity="1" style="stop-color:rgb(255,146,38)"/><stop offset="40%" stop-opacity="1" style="stop-color:rgb(255,139,38)"/><stop offset="50%" stop-opacity="1" style="stop-color:rgb(255,132,38)"/><stop offset="60%" stop-opacity="1" style="stop-color:rgb(255,125,38)"/><stop offset="70%" stop-opacity="1" style="stop-color:rgb(255,118,38)"/><stop offset="80%" stop-opacity="1" style="stop-color:rgb(255,110,38)"/><stop offset="89.99999999999999%" stop-opacity="1" style="stop-color:rgb(255,103,38)"/><stop offset="99.99999999999999%" stop-opacity="1" style="stop-color:rgb(255,96,38)"/></linearGradient><path d=" M 608.201 331.474 C 602.028 334.598 589.389 347.061 589.389 347.061 L 589.389 347.061 C 589.389 347.061 603.223 357.13 613.014 355.701 L 613.014 355.701 C 622.805 354.274 626.076 347.937 624.758 339.13 L 624.758 339.13 C 623.825 332.893 619.008 330.084 614.083 330.085 L 614.083 330.085 C 612.053 330.085 610.003 330.562 608.201 331.474 Z " fill="url(#_lgradient_2)"/><linearGradient id="_lgradient_3" x1="0.015404933222168182" y1="0.5619603540310631" x2="0.939745095087634" y2="0.48225657264868893" gradientTransform="matrix(22.365,0,0,29.037,554.097,311.86)" gradientUnits="userSpaceOnUse"><stop offset="0%" stop-opacity="1" style="stop-color:rgb(255,165,38)"/><stop offset="10%" stop-opacity="1" style="stop-color:rgb(255,161,38)"/><stop offset="20%" stop-opacity="1" style="stop-color:rgb(255,154,38)"/><stop offset="30.000000000000004%" stop-opacity="1" style="stop-color:rgb(255,146,38)"/><stop offset="40%" stop-opacity="1" style="stop-color:rgb(255,139,38)"/><stop offset="50%" stop-opacity="1" style="stop-color:rgb(255,132,38)"/><stop offset="60%" stop-opacity="1" style="stop-color:rgb(255,125,38)"/><stop offset="70%" stop-opacity="1" style="stop-color:rgb(255,118,38)"/><stop offset="80%" stop-opacity="1" style="stop-color:rgb(255,110,38)"/><stop offset="89.99999999999999%" stop-opacity="1" style="stop-color:rgb(255,103,38)"/><stop offset="99.99999999999999%" stop-opacity="1" style="stop-color:rgb(255,96,38)"/></linearGradient><path d=" M 559.042 314.064 C 554.115 317.898 552.277 325.959 556.285 331.038 L 556.285 331.038 C 560.296 336.118 576.462 340.897 576.462 340.897 L 576.462 340.897 C 576.462 340.897 576.026 327.502 573.446 319.277 L 573.446 319.277 C 571.824 314.105 568.494 311.86 565.02 311.86 L 565.02 311.86 C 562.971 311.86 560.871 312.642 559.042 314.064 Z " fill="url(#_lgradient_3)"/><linearGradient id="_lgradient_4" x1="0.015277117731830714" y1="0.5274362315404524" x2="1.0214138492079883" y2="0.4533288989422264" gradientTransform="matrix(31.637,0,0,48.086,586.357,251.775)" gradientUnits="userSpaceOnUse"><stop offset="0%" stop-opacity="1" style="stop-color:rgb(255,165,38)"/><stop offset="10%" stop-opacity="1" style="stop-color:rgb(255,161,38)"/><stop offset="20%" stop-opacity="1" style="stop-color:rgb(255,154,38)"/><stop offset="30.000000000000004%" stop-opacity="1" style="stop-color:rgb(255,146,38)"/><stop offset="40%" stop-opacity="1" style="stop-color:rgb(255,139,38)"/><stop offset="50%" stop-opacity="1" style="stop-color:rgb(255,132,38)"/><stop offset="60%" stop-opacity="1" style="stop-color:rgb(255,125,38)"/><stop offset="70%" stop-opacity="1" style="stop-color:rgb(255,118,38)"/><stop offset="80%" stop-opacity="1" style="stop-color:rgb(255,110,38)"/><stop offset="89.99999999999999%" stop-opacity="1" style="stop-color:rgb(255,103,38)"/><stop offset="99.99999999999999%" stop-opacity="1" style="stop-color:rgb(255,96,38)"/></linearGradient><path d=" M 586.416 273.16 C 587.103 283.254 596.012 299.861 596.012 299.861 L 596.012 299.861 C 596.012 299.861 604.534 292.801 613.117 282.553 L 613.117 282.553 C 621.698 272.305 619.06 253.667 604.38 251.911 L 604.38 251.911 C 603.615 251.819 602.876 251.775 602.163 251.775 L 602.163 251.775 C 590.474 251.774 585.767 263.645 586.416 273.16 Z " fill="url(#_lgradient_4)"/><clipPath id="_clipPath_c3v9Cq52CzFzyZNZwnBhYmNjCfnKRMSW"><path d=" M 0 0 L 750 0 L 750 500 L 0 500 L 0 0 Z " fill="rgb(255,255,255)"/></clipPath><g clip-path="url(#_clipPath_c3v9Cq52CzFzyZNZwnBhYmNjCfnKRMSW)"><path d=" M 602.127 263.385 C 602.127 263.385 598.173 316.951 566.689 387.296" fill="none" vector-effect="non-scaling-stroke" stroke-width="1.045" stroke="rgb(12,48,105)" stroke-linejoin="miter" stroke-linecap="square" stroke-miterlimit="3"/><path d=" M 622.622 308.853 C 610.852 315.975 589.208 326.195 589.208 326.195 C 589.208 326.195 578.684 307.801 575.209 296.748" fill="none" vector-effect="non-scaling-stroke" stroke-width="1.045" stroke="rgb(12,48,105)" stroke-linejoin="miter" stroke-linecap="square" stroke-miterlimit="3"/><path d=" M 614.559 342.836 C 600.037 345.456 582.19 348.188 582.19 348.188 C 582.19 348.188 569.501 332.435 562.869 322.065" fill="none" vector-effect="non-scaling-stroke" stroke-width="1.045" stroke="rgb(12,48,105)" stroke-linejoin="miter" stroke-linecap="square" stroke-miterlimit="3"/></g><linearGradient id="_lgradient_5" x1="0.9582367602011146" y1="0.3745330623073251" x2="0.003556426731764706" y2="0.5759701069160706" gradientTransform="matrix(37.362,0,0,26.541,62.105,326.88)" gradientUnits="userSpaceOnUse"><stop offset="0%" stop-opacity="1" style="stop-color:rgb(255,165,38)"/><stop offset="10%" stop-opacity="1" style="stop-color:rgb(255,161,38)"/><stop offset="20%" stop-opacity="1" style="stop-color:rgb(255,154,38)"/><stop offset="30.000000000000004%" stop-opacity="1" style="stop-color:rgb(255,146,38)"/><stop offset="40%" stop-opacity="1" style="stop-color:rgb(255,139,38)"/><stop offset="50%" stop-opacity="1" style="stop-color:rgb(255,132,38)"/><stop offset="60%" stop-opacity="1" style="stop-color:rgb(255,125,38)"/><stop offset="70%" stop-opacity="1" style="stop-color:rgb(255,118,38)"/><stop offset="80%" stop-opacity="1" style="stop-color:rgb(255,110,38)"/><stop offset="89.99999999999999%" stop-opacity="1" style="stop-color:rgb(255,103,38)"/><stop offset="99.99999999999999%" stop-opacity="1" style="stop-color:rgb(255,96,38)"/></linearGradient><path d=" M 62.281 337.817 C 60.705 348.792 70.014 353.829 78.448 353.395 L 78.448 353.395 C 86.882 352.963 99.467 347.229 99.467 347.229 L 99.467 347.229 C 99.467 347.229 87.205 333.841 81.813 329.891 L 81.813 329.891 C 79.153 327.942 76.09 326.88 73.181 326.88 L 73.181 326.88 C 68.037 326.88 63.375 330.202 62.281 337.817 Z " fill="url(#_lgradient_5)"/><linearGradient id="_lgradient_6" x1="1.0262961862828623" y1="0.4398387517034621" x2="0.061905324160537845" y2="0.5284588198419192" gradientTransform="matrix(22.494,0,0,36.69,102.659,303.632)" gradientUnits="userSpaceOnUse"><stop offset="0%" stop-opacity="1" style="stop-color:rgb(255,165,38)"/><stop offset="10%" stop-opacity="1" style="stop-color:rgb(255,161,38)"/><stop offset="20%" stop-opacity="1" style="stop-color:rgb(255,154,38)"/><stop offset="30.000000000000004%" stop-opacity="1" style="stop-color:rgb(255,146,38)"/><stop offset="40%" stop-opacity="1" style="stop-color:rgb(255,139,38)"/><stop offset="50%" stop-opacity="1" style="stop-color:rgb(255,132,38)"/><stop offset="60%" stop-opacity="1" style="stop-color:rgb(255,125,38)"/><stop offset="70%" stop-opacity="1" style="stop-color:rgb(255,118,38)"/><stop offset="80%" stop-opacity="1" style="stop-color:rgb(255,110,38)"/><stop offset="89.99999999999999%" stop-opacity="1" style="stop-color:rgb(255,103,38)"/><stop offset="99.99999999999999%" stop-opacity="1" style="stop-color:rgb(255,96,38)"/></linearGradient><path d=" M 102.755 314.277 C 103.778 323.01 110.656 340.322 110.656 340.322 L 110.656 340.322 C 110.656 340.322 124.58 327.232 125.115 318.392 L 125.115 318.392 C 125.651 309.551 120.407 305.057 114.768 303.884 L 114.768 303.884 C 113.969 303.718 113.135 303.632 112.295 303.632 L 112.295 303.632 C 107.201 303.632 101.876 306.781 102.755 314.277 Z " fill="url(#_lgradient_6)"/><linearGradient id="_lgradient_7" x1="0.9939036603691371" y1="0.3596283516568999" x2="0.01177087857897785" y2="0.5727346110097927" gradientTransform="matrix(36.301,0,0,25.076,77.163,358.643)" gradientUnits="userSpaceOnUse"><stop offset="0%" stop-opacity="1" style="stop-color:rgb(255,165,38)"/><stop offset="10%" stop-opacity="1" style="stop-color:rgb(255,161,38)"/><stop offset="20%" stop-opacity="1" style="stop-color:rgb(255,154,38)"/><stop offset="30.000000000000004%" stop-opacity="1" style="stop-color:rgb(255,146,38)"/><stop offset="40%" stop-opacity="1" style="stop-color:rgb(255,139,38)"/><stop offset="50%" stop-opacity="1" style="stop-color:rgb(255,132,38)"/><stop offset="60%" stop-opacity="1" style="stop-color:rgb(255,125,38)"/><stop offset="70%" stop-opacity="1" style="stop-color:rgb(255,118,38)"/><stop offset="80%" stop-opacity="1" style="stop-color:rgb(255,110,38)"/><stop offset="89.99999999999999%" stop-opacity="1" style="stop-color:rgb(255,103,38)"/><stop offset="99.99999999999999%" stop-opacity="1" style="stop-color:rgb(255,96,38)"/></linearGradient><path d=" M 77.245 370.573 C 78.239 379.423 83.029 384.705 92.858 383.565 L 92.858 383.565 C 102.686 382.425 113.464 369.136 113.464 369.136 L 113.464 369.136 C 113.464 369.136 98.043 360.345 91.274 358.915 L 91.274 358.915 C 90.41 358.733 89.522 358.643 88.632 358.643 L 88.632 358.643 C 82.549 358.643 76.379 362.853 77.245 370.573 Z " fill="url(#_lgradient_7)"/><linearGradient id="_lgradient_8" x1="1.011508846641151" y1="0.4260248489691545" x2="0.005627026497371901" y2="0.5245877832827244" gradientTransform="matrix(20.452,0,0,31.285,121.688,328.567)" gradientUnits="userSpaceOnUse"><stop offset="0%" stop-opacity="1" style="stop-color:rgb(255,165,38)"/><stop offset="10%" stop-opacity="1" style="stop-color:rgb(255,161,38)"/><stop offset="20%" stop-opacity="1" style="stop-color:rgb(255,154,38)"/><stop offset="30.000000000000004%" stop-opacity="1" style="stop-color:rgb(255,146,38)"/><stop offset="40%" stop-opacity="1" style="stop-color:rgb(255,139,38)"/><stop offset="50%" stop-opacity="1" style="stop-color:rgb(255,132,38)"/><stop offset="60%" stop-opacity="1" style="stop-color:rgb(255,125,38)"/><stop offset="70%" stop-opacity="1" style="stop-color:rgb(255,118,38)"/><stop offset="80%" stop-opacity="1" style="stop-color:rgb(255,110,38)"/><stop offset="89.99999999999999%" stop-opacity="1" style="stop-color:rgb(255,103,38)"/><stop offset="99.99999999999999%" stop-opacity="1" style="stop-color:rgb(255,96,38)"/></linearGradient><path d=" M 121.72 338.186 C 121.344 346.798 124.369 359.852 124.369 359.852 L 124.369 359.852 C 124.369 359.852 138.761 351.074 141.329 345.135 L 141.329 345.135 C 143.896 339.194 140.045 331.877 134.297 329.442 L 134.297 329.442 C 132.932 328.863 131.527 328.567 130.172 328.567 L 130.172 328.567 C 125.826 328.567 122.006 331.62 121.72 338.186 Z " fill="url(#_lgradient_8)"/><linearGradient id="_lgradient_9" x1="1.003524402742176" y1="0.46456047261021993" x2="0.03962211186623166" y2="0.5690976911405878" gradientTransform="matrix(32.862,0,0,45.418,64.954,279.812)" gradientUnits="userSpaceOnUse"><stop offset="0%" stop-opacity="1" style="stop-color:rgb(255,165,38)"/><stop offset="10%" stop-opacity="1" style="stop-color:rgb(255,161,38)"/><stop offset="20%" stop-opacity="1" style="stop-color:rgb(255,154,38)"/><stop offset="30.000000000000004%" stop-opacity="1" style="stop-color:rgb(255,146,38)"/><stop offset="40%" stop-opacity="1" style="stop-color:rgb(255,139,38)"/><stop offset="50%" stop-opacity="1" style="stop-color:rgb(255,132,38)"/><stop offset="60%" stop-opacity="1" style="stop-color:rgb(255,125,38)"/><stop offset="70%" stop-opacity="1" style="stop-color:rgb(255,118,38)"/><stop offset="80%" stop-opacity="1" style="stop-color:rgb(255,110,38)"/><stop offset="89.99999999999999%" stop-opacity="1" style="stop-color:rgb(255,103,38)"/><stop offset="99.99999999999999%" stop-opacity="1" style="stop-color:rgb(255,96,38)"/></linearGradient><path d=" M 74.492 281.048 C 60.759 286.524 63.005 305.212 73.935 312.906 L 73.935 312.906 C 84.865 320.601 94.918 325.23 94.918 325.23 L 94.918 325.23 C 94.918 325.23 99.253 306.89 97.32 296.958 L 97.32 296.958 C 95.718 288.732 89.652 279.811 80.539 279.812 L 80.539 279.812 C 78.651 279.812 76.63 280.196 74.492 281.048 Z " fill="url(#_lgradient_9)"/><clipPath id="_clipPath_m1xTUU5lzbcvUHtiMxrWzDaxGwhl6Lfd"><path d=" M 0 0 L 750 0 L 750 500 L 0 500 L 0 0 Z " fill="rgb(255,255,255)"/></clipPath><g clip-path="url(#_clipPath_m1xTUU5lzbcvUHtiMxrWzDaxGwhl6Lfd)"><path d=" M 79.623 291.556 C 79.623 291.556 93.341 337.44 141.867 397.313" fill="none" vector-effect="non-scaling-stroke" stroke-width="1.045" stroke="rgb(12,48,105)" stroke-linejoin="miter" stroke-linecap="square" stroke-miterlimit="3"/><path d=" M 71.518 340.766 C 84.724 344.62 108.269 348.926 108.269 348.926 C 108.269 348.926 113.705 328.444 114.219 316.868" fill="none" vector-effect="non-scaling-stroke" stroke-width="1.045" stroke="rgb(12,48,105)" stroke-linejoin="miter" stroke-linecap="square" stroke-miterlimit="3"/><path d=" M 88.054 371.531 C 102.761 370.326 120.71 368.373 120.71 368.373 C 120.71 368.373 128.917 349.885 132.659 338.158" fill="none" vector-effect="non-scaling-stroke" stroke-width="1.045" stroke="rgb(12,48,105)" stroke-linejoin="miter" stroke-linecap="square" stroke-miterlimit="3"/></g><linearGradient id="_lgradient_10" x1="0.5000001123935216" y1="0.7974544706729612" x2="0.5000001123935217" y2="-0.20254552932703884" gradientTransform="matrix(152.144,0,0,62.485,474.258,340.456)" gradientUnits="userSpaceOnUse"><stop offset="0%" stop-opacity="1" style="stop-color:rgb(106,184,131)"/><stop offset="10%" stop-opacity="1" style="stop-color:rgb(117,184,131)"/><stop offset="20%" stop-opacity="1" style="stop-color:rgb(129,184,131)"/><stop offset="30.000000000000004%" stop-opacity="1" style="stop-color:rgb(140,184,131)"/><stop offset="40%" stop-opacity="1" style="stop-color:rgb(151,184,131)"/><stop offset="50%" stop-opacity="1" style="stop-color:rgb(163,184,131)"/><stop offset="60%" stop-opacity="1" style="stop-color:rgb(174,184,131)"/><stop offset="70%" stop-opacity="1" style="stop-color:rgb(185,184,131)"/><stop offset="80%" stop-opacity="1" style="stop-color:rgb(196,184,131)"/><stop offset="89.99999999999999%" stop-opacity="1" style="stop-color:rgb(208,184,131)"/><stop offset="99.99999999999999%" stop-opacity="1" style="stop-color:rgb(219,184,131)"/></linearGradient><path d=" M 478.395 344.758 L 474.258 402.941 L 626.402 402.941 C 624.12 378.604 597.12 363.772 584.571 371.758 L 584.571 371.758 C 575.064 347.8 545.402 334.111 523.745 347.582 L 523.745 347.582 C 512.125 342.133 502.737 340.456 495.583 340.456 L 495.583 340.456 C 484.125 340.457 478.395 344.758 478.395 344.758 Z " fill="url(#_lgradient_10)"/><linearGradient id="_lgradient_11" x1="0.4999995524182962" y1="1.0543162087112576" x2="0.49999955241829624" y2="0.05431620871125764" gradientTransform="matrix(236.158,0,0,82.468,87.919,320.473)" gradientUnits="userSpaceOnUse"><stop offset="0%" stop-opacity="1" style="stop-color:rgb(106,184,131)"/><stop offset="10%" stop-opacity="1" style="stop-color:rgb(117,184,131)"/><stop offset="20%" stop-opacity="1" style="stop-color:rgb(129,184,131)"/><stop offset="30.000000000000004%" stop-opacity="1" style="stop-color:rgb(140,184,131)"/><stop offset="40%" stop-opacity="1" style="stop-color:rgb(151,184,131)"/><stop offset="50%" stop-opacity="1" style="stop-color:rgb(163,184,131)"/><stop offset="60%" stop-opacity="1" style="stop-color:rgb(174,184,131)"/><stop offset="70%" stop-opacity="1" style="stop-color:rgb(185,184,131)"/><stop offset="80%" stop-opacity="1" style="stop-color:rgb(196,184,131)"/><stop offset="89.99999999999999%" stop-opacity="1" style="stop-color:rgb(208,184,131)"/><stop offset="99.99999999999999%" stop-opacity="1" style="stop-color:rgb(219,184,131)"/></linearGradient><path d=" M 164.356 344.378 C 154.089 358.449 139.258 367.956 115.681 377.748 L 115.681 377.748 C 92.102 387.54 87.919 402.941 87.919 402.941 L 87.919 402.941 L 324.077 402.941 C 320.274 358.829 286.808 336.835 258.286 340.492 L 258.286 340.492 C 229.766 344.15 234.709 334.491 214.555 323.808 L 214.555 323.808 C 210.157 321.477 205.78 320.473 201.513 320.473 L 201.513 320.473 C 186.225 320.475 172.384 333.377 164.356 344.378 Z " fill="url(#_lgradient_11)"/><clipPath id="_clipPath_kAwKjsN4KPTFcVtCMquJ7ootkac5569x"><path d=" M 0 0 L 750 0 L 750 500 L 0 500 L 0 0 Z " fill="rgb(255,255,255)"/></clipPath><g clip-path="url(#_clipPath_kAwKjsN4KPTFcVtCMquJ7ootkac5569x)"><path d=" M 473.528 144.634 L 269.321 144.634 C 266.722 144.634 264.615 142.527 264.615 139.928 C 264.615 137.329 266.722 135.222 269.321 135.222 L 473.528 135.222 L 473.528 144.634 Z " fill="rgb(120,99,55)"/><path d=" M 476.048 141.837 L 270.327 141.837 C 269.273 141.837 268.419 140.983 268.419 139.928 C 268.419 138.874 269.273 138.019 270.327 138.019 L 476.048 138.019 L 476.048 141.837 Z " fill="rgb(150,124,69)"/><path d=" M 269.321 144.634 C 266.771 144.634 264.707 142.602 264.63 140.071 L 264.615 140.071 L 264.615 403.988 L 483.172 403.988 L 483.172 144.634 L 269.321 144.634 Z " fill="rgb(235,195,108)"/><path d=" M 268.418 139.928 L 268.418 144.634 L 478.756 144.634 L 478.756 141.837 L 270.327 141.837 C 269.272 141.837 268.418 140.982 268.418 139.928 Z " fill="rgb(199,165,91)"/></g><text transform="matrix(2.58,0,0,2.58,275.301,191.942)" style="font-family:'Open Sans';font-weight:400;font-size:16px;font-style:normal;font-variant-ligatures:none;fill:[Object GRGBColor];stroke:none;">NEWS</text><clipPath id="_clipPath_Z02fvnl1tXqLlBW0ZZKVs3T6EwqF2MFd"><path d=" M 0 0 L 750 0 L 750 500 L 0 500 L 0 0 Z " fill="rgb(255,255,255)"/></clipPath><g clip-path="url(#_clipPath_Z02fvnl1tXqLlBW0ZZKVs3T6EwqF2MFd)"><path d=" M 470.771 163.763 L 419.147 163.763 L 419.147 160.721 L 470.771 160.721 L 470.771 163.763 Z " fill="rgb(199,165,91)"/><path d=" M 470.771 188.481 L 419.147 188.481 L 419.147 185.439 L 470.771 185.439 L 470.771 188.481 Z " fill="rgb(199,165,91)"/><path d=" M 470.771 180.514 L 419.147 180.514 L 419.147 168.686 L 470.771 168.686 L 470.771 180.514 Z " fill="rgb(199,165,91)"/><path d=" M 470.344 223.068 L 277.442 223.068 L 277.442 210.519 L 470.344 210.519 L 470.344 223.068 Z " fill="rgb(199,165,91)"/><line x1="264.615" y1="233.62" x2="483.171" y2="233.62" vector-effect="non-scaling-stroke" stroke-width="1.158" stroke="rgb(120,99,55)" stroke-linejoin="miter" stroke-linecap="square" stroke-miterlimit="3"/><line x1="373.894" y1="243.888" x2="373.894" y2="393.34" vector-effect="non-scaling-stroke" stroke-width="1.158" stroke="rgb(120,99,55)" stroke-linejoin="miter" stroke-linecap="square" stroke-miterlimit="3"/><line x1="359.286" y1="248.452" x2="279.223" y2="248.452" vector-effect="non-scaling-stroke" stroke-width="1.158" stroke="rgb(120,99,55)" stroke-linejoin="miter" stroke-linecap="square" stroke-miterlimit="3"/><line x1="359.286" y1="256.097" x2="279.223" y2="256.097" vector-effect="non-scaling-stroke" stroke-width="1.158" stroke="rgb(120,99,55)" stroke-linejoin="miter" stroke-linecap="square" stroke-miterlimit="3"/><line x1="468.564" y1="248.452" x2="388.501" y2="248.452" vector-effect="non-scaling-stroke" stroke-width="1.158" stroke="rgb(120,99,55)" stroke-linejoin="miter" stroke-linecap="square" stroke-miterlimit="3"/><line x1="468.564" y1="256.097" x2="388.501" y2="256.097" vector-effect="non-scaling-stroke" stroke-width="1.158" stroke="rgb(120,99,55)" stroke-linejoin="miter" stroke-linecap="square" stroke-miterlimit="3"/><line x1="468.564" y1="368.982" x2="388.501" y2="368.982" vector-effect="non-scaling-stroke" stroke-width="1.158" stroke="rgb(120,99,55)" stroke-linejoin="miter" stroke-linecap="square" stroke-miterlimit="3"/><line x1="468.564" y1="376.627" x2="388.501" y2="376.627" vector-effect="non-scaling-stroke" stroke-width="1.158" stroke="rgb(120,99,55)" stroke-linejoin="miter" stroke-linecap="square" stroke-miterlimit="3"/><line x1="359.286" y1="348.628" x2="279.223" y2="348.628" vector-effect="non-scaling-stroke" stroke-width="1.158" stroke="rgb(120,99,55)" stroke-linejoin="miter" stroke-linecap="square" stroke-miterlimit="3"/><line x1="359.286" y1="356.274" x2="279.223" y2="356.274" vector-effect="non-scaling-stroke" stroke-width="1.158" stroke="rgb(120,99,55)" stroke-linejoin="miter" stroke-linecap="square" stroke-miterlimit="3"/><path d=" M 359.286 337.881 L 279.223 337.881 L 279.223 264.993 L 359.286 264.993 L 359.286 337.881 Z " fill="rgb(255,250,240)"/><path d=" M 463.632 301.438 C 463.632 320.823 447.917 336.538 428.532 336.538 C 409.147 336.538 393.432 320.823 393.432 301.438 C 393.432 282.052 409.147 266.337 428.532 266.337 C 447.917 266.337 463.632 282.052 463.632 301.438 Z " fill="rgb(255,250,240)"/><path d=" M 414.931 356.274 L 388.501 356.274 L 388.501 348.628 L 414.931 348.628 L 414.931 356.274 Z " fill="rgb(12,48,105)"/><path d=" M 468.564 356.274 L 421.871 356.274 L 421.871 348.628 L 468.564 348.628 L 468.564 356.274 Z " fill="rgb(12,48,105)"/><path d=" M 359.286 378.794 L 279.223 378.794 L 279.223 366.814 L 359.286 366.814 L 359.286 378.794 Z " fill="rgb(199,165,91)"/><path d=" M 483.172 200.536 L 269.321 200.536 C 266.722 200.536 264.616 198.429 264.616 195.83 L 264.616 195.83" fill="none" vector-effect="non-scaling-stroke" stroke-width="1.158" stroke="rgb(120,99,55)" stroke-linejoin="miter" stroke-linecap="square" stroke-miterlimit="3"/><path d=" M 483.172 198.182 L 269.321 198.182 C 266.722 198.182 264.616 196.075 264.616 193.476" fill="none" vector-effect="non-scaling-stroke" stroke-width="1.158" stroke="rgb(120,99,55)" stroke-linejoin="miter" stroke-linecap="square" stroke-miterlimit="3"/><path d=" M 346.394 280.738 L 308.102 318.614 L 290.791 302.508 L 279.223 314.537 L 279.223 337.882 L 359.286 337.882 L 359.286 294.676 L 346.394 280.738 Z " fill="rgb(161,193,237)"/><path d=" M 483.883 420.197 C 483.883 422.218 466.981 423.857 446.13 423.857 C 425.279 423.857 408.377 422.218 408.377 420.197 C 408.377 418.176 425.279 416.538 446.13 416.538 C 466.981 416.538 483.883 418.176 483.883 420.197 Z " fill="rgb(206,219,237)"/><path d=" M 576.462 422.029 C 576.462 424.05 566.449 425.688 554.098 425.688 C 541.746 425.688 531.733 424.05 531.733 422.029 C 531.733 420.008 541.746 418.369 554.098 418.369 C 566.449 418.369 576.462 420.008 576.462 422.029 Z " fill="rgb(206,219,237)"/><path d=" M 530.658 408.113 C 530.658 409.282 524.87 410.229 517.73 410.229 C 510.591 410.229 504.803 409.282 504.803 408.113 C 504.803 406.945 510.591 405.998 517.73 405.998 C 524.87 405.998 530.658 406.945 530.658 408.113 Z " fill="rgb(206,219,237)"/><path d=" M 548.744 411.925 L 554.733 416.203 C 554.733 416.203 568.709 418.912 568.424 420.909 C 568.206 422.43 554.084 422.047 547.37 421.779 C 545.462 421.702 543.999 420.068 544.127 418.163 L 544.466 413.089 L 548.744 411.925 Z " fill="rgb(12,48,105)"/><path d=" M 491.13 341.586 L 514.02 400.939 L 509.036 400.939 L 483.561 371.262 L 459.193 389.309 L 459.193 345.054 L 491.13 341.586 Z " fill="rgb(12,48,105)"/><path d=" M 419.78 408.55 C 419.78 408.55 421.871 419.197 442.787 419.197 C 481.291 419.197 513.52 378.127 513.52 378.127 C 513.52 378.127 526.259 395.43 543.753 414.824 L 550.407 413.093 C 550.407 413.093 537.109 335.563 514.28 337.409 C 491.452 339.255 467.458 374.562 467.458 374.562 C 467.458 374.562 423.392 396 419.78 408.55 Z " fill="rgb(22,86,189)"/><path d=" M 520.365 364.437 C 520.365 364.437 520.793 371.282 515.089 376.13" fill="none" vector-effect="non-scaling-stroke" stroke-width="1.158" stroke="rgb(12,48,105)" stroke-linejoin="miter" stroke-linecap="square" stroke-miterlimit="3"/><path d=" M 528.209 362.441 C 528.209 362.441 528.064 372.423 516.514 377.272" fill="none" vector-effect="non-scaling-stroke" stroke-width="1.158" stroke="rgb(12,48,105)" stroke-linejoin="miter" stroke-linecap="square" stroke-miterlimit="3"/></g><path d=" M 419.78 408.55 C 419.78 408.55 420.801 413.707 428.472 416.843 L 428.472 416.843 C 455.539 412.96 467.457 374.562 467.457 374.562 L 467.457 374.562 C 467.457 374.562 423.392 396.001 419.78 408.55 Z " fill="none"/><clipPath id="_clipPath_gjI19OcbEkjSLj2DLA434rYCuBa8rMhJ"><path d=" M 0 0 L 750 0 L 750 500 L 0 500 L 0 0 Z " fill="rgb(255,255,255)"/></clipPath><g clip-path="url(#_clipPath_gjI19OcbEkjSLj2DLA434rYCuBa8rMhJ)"><path d=" M 513.139 400.373 L 516.513 403.796 C 516.513 403.796 525.593 405.888 525.689 407.409 C 525.753 408.441 518.018 408.12 513.039 407.807 C 510.774 407.664 509.065 405.704 509.221 403.439 L 509.431 400.373 L 513.139 400.373 Z " fill="rgb(12,48,105)"/><path d=" M 455.526 392.768 C 455.526 392.768 461.801 391.602 463.703 395.703 C 474.921 385.163 506.724 357.552 514.02 357.762 C 521.315 357.972 524.684 371.262 524.684 371.262 C 524.684 371.262 527.685 373.184 528.209 376.13 C 528.731 379.078 546.834 414.023 546.834 414.023" fill="none" vector-effect="non-scaling-stroke" stroke-width="1.158" stroke="rgb(12,48,105)" stroke-linejoin="miter" stroke-linecap="square" stroke-miterlimit="3"/><path d=" M 514.472 321.023 L 487.09 317.395 L 499.271 264.505 L 526.653 268.132 L 514.472 321.023 Z " fill="rgb(199,165,91)"/><path d=" M 542.933 319.966 L 514.472 321.023 L 526.653 268.132 L 555.114 267.075 L 542.933 319.966 Z " fill="rgb(235,195,108)"/><path d=" M 482.004 313.634 L 517.94 318.483 L 542.897 297.235 C 542.897 297.235 542.588 293.705 544.822 289.533 C 545.892 287.537 548.103 286.682 548.103 286.682 L 547.317 290.389 C 547.317 290.389 550.313 289.819 551.453 285.54 C 551.453 285.54 553.664 293.954 545.748 300.086 C 545.748 300.086 537.002 329.321 520.27 335.976 C 503.537 342.631 481.29 347.004 481.29 347.004 L 482.004 313.634 Z " fill="rgb(255,109,109)"/></g><path d=" M 481.29 347.005 C 481.29 347.005 486.706 345.939 494.198 344.062 L 494.198 344.062 L 507.165 317.028 L 482.003 313.634 L 481.29 347.005 Z " fill="none"/><clipPath id="_clipPath_ZfH3oYPzQVvKte4jRwvZRdCJAFtzoTpA"><path d=" M 0 0 L 750 0 L 750 500 L 0 500 L 0 0 Z " fill="rgb(255,255,255)"/></clipPath><g clip-path="url(#_clipPath_ZfH3oYPzQVvKte4jRwvZRdCJAFtzoTpA)"><path d=" M 471.593 313.634 L 490.845 295.843 C 490.845 295.843 490.988 287.857 496.264 286.431 L 494.228 289.711 L 490.845 302.117 L 483.928 316.273 L 471.593 313.634 Z " fill="rgb(255,109,109)"/></g><path d=" M 490.846 295.843 L 471.594 313.634 L 483.928 316.273 L 490.846 302.118 L 494.228 289.711 L 496.264 286.431 C 490.988 287.857 490.846 295.843 490.846 295.843 Z " fill="none"/><clipPath id="_clipPath_TSidO6t9vCoY1QNFfVMfFNZ8BEHkh5mI"><path d=" M 0 0 L 750 0 L 750 500 L 0 500 L 0 0 Z " fill="rgb(255,255,255)"/></clipPath><g clip-path="url(#_clipPath_TSidO6t9vCoY1QNFfVMfFNZ8BEHkh5mI)"><line x1="525.712" y1="272.221" x2="515.804" y2="315.238" vector-effect="non-scaling-stroke" stroke-width="1.158" stroke="rgb(120,99,55)" stroke-linejoin="miter" stroke-linecap="square" stroke-miterlimit="3"/><path d=" M 461.967 284.72 L 466.031 291.28 L 464.391 291.779 C 464.391 291.779 467.315 297.839 465.604 299.337 C 463.892 300.834 458.473 301.333 458.473 301.333 L 455.265 312.742 L 441.432 315.238 L 448.633 295.629 L 445.995 287.144 L 461.967 284.72 Z " fill="rgb(255,109,109)"/><path d=" M 455.533 296.66 L 445.448 304.306 L 442.872 311.319 C 444.717 311.162 449.581 309.809 458.473 301.333 C 458.473 301.333 455.739 300.119 455.533 296.66 Z " fill="rgb(240,79,79)"/><path d=" M 431.093 325.318 C 431.093 325.318 436.512 313.384 451.343 310.532 C 466.174 307.679 493.983 313.67 493.983 313.67 L 488.278 348.608 L 469.882 349.891 C 469.882 349.891 469.977 354.36 469.739 361.014 L 467.457 374.562 C 443.642 387.682 431.667 413.979 411.128 413.066 C 404.71 412.781 410.986 388.395 415.12 374.562 C 419.256 360.729 427.517 330.558 431.093 325.318 Z " fill="rgb(121,186,130)"/><path d=" M 453.91 290.218 C 455.152 289.461 456.093 290.019 456.707 290.713 C 456.815 287.816 456.335 285.647 456.335 285.647 L 443.642 290.218 C 439.863 293.576 441.789 296.556 441.789 296.556 C 441.789 296.556 429.809 303.615 432.02 307.679 C 436.093 315.167 453.839 299.765 453.839 299.765 C 454.57 298.781 455.114 297.729 455.533 296.659 C 451.366 295.822 452.156 291.286 453.91 290.218 Z " fill="rgb(12,48,105)"/><g opacity="0.679993"><path d=" M 461.967 284.72 L 445.996 287.144 L 446.618 289.146 L 443.642 290.218 C 443.283 290.537 442.989 290.853 442.725 291.163 L 463.933 287.892 L 461.967 284.72 Z " fill="none"/></g><path d=" M 443.642 290.218 L 469.026 283.246 L 461.705 283.246 C 461.705 283.246 455.983 274.982 448.871 277.352 C 442.881 279.348 441.361 285.686 443.642 290.218 Z " fill="rgb(120,99,55)"/><g opacity="0.679993"><path d=" M 444.922 340.194 C 444.922 340.194 438.223 353.543 441.432 365.408 C 444.639 377.268 439.718 395.418 433.485 403.242 C 443.481 394.622 453.41 382.301 467.458 374.562 L 469.74 361.014 C 469.977 354.36 469.882 349.891 469.882 349.891 C 463.464 350.319 446.992 355.352 444.922 340.194 Z " fill="none"/></g><path d=" M 539.01 220.286 L 607.076 220.286 C 620.868 220.286 614.739 208.792 607.076 206.749 C 599.413 204.706 601.201 192.446 587.409 187.594 C 579.753 184.899 571.829 192.702 571.829 192.702 C 571.829 192.702 563.146 189.892 555.484 195.511 C 550.334 199.287 546.446 207.616 539.01 207.771 C 526.75 208.026 521.514 220.286 539.01 220.286 Z " fill="rgb(161,193,237)"/><path d=" M 210.172 123.716 L 298.398 123.716 C 306.574 123.716 312.849 120.864 313.419 113.734 C 313.99 106.603 301.44 107.459 296.021 104.321 C 290.602 101.184 288.891 86.638 278.338 86.068 C 267.785 85.497 268.356 94.054 259.514 95.765 C 250.672 97.476 250.387 81.505 233.845 82.075 C 217.302 82.645 218.919 106.033 210.172 106.033 C 198.003 106.033 194.2 123.716 210.172 123.716 Z " fill="rgb(161,193,237)"/><g opacity="0.679993"><path d=" M 484.667 210.311 C 471.605 211.402 461.089 222.055 460.143 235.127 C 459.609 242.513 462.069 249.309 466.421 254.457 C 467.555 255.802 467.772 257.7 467.071 259.313 L 461.647 271.804 C 461.367 272.45 462.118 273.052 462.687 272.639 L 475.246 263.542 C 476.405 262.703 477.885 262.471 479.255 262.885 C 482.675 263.919 486.377 264.305 490.236 263.834 C 503.032 262.274 513.091 251.608 513.843 238.739 C 514.799 222.37 501.116 208.936 484.667 210.311 Z " fill="none"/></g><path d=" M 483.578 207.993 C 470.516 209.084 460.001 219.737 459.055 232.809 C 458.52 240.195 460.98 246.991 465.332 252.139 C 466.468 253.484 466.683 255.382 465.982 256.995 L 460.558 269.486 C 460.279 270.132 461.029 270.734 461.599 270.321 L 474.158 261.224 C 475.316 260.385 476.797 260.153 478.166 260.567 C 481.587 261.602 485.288 261.986 489.147 261.516 C 501.943 259.956 512.003 249.29 512.755 236.421 C 513.711 220.053 500.027 206.618 483.578 207.993 Z " fill="rgb(12,48,105)"/><g opacity="0.679993"><path d=" M 488.304 238.345 L 487.589 239.059 L 486.68 238.15 C 489.971 233.881 489.745 227.815 485.926 223.997 C 481.769 219.84 474.942 219.929 470.675 224.194 C 466.411 228.46 466.322 235.288 470.479 239.445 C 474.297 243.263 480.363 243.49 484.632 240.199 L 485.542 241.108 L 484.826 241.823 L 496.871 253.867 L 500.349 250.388 L 488.304 238.345 Z " fill="none"/></g><path d=" M 486.714 220.96 C 482.557 216.803 475.729 216.891 471.463 221.156 C 467.197 225.422 467.11 232.25 471.267 236.407 C 475.084 240.225 481.151 240.452 485.42 237.161 L 493.349 245.09 L 495.398 243.043 L 487.468 235.113 C 490.759 230.843 490.531 224.778 486.714 220.96 Z " fill="rgb(255,255,255)"/><path d=" M 484.286 223.387 C 487.137 226.238 487.076 230.92 484.151 233.845 C 481.226 236.769 476.545 236.83 473.694 233.979 C 470.844 231.129 470.904 226.447 473.829 223.522 C 476.754 220.597 481.435 220.536 484.286 223.387 Z " fill="rgb(161,193,237)"/><path d=" M 501.135 247.351 L 497.656 250.83 L 485.613 238.785 L 489.091 235.307 L 501.135 247.351 Z " fill="rgb(161,193,237)"/><g opacity="0.220001"><path d=" M 110.048 157.848 L 173.08 157.848 L 173.08 187.413 L 167.282 187.413 L 167.282 200.133 L 156.564 187.413 L 110.048 187.413 L 110.048 157.848 Z " fill="none"/></g><path d=" M 112.405 157.848 L 175.437 157.848 L 175.437 184.417 L 169.639 184.417 L 169.639 197.136 L 158.92 184.417 L 112.405 184.417 L 112.405 157.848 Z " fill="rgb(255,255,255)"/></g><text transform="matrix(1.073,0,0,1.073,119.082,177.418)" style="font-family:'Open Sans';font-weight:400;font-size:16px;font-style:normal;font-variant-ligatures:none;fill:[Object GRGBColor];stroke:none;">LIVE</text><clipPath id="_clipPath_hSUwlpKIORhwCjEuI0pQlbnkcIqHilbi"><path d=" M 0 0 L 750 0 L 750 500 L 0 500 L 0 0 Z " fill="rgb(255,255,255)"/></clipPath><g clip-path="url(#_clipPath_hSUwlpKIORhwCjEuI0pQlbnkcIqHilbi)"><path d=" M 168.759 170.712 C 168.759 172.76 167.099 174.42 165.051 174.42 C 163.004 174.42 161.343 172.76 161.343 170.712 C 161.343 168.664 163.004 167.004 165.051 167.004 C 167.099 167.004 168.759 168.664 168.759 170.712 Z " fill="rgb(217,39,39)"/><path d=" M 332.719 417.04 C 332.719 423.327 314.227 428.423 291.417 428.423 C 268.606 428.423 250.115 423.327 250.115 417.04 C 250.115 410.753 268.606 405.656 291.417 405.656 C 314.227 405.656 332.719 410.753 332.719 417.04 Z " fill="rgb(206,219,237)"/></g><linearGradient id="_lgradient_12" x1="0.5000034170605012" y1="1.1956479154199045" x2="0.5000034170605013" y2="0.19564791541990445" gradientTransform="matrix(72.577,0,0,20.052,255.128,406.493)" gradientUnits="userSpaceOnUse"><stop offset="0%" stop-opacity="1" style="stop-color:rgb(255,165,38)"/><stop offset="10%" stop-opacity="1" style="stop-color:rgb(255,161,38)"/><stop offset="20%" stop-opacity="1" style="stop-color:rgb(255,154,38)"/><stop offset="30.000000000000004%" stop-opacity="1" style="stop-color:rgb(255,146,38)"/><stop offset="40%" stop-opacity="1" style="stop-color:rgb(255,139,38)"/><stop offset="50%" stop-opacity="1" style="stop-color:rgb(255,132,38)"/><stop offset="60%" stop-opacity="1" style="stop-color:rgb(255,125,38)"/><stop offset="70%" stop-opacity="1" style="stop-color:rgb(255,118,38)"/><stop offset="80%" stop-opacity="1" style="stop-color:rgb(255,110,38)"/><stop offset="89.99999999999999%" stop-opacity="1" style="stop-color:rgb(255,103,38)"/><stop offset="99.99999999999999%" stop-opacity="1" style="stop-color:rgb(255,96,38)"/></linearGradient><path d=" M 255.128 416.518 C 255.128 422.056 271.375 426.545 291.416 426.545 L 291.416 426.545 C 311.458 426.545 327.705 422.056 327.705 416.518 L 327.705 416.518 C 327.705 410.981 311.458 406.493 291.416 406.493 L 291.416 406.493 C 271.375 406.493 255.128 410.981 255.128 416.518 Z " fill="url(#_lgradient_12)"/><clipPath id="_clipPath_p05kcY4JNDU83P8Znnl0Xo8UiAmHqCln"><path d=" M 0 0 L 750 0 L 750 500 L 0 500 L 0 0 Z " fill="rgb(255,255,255)"/></clipPath><g clip-path="url(#_clipPath_p05kcY4JNDU83P8Znnl0Xo8UiAmHqCln)"><g opacity="0.490005"><path d=" M 312.635 415.076 L 270.199 415.076 C 268.797 415.076 267.662 416.211 267.662 417.613 L 267.662 424.094 C 274.028 425.619 282.329 426.544 291.417 426.544 C 300.505 426.544 308.805 425.619 315.172 424.094 L 315.172 417.613 C 315.172 416.211 314.036 415.076 312.635 415.076 Z " fill="none"/></g><path d=" M 313.018 416.999 C 298.857 420.713 283.977 420.713 269.816 416.999 C 268.552 416.668 267.662 415.538 267.662 414.231 L 267.662 410.365 C 283.178 414.873 299.656 414.873 315.172 410.365 L 315.172 414.231 C 315.172 415.538 314.282 416.668 313.018 416.999 Z " fill="rgb(128,55,29)"/></g><linearGradient id="_lgradient_13" x1="0.5000034370216699" y1="0.7324146266322256" x2="0.50000343702167" y2="-0.26758537336777444" gradientTransform="matrix(79.051,0,0,42.197,251.834,372.043)" gradientUnits="userSpaceOnUse"><stop offset="0%" stop-opacity="1" style="stop-color:rgb(255,165,38)"/><stop offset="10%" stop-opacity="1" style="stop-color:rgb(255,161,38)"/><stop offset="20%" stop-opacity="1" style="stop-color:rgb(255,154,38)"/><stop offset="30.000000000000004%" stop-opacity="1" style="stop-color:rgb(255,146,38)"/><stop offset="40%" stop-opacity="1" style="stop-color:rgb(255,139,38)"/><stop offset="50%" stop-opacity="1" style="stop-color:rgb(255,132,38)"/><stop offset="60%" stop-opacity="1" style="stop-color:rgb(255,125,38)"/><stop offset="70%" stop-opacity="1" style="stop-color:rgb(255,118,38)"/><stop offset="80%" stop-opacity="1" style="stop-color:rgb(255,110,38)"/><stop offset="89.99999999999999%" stop-opacity="1" style="stop-color:rgb(255,103,38)"/><stop offset="99.99999999999999%" stop-opacity="1" style="stop-color:rgb(255,96,38)"/></linearGradient><path d=" M 291.36 377.896 L 251.834 372.043 C 251.834 398.745 267.662 410.365 267.662 410.365 L 267.662 410.365 C 267.662 410.365 278.372 414.24 291.36 414.24 L 291.36 414.24 C 304.348 414.24 315.058 410.365 315.058 410.365 L 315.058 410.365 C 315.058 410.365 330.885 398.745 330.885 372.043 L 330.885 372.043 L 291.36 377.896 Z " fill="url(#_lgradient_13)"/><linearGradient id="_lgradient_14" x1="0.5000034370216699" y1="0.5866177564420916" x2="0.50000343702167" y2="-0.4133822435579084" gradientTransform="matrix(79.051,0,0,18.123,251.834,362.982)" gradientUnits="userSpaceOnUse"><stop offset="0%" stop-opacity="1" style="stop-color:rgb(255,165,38)"/><stop offset="10%" stop-opacity="1" style="stop-color:rgb(255,161,38)"/><stop offset="20%" stop-opacity="1" style="stop-color:rgb(255,154,38)"/><stop offset="30.000000000000004%" stop-opacity="1" style="stop-color:rgb(255,146,38)"/><stop offset="40%" stop-opacity="1" style="stop-color:rgb(255,139,38)"/><stop offset="50%" stop-opacity="1" style="stop-color:rgb(255,132,38)"/><stop offset="60%" stop-opacity="1" style="stop-color:rgb(255,125,38)"/><stop offset="70%" stop-opacity="1" style="stop-color:rgb(255,118,38)"/><stop offset="80%" stop-opacity="1" style="stop-color:rgb(255,110,38)"/><stop offset="89.99999999999999%" stop-opacity="1" style="stop-color:rgb(255,103,38)"/><stop offset="99.99999999999999%" stop-opacity="1" style="stop-color:rgb(255,96,38)"/></linearGradient><path d=" M 251.834 372.043 C 251.834 377.049 269.53 381.105 291.36 381.105 L 291.36 381.105 C 313.189 381.105 330.885 377.049 330.885 372.043 L 330.885 372.043 C 330.885 367.038 313.189 362.982 291.36 362.982 L 291.36 362.982 C 269.53 362.982 251.834 367.038 251.834 372.043 Z " fill="url(#_lgradient_14)"/><clipPath id="_clipPath_H3t5LB9ByjBRyAGe9Cxa8yqInwmXSqMN"><path d=" M 0 0 L 750 0 L 750 500 L 0 500 L 0 0 Z " fill="rgb(255,255,255)"/></clipPath><g clip-path="url(#_clipPath_H3t5LB9ByjBRyAGe9Cxa8yqInwmXSqMN)"><path d=" M 328.387 372.043 C 328.387 376.219 311.809 379.605 291.36 379.605 C 270.909 379.605 254.332 376.219 254.332 372.043 C 254.332 367.868 270.909 364.482 291.36 364.482 C 311.809 364.482 328.387 367.868 328.387 372.043 Z " fill="rgb(128,55,29)"/></g><linearGradient id="_lgradient_15" x1="0.49999680859986606" y1="0.36564068885518" x2="1.6224479105896905" y2="18331017608853732" gradientTransform="matrix(71.536,0,0,11.207,255.592,368.398)" gradientUnits="userSpaceOnUse"><stop offset="0%" stop-opacity="1" style="stop-color:rgb(235,195,108)"/><stop offset="10%" stop-opacity="1" style="stop-color:rgb(237,201,123)"/><stop offset="20%" stop-opacity="1" style="stop-color:rgb(239,207,137)"/><stop offset="30.000000000000004%" stop-opacity="1" style="stop-color:rgb(241,213,152)"/><stop offset="40%" stop-opacity="1" style="stop-color:rgb(243,219,167)"/><stop offset="50%" stop-opacity="1" style="stop-color:rgb(245,225,181)"/><stop offset="60%" stop-opacity="1" style="stop-color:rgb(247,231,196)"/><stop offset="70%" stop-opacity="1" style="stop-color:rgb(249,237,211)"/><stop offset="80%" stop-opacity="1" style="stop-color:rgb(251,243,226)"/><stop offset="89.99999999999999%" stop-opacity="1" style="stop-color:rgb(253,249,240)"/><stop offset="99.99999999999999%" stop-opacity="1" style="stop-color:rgb(255,255,255)"/></linearGradient><path d=" M 255.592 374.001 C 259.817 377.227 274.226 379.605 291.36 379.605 L 291.36 379.605 C 308.493 379.605 322.903 377.227 327.128 374.001 L 327.128 374.001 C 322.903 370.774 308.493 368.398 291.36 368.398 L 291.36 368.398 C 274.226 368.398 259.817 370.774 255.592 374.001 Z " fill="url(#_lgradient_15)"/><path d=" M 185.557 284.722 C 185.591 315.61 207.765 326.629 232.428 331.307 L 232.428 331.307 C 293.676 342.925 283.442 368.967 283.442 368.967 L 283.442 368.967 L 299.278 368.967 C 299.278 368.967 305.392 348.628 282.137 330.311 L 282.137 330.311 C 266.829 318.254 226.343 314.13 228.624 297.652 L 228.624 297.652 C 231.704 275.414 264.615 284.722 264.615 284.722 L 264.615 284.722 L 264.615 243.461 C 260.063 243.044 255.538 242.832 251.082 242.832 L 251.082 242.832 C 215.993 242.833 185.526 255.956 185.557 284.722 Z " fill="none"/><clipPath id="_clipPath_XtmjBqdtXMBtvVGkQbY93FZ13247EYUP"><path d=" M 0 0 L 750 0 L 750 500 L 0 500 L 0 0 Z " fill="rgb(255,255,255)"/></clipPath><g clip-path="url(#_clipPath_XtmjBqdtXMBtvVGkQbY93FZ13247EYUP)"><path d=" M 186.012 411.603 C 186.012 412.673 179.613 413.54 171.718 413.54 C 163.824 413.54 157.424 412.673 157.424 411.603 C 157.424 410.534 163.824 409.666 171.718 409.666 C 179.613 409.666 186.012 410.534 186.012 411.603 Z " fill="rgb(206,219,237)"/><path d=" M 246.642 411.603 C 246.642 412.673 241.964 413.54 236.193 413.54 C 230.422 413.54 225.744 412.673 225.744 411.603 C 225.744 410.534 230.422 409.666 236.193 409.666 C 241.964 409.666 246.642 410.534 246.642 411.603 Z " fill="rgb(206,219,237)"/><path d=" M 177.815 368.967 L 173.246 406.488 C 173.246 406.488 162.447 409.672 162.17 411.196 L 180.446 411.196 L 178.507 406.211 L 188.337 368.967 L 177.815 368.967 Z " fill="rgb(255,109,109)"/><path d=" M 171.348 407.076 L 173.178 408.837 L 179.064 407.644 L 180.445 411.196 L 162.169 411.196 C 162.372 410.077 168.24 408.067 171.348 407.076 Z " fill="rgb(12,48,105)"/><path d=" M 220.334 368.967 L 236.009 402.31 L 232.349 408.979 L 229.793 411.196 L 234.88 411.196 L 244.363 403.845 L 240.869 400.921 L 230.459 365.198 L 220.334 368.967 Z " fill="rgb(255,109,109)"/><path d=" M 232.348 408.979 L 234.883 404.36 L 238.064 405.319 L 242.189 402.026 L 244.363 403.845 L 234.879 411.196 L 229.793 411.196 L 232.348 408.979 Z " fill="rgb(12,48,105)"/><path d=" M 185.728 259.384 C 185.728 259.384 178.693 305.399 176.126 370.332 L 190.387 370.332 L 212.158 259.384 L 185.728 259.384 Z " fill="rgb(12,48,105)"/><g opacity="0.220001"><path d=" M 182.806 282.17 C 184.461 267.672 185.728 259.384 185.728 259.384 L 212.157 259.384 L 199.871 321.996 C 195.482 310.127 187.104 291.539 182.806 282.17 Z " fill="none"/></g><path d=" M 221.665 259.384 C 230.791 294.18 221.855 335.061 221.855 335.061 L 233.644 365.769 L 219.193 370.332 C 219.193 370.332 209.227 350.167 203.981 328.216 C 198.848 306.73 194.142 259.384 194.142 259.384 L 221.665 259.384 Z " fill="rgb(15,61,133)"/><path d=" M 189.46 201.831 C 184.824 205.764 181.105 213.679 178.187 229.472 C 175.27 245.266 174.984 247.405 174.984 247.405 C 174.984 247.405 166.746 278.921 165.874 283.484 C 165.002 288.048 165.605 293.609 165.874 293.039 C 166.143 292.469 166.999 287.763 166.999 287.763 C 166.999 287.763 168.995 295.606 169.708 295.606 C 170.421 295.606 168.853 288.618 168.853 288.618 C 168.853 288.618 171.562 294.18 172.132 293.894 C 172.703 293.609 170.136 287.477 170.136 287.477 C 170.136 287.477 173.721 292.422 174.139 292.16 C 174.557 291.898 172.563 287.806 172.563 287.806 C 172.563 287.806 175.555 289.046 175.555 288.19 C 175.555 287.335 173.073 286.737 173.073 286.737 C 173.073 286.737 172.845 283.769 170.992 281.631 L 186.963 246.264 L 189.46 201.831 Z " fill="rgb(255,109,109)"/></g><path d=" M 178.187 229.473 C 175.27 245.267 174.984 247.405 174.984 247.405 L 174.984 247.405 C 174.984 247.405 174.947 247.55 174.88 247.807 L 174.88 247.807 L 178.932 264.049 L 186.963 246.265 L 189.46 201.832 C 184.824 205.764 181.104 213.679 178.187 229.473 Z " fill="none"/><linearGradient id="_lgradient_16" x1="0.5000056448665715" y1="0.7006385168462885" x2="1.0191635113641828" y2="8478491379866739" gradientTransform="matrix(41.891,0,0,64.673,182.007,197.136)" gradientUnits="userSpaceOnUse"><stop offset="0%" stop-opacity="1" style="stop-color:rgb(255,165,38)"/><stop offset="10%" stop-opacity="1" style="stop-color:rgb(255,161,38)"/><stop offset="20%" stop-opacity="1" style="stop-color:rgb(255,154,38)"/><stop offset="30.000000000000004%" stop-opacity="1" style="stop-color:rgb(255,146,38)"/><stop offset="40%" stop-opacity="1" style="stop-color:rgb(255,139,38)"/><stop offset="50%" stop-opacity="1" style="stop-color:rgb(255,132,38)"/><stop offset="60%" stop-opacity="1" style="stop-color:rgb(255,125,38)"/><stop offset="70%" stop-opacity="1" style="stop-color:rgb(255,118,38)"/><stop offset="80%" stop-opacity="1" style="stop-color:rgb(255,110,38)"/><stop offset="89.99999999999999%" stop-opacity="1" style="stop-color:rgb(255,103,38)"/><stop offset="99.99999999999999%" stop-opacity="1" style="stop-color:rgb(255,96,38)"/></linearGradient><path d=" M 204.646 197.137 L 194.665 198.411 L 192.82 199.441 C 188.88 201.637 185.862 205.17 184.31 209.405 L 184.31 209.405 C 183.114 212.671 181.991 216.406 182.007 218.884 L 182.007 218.884 C 182.025 221.706 183.088 223.875 184.072 225.282 L 184.072 225.282 C 185.119 226.777 185.573 228.602 185.378 230.416 L 185.378 230.416 L 182.007 261.809 L 223.898 261.809 L 221.475 204.766 C 210.413 197.205 204.85 197.136 204.652 197.136 L 204.652 197.136 C 204.648 197.136 204.646 197.137 204.646 197.137 Z " fill="url(#_lgradient_16)"/><clipPath id="_clipPath_B1rIb3Bteyt3iWsvNQXUEmkrzoOC1A6Q"><path d=" M 0 0 L 750 0 L 750 500 L 0 500 L 0 0 Z " fill="rgb(255,255,255)"/></clipPath><g clip-path="url(#_clipPath_B1rIb3Bteyt3iWsvNQXUEmkrzoOC1A6Q)"><path d=" M 186.322 170.712 C 183.541 172.107 182.543 173.945 183.042 175.529 C 183.541 177.114 184.62 179.333 184.62 179.333 C 184.62 179.333 181.046 181.107 182.258 183.96 C 183.47 186.812 185.038 187.889 185.038 187.889 C 185.038 187.889 182.329 190.805 183.256 192.833 C 184.183 194.861 186.037 195.424 189.744 195.424 L 201.769 195.424 L 200.797 176.987 L 186.322 170.712 Z " fill="rgb(12,48,105)"/><path d=" M 188.713 172.922 L 187.107 179.966 L 188.604 179.966 C 188.604 179.966 188.528 185.625 190.244 186.198 C 191.888 186.748 193.571 186.452 193.571 186.452 L 194.665 198.411 C 194.665 198.411 197.66 200.916 205.218 197.608 L 199.656 180.98 C 199.656 180.98 201.507 178.126 201.769 174.895 C 202.294 168.43 189.891 167.816 188.713 172.922 Z " fill="rgb(255,109,109)"/><path d=" M 186.322 170.712 L 193.452 177.304 C 193.452 177.304 191.352 177.436 191.812 179.586 C 192.383 182.248 199.655 186.241 199.655 186.241 C 199.655 186.241 196.946 187.889 199.299 192.009 C 201.652 196.129 206.073 195.369 209.567 195.369 C 213.061 195.369 218.195 194.101 217.054 190.615 C 215.913 187.129 205.645 180.093 205.645 180.093 C 205.645 180.093 207.835 176.181 204.148 172.677 C 200.012 168.747 192.383 167.923 186.322 170.712 Z " fill="rgb(12,48,105)"/></g><path d=" M 165.874 209.843 L 182.405 227.333 L 206.833 215.937 L 199.743 192.696 L 183.535 172.933 L 165.874 209.843 Z " fill="none"/><clipPath id="_clipPath_5b9LZnvfjnCJn3VKdmbxQPz2ElDMoZNp"><path d=" M 0 0 L 750 0 L 750 500 L 0 500 L 0 0 Z " fill="rgb(255,255,255)"/></clipPath><g clip-path="url(#_clipPath_5b9LZnvfjnCJn3VKdmbxQPz2ElDMoZNp)"><path d=" M 172.14 227.333 L 182.404 227.333 L 176.138 209.842 L 165.873 209.842 L 172.14 227.333 Z " fill="rgb(12,48,105)"/><g opacity="0.220001"><path d=" M 180.236 227.333 L 182.404 227.333 L 176.138 209.843 L 173.97 209.843 L 180.236 227.333 Z " fill="none"/></g><line x1="217.497" y1="366.713" x2="232.084" y2="361.707" vector-effect="non-scaling-stroke" stroke-width="0.872" stroke="rgb(22,86,189)" stroke-linejoin="miter" stroke-linecap="square" stroke-miterlimit="3"/><line x1="191.096" y1="366.713" x2="176.274" y2="366.713" vector-effect="non-scaling-stroke" stroke-width="0.872" stroke="rgb(22,86,189)" stroke-linejoin="miter" stroke-linecap="square" stroke-miterlimit="3"/><path d=" M 200.588 285.311 L 233.844 285.311 L 235.874 258.358 L 198.559 258.358 L 200.588 285.311 Z " fill="rgb(217,39,39)"/><path d=" M 235.388 264.805 L 218.102 271.492 C 217.532 271.712 216.9 271.712 216.33 271.492 L 199.044 264.805" fill="none" vector-effect="non-scaling-stroke" stroke-width="1.049" stroke="rgb(206,219,237)" stroke-linejoin="miter" stroke-linecap="square" stroke-miterlimit="3"/><path d=" M 232.767 258.358 L 202.439 258.358 L 214.145 205.208 C 214.961 201.502 220.245 201.502 221.061 205.208 L 232.767 258.358 Z " fill="none" vector-effect="non-scaling-stroke" stroke-width="0.942" stroke="rgb(12,48,105)" stroke-linejoin="miter" stroke-linecap="square" stroke-miterlimit="3"/><path d=" M 217.086 204.009 C 210.951 207.514 217.585 238.306 217.585 238.306 L 185.166 224.235 C 185.166 224.235 182.694 219.482 180.317 217.961 C 177.94 216.439 174.708 215.203 174.423 215.394 C 174.138 215.584 179.3 218.916 179.3 218.916 C 179.3 218.916 173.567 217.676 173.377 218.246 C 173.187 218.816 179.258 220.147 179.258 220.147 C 179.258 220.147 173.282 220.147 173.377 220.622 C 173.472 221.098 179.258 221.383 179.258 221.383 C 179.258 221.383 175.659 221.288 175.754 221.859 C 175.849 222.429 179.258 222.571 179.258 222.571 C 179.258 222.571 181.363 227.042 183.835 227.445 C 183.835 227.445 215.874 255.419 227.567 252.705 C 238.095 250.261 228.994 216.724 226.522 211.401 C 224.05 206.076 219.748 202.488 217.086 204.009 Z " fill="rgb(255,109,109)"/></g><path d=" M 217.585 238.305 L 224.897 240.94 L 214.682 218.613 C 215.364 227.986 217.585 238.305 217.585 238.305 Z " fill="none"/></svg>