<?xml version="1.0" encoding="UTF-8"?>
<svg xmlns="http://www.w3.org/2000/svg" xmlns:xlink="http://www.w3.org/1999/xlink" width="100pt" height="100pt" viewBox="0 0 100 100" version="1.1">
<g id="surface4400280">
<path style=" stroke:none;fill-rule:nonzero;fill:rgb(94.509804%,76.862745%,5.882353%);fill-opacity:1;" d="M 72.125 0 C 70.25 0 68.28125 1.101562 66.8125 3 L 50.25 26.25 C 47.867188 25.6875 45.453125 25.4375 43 25.4375 C 34.578125 25.4375 26.640625 28.734375 20.6875 34.6875 C 20.3125 35.0625 20.125 35.53125 20.125 36.0625 C 20.125 36.59375 20.3125 37.125 20.6875 37.5 L 62.5 79.3125 C 62.890625 79.703125 63.359375 79.875 63.875 79.875 C 64.390625 79.875 64.921875 79.640625 65.3125 79.25 C 73.179688 71.390625 76.304688 60.046875 73.625 49.3125 L 97 33.375 C 98.75 32.070312 99.867188 30.28125 100 28.5 C 100.101562 27.195312 99.625 25.945312 98.75 25.0625 L 75.25 1.25 C 74.445312 0.429688 73.320312 0 72.125 0 Z M 33.0625 55.5 L 0.4375 96.75 C -0.195312 97.546875 -0.15625 98.71875 0.5625 99.4375 C 0.953125 99.828125 1.484375 100 2 100 C 2.4375 100 2.882812 99.851562 3.25 99.5625 L 44.4375 66.9375 Z M 33.0625 55.5 "/>
</g>
</svg>
