<?xml version="1.0" encoding="iso-8859-1"?>
<!-- Generator: Adobe Illustrator 19.0.0, SVG Export Plug-In . SVG Version: 6.00 Build 0)  -->
<svg version="1.1" id="Capa_1" xmlns="http://www.w3.org/2000/svg" xmlns:xlink="http://www.w3.org/1999/xlink" x="0px" y="0px"
	 viewBox="0 0 496 496" style="enable-background:new 0 0 496 496;" xml:space="preserve">
<g>
	<g>
		<path d="M496,96V80h-40c-4.424,0-8,3.576-8,8h-28.688L392,60.688V8c0-4.424-3.576-8-8-8c-26.472,0-48,21.528-48,48v40h-60
			c-15.44,0-28,12.56-28,28c0,7.84,3.256,14.912,8.464,20c-5.208,5.088-8.464,12.16-8.464,20c0,10.032,5.352,18.784,13.304,23.728
			C258,184.328,256,189.92,256,196c0,10.032,5.352,18.784,13.304,23.728C266,224.328,264,229.92,264,236c0,15.44,12.56,28,28,28h156
			c0,4.424,3.576,8,8,8h40v-16h-32V96H496z M448,248H292c-6.616,0-12-5.384-12-12c0-6.616,5.384-12,12-12h4h8v-16h-8h-4h-8
			c-6.616,0-12-5.384-12-12c0-6.616,5.384-12,12-12h4h8v-16h-8h-4h-8c-6.616,0-12-5.384-12-12c0-6.616,5.384-12,12-12h12v-16h-12
			c-6.616,0-12-5.384-12-12c0-6.616,5.384-12,12-12h68c4.424,0,8-3.576,8-8V48c0-14.88,10.208-27.432,24-30.984V64
			c0,2.128,0.84,4.152,2.344,5.656l32,32C411.84,103.152,413.872,104,416,104h32V248z"/>
	</g>
</g>
<g>
	<g>
		<path d="M248,340c0-10.032-5.352-18.784-13.312-23.728C237.992,311.672,240,306.08,240,300c0-10.032-5.352-18.784-13.312-23.728
			C229.992,271.672,232,266.08,232,260c0-15.44-12.56-28-28-28H48c0-4.424-3.576-8-8-8H0v16h32v160H0v16h40c4.424,0,8-3.576,8-8
			h28.688L104,435.312V488c0,4.424,3.576,8,8,8c26.472,0,48-21.528,48-48v-40h60c15.44,0,28-12.56,28-28
			c0-7.84-3.256-14.912-8.464-20C244.744,354.912,248,347.84,248,340z M220,368c6.616,0,12,5.384,12,12c0,6.616-5.384,12-12,12h-68
			c-4.424,0-8,3.576-8,8v48c0,14.88-10.208,27.432-24,30.984V432c0-2.128-0.848-4.16-2.344-5.656l-32-32
			C84.152,392.84,82.128,392,80,392H48V248h156c6.616,0,12,5.384,12,12c0,6.616-5.384,12-12,12h-4h-8v16h8h4h8
			c6.616,0,12,5.384,12,12c0,6.616-5.384,12-12,12h-4h-8v16h8h4h8c6.616,0,12,5.384,12,12c0,6.616-5.384,12-12,12h-12v16H220z"/>
	</g>
</g>
<g>
	<g>
		<path d="M248,64c-88.832,0-164.936,63.32-180.968,150.552l15.736,2.888C97.4,137.808,166.888,80,248,80
			c2.56,0,5.12,0.064,7.648,0.168l0.704-15.984C253.584,64.064,250.8,64,248,64z"/>
	</g>
</g>
<g>
	<g>
		<path d="M413.232,278.56C398.6,358.192,329.112,416,248,416c-2.56,0-5.12-0.064-7.648-0.168l-0.704,15.984
			C242.416,431.936,245.2,432,248,432c88.824,0,164.936-63.32,180.968-150.552L413.232,278.56z"/>
	</g>
</g>
<g>
</g>
<g>
</g>
<g>
</g>
<g>
</g>
<g>
</g>
<g>
</g>
<g>
</g>
<g>
</g>
<g>
</g>
<g>
</g>
<g>
</g>
<g>
</g>
<g>
</g>
<g>
</g>
<g>
</g>
</svg>
