<svg fill="#000000" xmlns="http://www.w3.org/2000/svg" viewBox="0 0 50 50" width="100px" height="100px"><path d="M 12.5 2 C 10.964844 2 10.292969 3.300781 10.234375 3.425781 L 4.140625 12.40625 C 4.140625 12.40625 4.140625 12.410156 4.140625 12.410156 C 3.386719 13.472656 3 14.714844 3 16 L 3 22.5 C 3 25.527344 5.472656 28 8.5 28 L 20 28 C 21.644531 28 23 26.644531 23 25 L 23 24.382813 C 23.40625 23.984375 24 23.273438 24 22 C 24 21.136719 23.664063 20.476563 23.324219 20 C 23.664063 19.523438 24 18.863281 24 18 C 24 16.726563 23.40625 16.015625 23 15.617188 L 23 15 C 23 13.355469 21.644531 12 20 12 L 13.5 12 C 12.96875 12 13.046875 11.941406 13.042969 11.933594 C 13.039063 11.921875 12.996094 11.601563 13.1875 11.105469 C 14.570313 7.449219 15 5.847656 15 4.5 C 15 3.167969 13.886719 2 12.5 2 Z M 12.5 4 C 12.863281 4 13 4.175781 13 4.5 C 13 5.402344 12.679688 6.796875 11.3125 10.394531 C 11.027344 11.15625 10.859375 11.960938 11.222656 12.761719 C 11.589844 13.5625 12.53125 14 13.5 14 L 20 14 C 20.566406 14 21 14.433594 21 15 L 21 16 C 21 16.316406 21.148438 16.613281 21.402344 16.800781 C 21.402344 16.800781 22 17.285156 22 18 C 22 18.703125 21.433594 19.15625 21.410156 19.175781 C 21.125 19.378906 20.964844 19.714844 20.988281 20.0625 C 20.988281 20.0625 20.988281 20.066406 20.988281 20.066406 C 21.007813 20.371094 21.164063 20.648438 21.410156 20.824219 C 21.414063 20.824219 21.414063 20.824219 21.414063 20.828125 C 21.4375 20.847656 22 21.296875 22 22 C 22 22.714844 21.402344 23.199219 21.402344 23.199219 C 21.148438 23.386719 21 23.683594 21 24 L 21 25 C 21 25.566406 20.566406 26 20 26 L 8.5 26 C 6.554688 26 5 24.445313 5 22.5 L 5 16 C 5 15.105469 5.25 14.300781 5.773438 13.566406 C 5.777344 13.5625 5.78125 13.554688 5.78125 13.546875 L 11.910156 4.523438 C 11.925781 4.5 11.941406 4.476563 11.953125 4.453125 C 11.953125 4.453125 12.359375 4 12.5 4 Z M 30 22 C 28.355469 22 27 23.355469 27 25 L 27 25.617188 C 26.59375 26.015625 26 26.726563 26 28 C 26 28.863281 26.335938 29.523438 26.675781 30 C 26.335938 30.476563 26 31.136719 26 32 C 26 33.273438 26.59375 33.984375 27 34.382813 L 27 35 C 27 36.644531 28.355469 38 30 38 L 36.5 38 C 37.03125 38 36.953125 38.058594 36.957031 38.066406 C 36.960938 38.078125 37.003906 38.398438 36.8125 38.894531 C 35.429688 42.550781 35 44.152344 35 45.5 C 35 46.832031 36.113281 48 37.5 48 C 39.035156 48 39.707031 46.699219 39.765625 46.574219 L 45.859375 37.59375 L 45.859375 37.589844 C 46.613281 36.527344 47 35.285156 47 34 L 47 27.5 C 47 24.472656 44.527344 22 41.5 22 Z M 30 24 L 41.5 24 C 43.445313 24 45 25.554688 45 27.5 L 45 34 C 45 34.894531 44.75 35.699219 44.230469 36.433594 C 44.222656 36.4375 44.21875 36.445313 44.21875 36.453125 L 38.089844 45.476563 C 38.074219 45.5 38.058594 45.523438 38.046875 45.546875 C 38.046875 45.546875 37.640625 46 37.5 46 C 37.136719 46 37 45.824219 37 45.5 C 37 44.597656 37.320313 43.203125 38.6875 39.605469 C 38.972656 38.84375 39.140625 38.039063 38.777344 37.238281 C 38.410156 36.4375 37.46875 36 36.5 36 L 30 36 C 29.433594 36 29 35.566406 29 35 L 29 34 C 29 33.683594 28.851563 33.386719 28.597656 33.199219 C 28.597656 33.199219 28 32.714844 28 32 C 28 31.296875 28.566406 30.84375 28.589844 30.824219 C 28.875 30.621094 29.035156 30.285156 29.011719 29.9375 C 29.011719 29.9375 29.011719 29.933594 29.011719 29.933594 C 28.992188 29.628906 28.835938 29.351563 28.589844 29.175781 C 28.585938 29.175781 28.585938 29.175781 28.585938 29.171875 C 28.5625 29.152344 28 28.703125 28 28 C 28 27.285156 28.597656 26.800781 28.597656 26.800781 C 28.851563 26.613281 29 26.316406 29 26 L 29 25 C 29 24.433594 29.433594 24 30 24 Z"/></svg>