<svg id="Capa_1" enable-background="new 0 0 512 512" height="512" viewBox="0 0 512 512" width="512" xmlns="http://www.w3.org/2000/svg"><g><g><path d="m235.739 305.857h3.268c-7.322 0-13.947-2.971-18.748-7.772-4.801-4.795-7.765-11.426-7.765-18.748 0-14.644 11.87-26.514 26.514-26.514h3.268c-7.322 0-13.954-2.964-18.748-7.765-4.801-4.801-7.772-11.426-7.772-18.748 0-14.644 11.876-26.514 26.52-26.514h206.492v192.994c-24.861 0-46.966 15.803-55.016 39.321l-18.242 53.325c-2.173 6.353-6.252 11.661-11.458 15.379-5.206 3.724-11.547 5.859-18.261 5.859-7.195 0-13.757-2.287-19.09-6.125h-.006c-10.185-7.328-15.873-20.306-12.902-33.741l12.155-54.896h-93.478c-14.644 0-26.514-11.87-26.514-26.514s11.87-26.514 26.514-26.514h3.268c-7.322 0-13.947-2.971-18.748-7.765-4.801-4.795-7.765-11.426-7.765-18.748 0-14.644 11.87-26.514 26.514-26.514z" fill="#f1d0a5"/><path d="m326.7 500.549c19.097 6.119 34.089-22.96 45.883-65.081 11.794-42.12 43.685-57.29 76.184-57.29v14.612c-24.861 0-46.966 15.803-55.016 39.321l-18.242 53.325c-2.173 6.353-6.252 11.661-11.458 15.379-5.206 3.724-11.547 5.859-18.261 5.859-7.195 0-13.757-2.287-19.09-6.125z" fill="#f1b986"/><path d="m215.755 226.31c0-14.644 11.876-26.514 26.52-26.514h206.492v77.28c0-21.903-10.47-58.133-85.451-58.133-74.987 0-154.883-10.958-139.789 26.115-4.801-4.801-7.772-11.426-7.772-18.748z" fill="#f1b986"/><path d="m512 191.826v208.929h-49.715c-7.46 0-13.517-6.047-13.517-13.517v-181.895c0-7.471 6.057-13.517 13.517-13.517z" fill="#dd636e"/><path d="m512 191.815v44.658h-49.715c-7.46 0-13.517 6.057-13.517 13.517v-44.648c0-7.471 6.057-13.528 13.517-13.528h49.715z" fill="#c63d4f"/></g><g><path d="m281.366 206.143h-3.268c7.322 0 13.947 2.971 18.748 7.772 4.801 4.795 7.765 11.426 7.765 18.748 0 14.644-11.87 26.514-26.514 26.514h-3.268c7.322 0 13.954 2.964 18.748 7.765 4.801 4.801 7.772 11.426 7.772 18.748 0 14.644-11.876 26.514-26.52 26.514h-206.491v-192.994c24.861 0 46.966-15.803 55.016-39.321l18.242-53.325c2.173-6.353 6.252-11.661 11.458-15.379 5.206-3.724 11.547-5.859 18.261-5.859 7.195 0 13.757 2.287 19.09 6.125h.006c10.185 7.328 15.873 20.307 12.902 33.741l-12.155 54.896h93.476c14.644 0 26.514 11.87 26.514 26.514s-11.87 26.514-26.514 26.514h-3.268c7.322 0 13.947 2.971 18.748 7.765s7.765 11.426 7.765 18.748c.001 14.644-11.869 26.514-26.513 26.514z" fill="#e2a770"/><path d="m190.405 11.451c-19.097-6.119-34.089 22.96-45.883 65.081-11.794 42.12-43.685 57.29-76.184 57.29v-14.612c24.861 0 46.966-15.803 55.016-39.321l18.242-53.325c2.173-6.353 6.252-11.661 11.458-15.379 5.206-3.724 11.547-5.859 18.261-5.859 7.195 0 13.757 2.287 19.09 6.125z" fill="#d5985c"/><path d="m301.35 285.69c0 14.644-11.876 26.514-26.52 26.514h-206.492v-77.28c0 21.903 10.47 58.133 85.451 58.133 74.987 0 154.883 10.958 139.789-26.115 4.801 4.801 7.772 11.426 7.772 18.748z" fill="#d5985c"/><path d="m68.339 124.755v181.895c0 7.471-6.057 13.517-13.517 13.517h-54.822v-208.929h54.822c7.46 0 13.517 6.047 13.517 13.517z" fill="#6bbef6"/><path d="m68.339 262.002v44.648c0 7.471-6.057 13.528-13.517 13.528h-54.822v-44.658h54.822c7.46-.001 13.517-6.058 13.517-13.518z" fill="#528ecb"/></g></g></svg>