<?xml version="1.0" encoding="UTF-8"?>
<svg xmlns="http://www.w3.org/2000/svg" xmlns:xlink="http://www.w3.org/1999/xlink" width="16pt" height="16pt" viewBox="0 0 16 16" version="1.1">
<g id="surface5905570">
<path style=" stroke:none;fill-rule:nonzero;fill:rgb(20%,20%,20%);fill-opacity:1;" d="M 13.867188 1.601562 C 13.816406 1.601562 13.765625 1.609375 13.714844 1.621094 C 13.703125 1.625 13.6875 1.632812 13.671875 1.636719 L 1.945312 5.367188 C 1.738281 5.445312 1.601562 5.644531 1.601562 5.867188 C 1.601562 6.054688 1.699219 6.226562 1.855469 6.320312 L 5.421875 9.148438 L 12.464844 3.535156 L 6.851562 10.578125 L 9.675781 14.140625 C 9.773438 14.300781 9.945312 14.398438 10.132812 14.398438 C 10.355469 14.398438 10.554688 14.261719 10.632812 14.054688 L 14.367188 2.316406 C 14.371094 2.304688 14.375 2.296875 14.378906 2.285156 C 14.390625 2.234375 14.398438 2.183594 14.398438 2.132812 C 14.398438 1.839844 14.160156 1.601562 13.867188 1.601562 Z M 13.867188 1.601562 "/>
</g>
</svg>
