<?xml version="1.0" encoding="UTF-8"?>
<svg xmlns="http://www.w3.org/2000/svg" xmlns:xlink="http://www.w3.org/1999/xlink" width="100pt" height="100pt" viewBox="0 0 100 100" version="1.1">
<g id="surface4535611">
<path style=" stroke:none;fill-rule:nonzero;fill:rgb(16.078431%,38.431373%,100%);fill-opacity:1;" d="M 99.210938 0.4375 C 98.59375 -0.046875 97.75 -0.117188 97.054688 0.257812 L 1.054688 52.257812 C 0.359375 52.632812 -0.046875 53.390625 0.03125 54.179688 C 0.101562 54.96875 0.632812 55.640625 1.382812 55.882812 L 28.671875 64.789062 L 26.03125 91.804688 C 25.945312 92.664062 26.421875 93.476562 27.210938 93.8125 C 27.460938 93.929688 27.734375 93.984375 28 93.984375 C 28.554688 93.984375 29.101562 93.75 29.484375 93.3125 L 46.695312 73.867188 L 72.609375 99.414062 C 72.984375 99.78125 73.484375 99.984375 74 99.984375 C 74.179688 99.984375 74.359375 99.953125 74.539062 99.90625 C 75.21875 99.71875 75.75 99.171875 75.921875 98.484375 L 99.921875 2.484375 C 100.109375 1.71875 99.835938 0.914062 99.210938 0.4375 Z M 32.6875 64.421875 L 71.710938 32.867188 L 45.117188 69.6875 L 30.5625 86.117188 Z M 32.6875 64.421875 "/>
</g>
</svg>
